<?xml version="1.0" encoding="utf-8"?><svg width="550" height="313" viewBox="0 0 550 313" xmlns="http://www.w3.org/2000/svg" xmlns:xlink="http://www.w3.org/1999/xlink"><svg version="1.1" id="SS-LogoWhite" viewBox="0 0 324 75" xml:space="preserve" width="324" height="75" xmlns="http://www.w3.org/2000/svg"><style>.ast0{fill:#fff}.ast1{fill:#9cbc65}</style><path class="ast0" d="M10.13 44.03c-1.36 0-2.91-.21-4.66-.63-1.74-.42-3.13-.97-4.17-1.65l1.08-2.46c1.44.72 2.77 1.28 3.99 1.68 1.22.4 2.51.6 3.87.6 2.4 0 4.28-.49 5.65-1.47 1.36-.98 2.04-2.31 2.04-3.99 0-2.4-2.56-4.6-7.69-6.61-5.65-2.2-8.47-4.9-8.47-8.11 0-2.36.88-4.29 2.64-5.8 1.76-1.5 4.22-2.25 7.39-2.25 1.28 0 2.73.23 4.35.69 1.62.46 2.91 1.03 3.87 1.71l-1.2 2.1c-1.4-.68-2.6-1.19-3.6-1.53-1-.34-2.28-.51-3.84-.51-2 0-3.63.53-4.9 1.59-1.25 1.06-1.88 2.31-1.88 3.75 0 1.24.64 2.34 1.92 3.3 1.28.96 3.08 1.9 5.41 2.82 2.72 1.08 4.87 2.31 6.46 3.69 1.58 1.38 2.37 3.01 2.37 4.9 0 5.45-3.54 8.18-10.63 8.18zM41.3 13.33c2.2 0 4.16.66 5.89 1.98 1.72 1.32 3.05 3.15 3.99 5.5.94 2.34 1.41 4.98 1.41 7.9H31.63c.04 3.76.91 6.85 2.61 9.25 1.7 2.4 4.25 3.6 7.66 3.6 1.92 0 3.52-.18 4.81-.54 1.28-.36 2.54-.86 3.78-1.5l1.2 2.22c-1.12.68-2.61 1.23-4.47 1.65-1.86.42-3.47.63-4.84.63-4.61 0-8.06-1.4-10.36-4.2-2.3-2.8-3.45-6.57-3.45-11.29 0-4.56 1.09-8.24 3.27-11.02 2.18-2.78 5.34-4.18 9.46-4.18zm-.42 2.47c-2.72 0-4.86 1.01-6.4 3.03-1.54 2.02-2.45 4.58-2.73 7.66h17.72c-.32-3.16-1.16-5.74-2.52-7.72-1.36-1.98-3.39-2.97-6.07-2.97zM73.14 13.33c2.2 0 4.16.66 5.89 1.98 1.72 1.32 3.05 3.15 3.99 5.5.94 2.34 1.41 4.98 1.41 7.9H63.47c.04 3.76.91 6.85 2.61 9.25 1.7 2.4 4.25 3.6 7.66 3.6 1.92 0 3.52-.18 4.81-.54 1.28-.36 2.54-.86 3.78-1.5l1.2 2.22c-1.12.68-2.61 1.23-4.47 1.65-1.86.42-3.47.63-4.84.63-4.61 0-8.06-1.4-10.36-4.2-2.3-2.8-3.45-6.57-3.45-11.29 0-4.56 1.09-8.24 3.27-11.02 2.18-2.78 5.33-4.18 9.46-4.18zm-.42 2.47c-2.72 0-4.86 1.01-6.4 3.03-1.54 2.02-2.45 4.58-2.73 7.66H81.3c-.32-3.16-1.16-5.74-2.52-7.72-1.36-1.98-3.38-2.97-6.06-2.97zM115.78 43.25h-1.62l-1.08-2.58c-2.44 2.24-5.21 3.36-8.29 3.36-4.17 0-7.3-1.4-9.4-4.2-2.1-2.8-3.15-6.57-3.15-11.29 0-4.52 1.12-8.19 3.36-10.99 2.24-2.8 5.45-4.2 9.61-4.2 1.28 0 2.59.26 3.93.78 1.34.52 2.57 1.18 3.69 1.98V1.44l2.94-.54v42.35zm-2.94-5.59V19.1c-2.44-2.2-5.03-3.3-7.75-3.3-2.08 0-3.85.57-5.32 1.71-1.46 1.14-2.57 2.67-3.33 4.59-.76 1.92-1.14 4.05-1.14 6.37 0 3.8.8 6.94 2.4 9.4 1.6 2.46 3.96 3.69 7.09 3.69 1.76 0 3.24-.33 4.44-.99 1.21-.66 2.41-1.63 3.61-2.91z"/><path class="ast1" d="M177.47 41.62l-1.5 1.62-5.83-5.29c-1.4 1.88-3.13 3.36-5.2 4.44-2.06 1.08-4.32 1.62-6.76 1.62-2.64 0-5.05-.52-7.21-1.56s-3.86-2.52-5.11-4.44c-1.24-1.92-1.86-4.18-1.86-6.79 0-2.56.58-4.91 1.74-7.06 1.16-2.14 2.74-3.87 4.75-5.2-1.48-2.24-2.22-4.6-2.22-7.09 0-1.88.44-3.62 1.32-5.23.88-1.6 2.1-2.87 3.66-3.81s3.28-1.41 5.17-1.41c1.84 0 3.54.23 5.11.69 1.56.46 2.88 1.01 3.96 1.65l-1.2 2.1c-1.48-.72-2.67-1.23-3.57-1.53-.9-.3-2.15-.45-3.75-.45-1.48 0-2.82.36-4.02 1.08s-2.14 1.67-2.82 2.85a7.504 7.504 0 0 0-1.02 3.81c0 2.04.53 3.93 1.59 5.68 1.06 1.74 2.71 3.67 4.96 5.8l11.89 11.11c1-1.68 1.77-3.53 2.31-5.56.54-2.02.81-3.95.81-5.8l2.16.66c0 2.2-.29 4.38-.87 6.55-.58 2.16-1.41 4.14-2.49 5.95l6 5.61zm-19.1-.06c1.96 0 3.78-.48 5.47-1.44 1.68-.96 3.14-2.26 4.38-3.9l-12.67-11.59c-1.6-1.44-2.8-2.66-3.6-3.66-1.68 1.2-2.95 2.67-3.81 4.41-.86 1.74-1.29 3.65-1.29 5.74 0 2.04.55 3.86 1.65 5.47 1.1 1.6 2.53 2.83 4.29 3.69 1.75.85 3.61 1.28 5.58 1.28z"/><path class="ast0" d="M211.64 44.03c-1.36 0-2.91-.21-4.65-.63-1.74-.42-3.13-.97-4.17-1.65l1.08-2.46c1.44.72 2.77 1.28 3.99 1.68 1.22.4 2.51.6 3.87.6 2.4 0 4.28-.49 5.65-1.47 1.36-.98 2.04-2.31 2.04-3.99 0-2.4-2.56-4.6-7.69-6.61-5.65-2.2-8.47-4.9-8.47-8.11 0-2.36.88-4.29 2.64-5.8 1.76-1.5 4.22-2.25 7.39-2.25 1.28 0 2.73.23 4.36.69 1.62.46 2.91 1.03 3.87 1.71l-1.2 2.1c-1.4-.68-2.6-1.19-3.6-1.53-1-.34-2.28-.51-3.84-.51-2 0-3.63.53-4.9 1.59-1.26 1.06-1.89 2.31-1.89 3.75 0 1.24.64 2.34 1.92 3.3 1.28.96 3.08 1.9 5.41 2.82 2.72 1.08 4.87 2.31 6.46 3.69 1.58 1.38 2.37 3.01 2.37 4.9-.01 5.45-3.55 8.18-10.64 8.18zM236.15 15.02h5.29l1.26 2.22h-6.55v18.62c0 1.6.34 2.95 1.02 4.05.68 1.1 1.7 1.65 3.06 1.65.8 0 1.62-.18 2.46-.54l.72 2.28c-.12 0-.66.14-1.62.42-.8.2-1.58.3-2.34.3-1.92 0-3.44-.67-4.56-2.01-1.12-1.34-1.68-3.25-1.68-5.74V17.24h-4.32v-2.22h4.32V7.15l2.94-1.32v9.19zM263.36 13.33c2.2 0 4.16.66 5.89 1.98 1.72 1.32 3.05 3.15 3.99 5.5.94 2.34 1.41 4.98 1.41 7.9h-20.96c.04 3.76.91 6.85 2.61 9.25 1.7 2.4 4.25 3.6 7.66 3.6 1.92 0 3.52-.18 4.81-.54 1.28-.36 2.54-.86 3.78-1.5l1.2 2.22c-1.12.68-2.61 1.23-4.47 1.65-1.86.42-3.47.63-4.84.63-4.6 0-8.06-1.4-10.36-4.2-2.3-2.8-3.45-6.57-3.45-11.29 0-4.56 1.09-8.24 3.27-11.02 2.18-2.78 5.33-4.18 9.46-4.18zm-.42 2.47c-2.72 0-4.86 1.01-6.4 3.03-1.54 2.02-2.45 4.58-2.73 7.66h17.72c-.32-3.16-1.16-5.74-2.52-7.72-1.37-1.98-3.39-2.97-6.07-2.97zM322.7 23v20.24h-2.94V23c0-2.32-.34-4.1-1.02-5.35-.68-1.24-1.96-1.86-3.84-1.86-2.8 0-6.05 1.8-9.73 5.41.04.4.06 1 .06 1.8v20.24h-2.94V23c0-2.32-.34-4.1-1.02-5.35-.68-1.24-1.96-1.86-3.84-1.86-1.52 0-3.15.53-4.89 1.59-1.74 1.06-3.51 2.49-5.32 4.29v21.56h-2.94V14.11h2.28l.6 4.56c1.24-1.44 2.84-2.69 4.81-3.75 1.96-1.06 3.7-1.59 5.23-1.59 3.92 0 6.43 1.76 7.51 5.29 1.24-1.44 2.83-2.68 4.78-3.72 1.94-1.04 3.67-1.56 5.2-1.56 2.8 0 4.84.86 6.13 2.58 1.24 1.72 1.88 4.08 1.88 7.08z"/><path class="ast1" d="M164.34 8.06c-1.2-1.36-3.61-2.37-6.75-1.15-1.66.65-2.89 1.95-3.37 3.58-.55 1.83-.11 3.88 1.24 5.77 2.51 3.52 9.01 8.94 9.28 9.16.19.16.43.24.67.24.15 0 .29-.03.43-.09.37-.17.61-.53.62-.93.07-2.28.28-13.88-2.12-16.58zm-7.17 6.99c-.96-1.35-1.3-2.76-.94-3.95.3-1.01 1.07-1.82 2.12-2.23.77-.3 1.43-.41 1.99-.41 1.4 0 2.17.71 2.42.99 1.04 1.17 1.51 6.26 1.61 10.99l-2.86-5.94c-.01-.01-.02-.02-.04-.02-.02.01-.03.02-.02.04l2.13 7.12c-2.11-1.88-5-4.61-6.41-6.59z"/><path class="ast0" d="M73.51 69.38c0-.86.17-1.63.5-2.31.34-.68.8-1.22 1.41-1.61.6-.39 1.28-.59 2.02-.6.73 0 1.39.19 1.98.57.59.38 1.05.9 1.38 1.58s.5 1.43.5 2.28c0 .86-.17 1.63-.51 2.32-.34.69-.81 1.23-1.41 1.62-.6.39-1.27.59-2.02.59-.74 0-1.4-.19-1.99-.57-.58-.38-1.04-.9-1.37-1.58-.32-.68-.49-1.44-.49-2.29zm3.95-3.92c-.61 0-1.15.17-1.64.5-.49.34-.87.8-1.14 1.4-.27.6-.41 1.27-.41 2s.13 1.39.4 1.97c.26.58.63 1.04 1.1 1.37.47.33.99.5 1.58.5.61 0 1.16-.17 1.65-.5.48-.34.86-.8 1.13-1.4.27-.6.41-1.27.41-2.02 0-.73-.13-1.39-.4-1.97-.27-.58-.63-1.04-1.1-1.37-.47-.31-.99-.48-1.58-.48zM85.65 73.63v-8.57h2.13c.96 0 1.71.19 2.26.58.55.39.83 1.01.83 1.87-.01.56-.15 1.03-.42 1.4-.27.37-.65.65-1.13.83l2.23 3.9h-.78l-2.06-3.71c-.36.07-.72.1-1.07.1h-1.3v3.61h-.69zm4.52-6.1c0-1.26-.79-1.89-2.36-1.89h-1.46v3.82h1.32c.71 0 1.31-.16 1.78-.47.47-.31.71-.8.72-1.46zM100.58 69.85h-1.93l.08-.53h2.55v3.92c-.24.16-.58.29-1.01.4-.43.11-.83.16-1.21.16-.85 0-1.6-.19-2.24-.57-.64-.38-1.14-.91-1.49-1.58s-.52-1.42-.52-2.26c0-.87.19-1.65.57-2.34.38-.68.9-1.22 1.55-1.6.66-.38 1.39-.57 2.21-.57.31 0 .69.04 1.12.13.44.08.76.2.97.34l-.24.49c-.31-.13-.59-.22-.84-.28-.25-.06-.58-.09-.98-.09-.66 0-1.26.16-1.8.49-.55.32-.98.78-1.3 1.38-.32.6-.49 1.28-.49 2.06 0 .74.15 1.4.45 1.97.3.58.72 1.02 1.24 1.34.53.32 1.12.48 1.78.48.5 0 1.01-.1 1.54-.29v-3.05zM104.67 73.63l3.11-8.57h.69l3.27 8.51-.69.14-1.01-2.71h-3.73l-.96 2.64h-.68zm1.83-3.19h3.34l-1.7-4.48-1.64 4.48zM116.32 66.47v7.16h-.69v-8.57h.43l4.43 6.33.43.74v-7.07h.71v8.57h-.43l-4.69-6.8-.19-.36zM127.29 65.06v8.57h-.69v-8.57h.69zM135.59 64.88c.31 0 .68.04 1.12.13.43.08.75.2.96.34l-.25.52c-.32-.13-.6-.23-.84-.29-.24-.06-.57-.09-.98-.09-.6 0-1.14.17-1.63.5-.49.33-.87.79-1.15 1.38s-.42 1.26-.42 2.02c0 .7.12 1.33.37 1.91.24.58.6 1.04 1.07 1.38.47.34 1.02.52 1.65.52.41 0 .76-.03 1.05-.1.29-.07.57-.16.84-.28l.3.53c-.24.13-.57.24-.99.33-.42.09-.81.14-1.17.14-.84 0-1.55-.2-2.13-.6-.58-.4-1.02-.93-1.31-1.6-.29-.67-.44-1.41-.44-2.21 0-.84.16-1.6.48-2.29.32-.69.78-1.23 1.37-1.63.6-.41 1.3-.61 2.1-.61zM150.61 64.88c.31 0 .68.04 1.12.13.43.08.75.2.96.34l-.25.52c-.32-.13-.6-.23-.84-.29-.24-.06-.57-.09-.98-.09-.6 0-1.14.17-1.63.5s-.87.79-1.15 1.38-.42 1.26-.42 2.02c0 .7.12 1.33.37 1.91.24.58.6 1.04 1.07 1.38.47.34 1.02.52 1.65.52.41 0 .76-.03 1.05-.1.29-.07.57-.16.84-.28l.3.53c-.24.13-.57.24-.99.33-.42.09-.81.14-1.17.14-.84 0-1.55-.2-2.13-.6-.58-.4-1.02-.93-1.31-1.6-.29-.67-.44-1.41-.44-2.21 0-.84.16-1.6.48-2.29s.78-1.23 1.37-1.63c.6-.41 1.3-.61 2.1-.61zM155.68 73.63l3.11-8.57h.69l3.27 8.51-.69.14-1.01-2.71h-3.73l-.96 2.64h-.68zm1.82-3.19h3.34l-1.7-4.48-1.64 4.48zM165.52 65.06h6.53l.06.55h-2.95v8.02h-.71v-8.02h-2.94v-.55zM180.73 73.08l.08.55H176v-8.57h4.74l.06.53h-4.11v3.39h3.03l.06.52h-3.09v3.58h4.04zM184.82 73.63v-8.57h2.13c.96 0 1.71.19 2.26.58.55.39.83 1.01.83 1.87-.01.56-.15 1.03-.42 1.4-.27.37-.65.65-1.13.83l2.23 3.9h-.78l-2.06-3.71c-.36.07-.72.1-1.07.1h-1.3v3.61h-.69zm4.51-6.1c0-1.26-.79-1.89-2.36-1.89h-1.46v3.82h1.32c.71 0 1.31-.16 1.78-.47.47-.31.71-.8.72-1.46zM195.29 65.06v8.57h-.69v-8.57h.69zM200.97 66.47v7.16h-.69v-8.57h.43l4.43 6.33.43.74v-7.07h.71v8.57h-.43l-4.69-6.8-.19-.36zM216.39 69.85h-1.93l.08-.53h2.55v3.92c-.24.16-.58.29-1.01.4-.43.11-.83.16-1.21.16-.85 0-1.6-.19-2.24-.57-.64-.38-1.14-.91-1.49-1.58-.35-.67-.52-1.42-.52-2.26 0-.87.19-1.65.57-2.34.38-.68.9-1.22 1.55-1.6.66-.38 1.39-.57 2.21-.57.31 0 .69.04 1.12.13.44.08.76.2.97.34l-.24.49c-.31-.13-.59-.22-.84-.28-.25-.06-.58-.09-.98-.09-.66 0-1.26.16-1.8.49-.55.32-.98.78-1.3 1.38-.32.6-.49 1.28-.49 2.06 0 .74.15 1.4.45 1.97.3.58.72 1.02 1.24 1.34.53.32 1.12.48 1.78.48.5 0 1.01-.1 1.54-.29v-3.05zM230.42 64.88c.31 0 .68.04 1.12.13.43.08.75.2.96.34l-.25.52c-.32-.13-.6-.23-.84-.29-.24-.06-.57-.09-.98-.09-.6 0-1.14.17-1.63.5-.49.33-.87.79-1.15 1.38-.28.59-.42 1.26-.42 2.02 0 .7.12 1.33.37 1.91.24.58.6 1.04 1.07 1.38.47.34 1.02.52 1.65.52.41 0 .76-.03 1.05-.1.29-.07.57-.16.84-.28l.3.53c-.24.13-.57.24-.99.33-.42.09-.81.14-1.17.14-.84 0-1.55-.2-2.13-.6-.58-.4-1.02-.93-1.31-1.6-.29-.67-.44-1.41-.44-2.21 0-.84.16-1.6.48-2.29.32-.69.78-1.23 1.37-1.63.61-.41 1.31-.61 2.1-.61zM235.97 69.38c0-.86.17-1.63.5-2.31.34-.68.8-1.22 1.41-1.61.6-.39 1.28-.59 2.02-.6.73 0 1.39.19 1.98.57.59.38 1.05.9 1.38 1.58s.5 1.43.5 2.28c0 .86-.17 1.63-.51 2.32-.34.69-.81 1.23-1.41 1.62-.6.39-1.27.59-2.02.59-.74 0-1.4-.19-1.99-.57-.58-.38-1.04-.9-1.37-1.58-.32-.68-.49-1.44-.49-2.29zm3.95-3.92c-.61 0-1.15.17-1.64.5-.49.34-.87.8-1.14 1.4-.27.6-.41 1.27-.41 2s.13 1.39.4 1.97c.26.58.63 1.04 1.1 1.37.47.33.99.5 1.58.5.61 0 1.16-.17 1.65-.5.48-.34.86-.8 1.13-1.4.27-.6.41-1.27.41-2.02 0-.73-.13-1.39-.4-1.97-.27-.58-.63-1.04-1.1-1.37a2.78 2.78 0 0 0-1.58-.48zM248.33 73.09c0 .15-.05.28-.16.38a.5.5 0 0 1-.37.16c-.16 0-.29-.05-.39-.16a.537.537 0 0 1-.15-.38.5.5 0 0 1 .16-.37c.11-.1.23-.15.39-.15.14 0 .27.05.37.16.1.11.15.23.15.36z"/><g><path class="ast0" d="M256.73 70.06h20.53M256.73 69.79h20.53v.53h-20.53z"/></g><g><path class="ast0" d="M45.06 70.06h20.53M45.06 69.79h20.53v.53H45.06z"/></g></svg><svg version="1.1" id="facebook" x="384.11" y="250" viewBox="0 0 50 50" xml:space="preserve" width="50" height="50" xmlns="http://www.w3.org/2000/svg"><style>.bst0{fill:#fff}</style><path class="bst0" d="M43.26 0H6.74C3.02 0 0 3.02 0 6.74v36.52C0 46.98 3.02 50 6.74 50h18.01l.03-17.87h-4.64c-.6 0-1.09-.49-1.1-1.09l-.02-5.76c0-.61.49-1.1 1.1-1.1h4.63v-5.56c0-6.46 3.94-9.97 9.71-9.97h4.73c.6 0 1.1.49 1.1 1.1v4.86c0 .6-.49 1.09-1.09 1.1h-2.9c-3.13 0-3.74 1.49-3.74 3.67v4.82h6.88c.66 0 1.16.57 1.09 1.22l-.68 5.76c-.07.55-.53.97-1.09.97h-6.17L32.54 50h10.72c3.72 0 6.74-3.02 6.74-6.74V6.74C50 3.02 46.98 0 43.26 0z"/></svg><svg version="1.1" id="green-restaurant-certified-logo" x="324" viewBox="0 0 226 250" xml:space="preserve" width="226" height="250" xmlns="http://www.w3.org/2000/svg"><style>.cst0{fill:#fff}</style><path class="cst0" d="M111.4 57.43c-19.62 0-35.5 15.88-35.5 35.5 0 19.62 15.88 35.55 35.5 35.5 19.62 0 35.5-15.88 35.5-35.5s-15.87-35.5-35.5-35.5zm1.35 69.01c.9-2.85 3-4.44 2.55-8.64-3.55-1.2-4.94-4.54-7.59-6.59.05-3.1.45-4.64 2.55-6.59.2-1.88-.98-2.39-1.49-3.52-.08 0-.16.01-.25.01-.71.2-.54 1.33-1.81.96-2.55-2.4-5.49-4.34-8.14-6.59-6.49 1.05-7.79-6.94-9.14-12.68-2.3.45 1.25 5.49-.5 5.09.1-2.2-1.85-4.24-.5-6.09-2.5-6.64 3.55-10.39 4.54-16.23-.1-.9-.85-1.15-2.05-1 1.4-2.15 4.04-3.05 6.59-4.04-.3 2.5 2.65 1.75 3.55 3.05.45-.15.45-1.35 0-1.5.5-1.45 2.15.15 3.05 0 .3 1.15-.95.7-1 1.5.05 1.4 3.3-.6 1.55-1 1.15-1.8 1.4 1.6 2.55 1.5-.05-.95-.35-1.7-1-2.05 2.8-4.04 9.59-3.25 13.68-.5-.15 1.7-1 2.65.5 4.04-3.35 1.5-6.04-4.54-10.19-5.44-1.2.45-1.35 2.05-3.55 1.5 2.3.75 4.94 1.1 6.59 2.55-.95 1-.95.4-.5 2.05-1.5.15-1.55-1.15-3.05-1 .65-.65.65-1.9-.5-2.05-1.9 2.9-3.55 1.55-6.09 4.54 1.5 1.55 4.09 2 5.09 4.04.9-2.15 1.1-2.6 1-5.59 4.89 1.1 8.44 2.85 11.19 7.09h-2.55v-2c-1.2.8-3.25.8-4.54 1.5 1.45-.6 1.65 1.7 4.04 1.5-2.2 1.1-7.49 3.1-7.09 7.59-1.3.9-2.4 2-3.55 3.05.1 1.6 1.15 2.25 1 4.04-2.15.45-1.1-2.3-2.05-3.05-5.44-2.05-13.33 2.8-7.59 8.14 3.25.85 1.85-2.9 5.09-2.05-.75.95-.55 2.85-1.5 3.55.85 1 3.55.15 4.04 1.5-1.05 1.1-.4 3.4.5 4.04.95.03 1.69.05 2.31.03.07-.02.15-.03.23-.03 0 .01.01.02.01.02 1.88-.1 2.54-.65 4.53-2.57 4.59.45 9.74 2.35 14.18 3.55-.35 1.55.9 1.5.5 3.05 3.2.35 4.34-.3 7.09.5-3.45 10.88-10.74 17.92-22.28 20.82zM157.39 105.46c-.15-1.8-.55-3.89-.35-5.19.2-1.2 1.5-2.8 1.75-4.69.3-2.35 0-5.24 0-8.14 0-7.14.2-13.48 0-20.72-.05-2.2-.2-3.05-1.55-2.75-.1 0-.5-.05-.5.05-3.2 3.79-3.99 8.79-4.34 16.43-.2 3.99-.35 7.94-.35 11.93 0 1.45-.3 3.05-.15 3.99.25 1.6 1.7 2.25 1.9 3.79.25 1.95-.25 4.49-.35 6.89-.29 5.63-.83 11.62-1 17.23h6.17c-.27-6.44-.79-12.29-1.23-18.82zM69.66 122.54c-.4-9.79-1.55-19.52-1.55-29.21.6-1.75 2.75-2.5 3.3-4.49.8-2.7-.05-7.24-.5-11.04-.3-2.8-.45-5.54-.85-7.94-.1-.75-.15-1.85-.85-2.1.05 4.09.4 8.19.5 12.43.05 1.4.4 3.45-.5 3.99-.85-4.39-.7-10.19-1.2-14.53-.05-.6.05-1.5-.5-1.9-.2 3.65 0 7.44 0 12.08 0 1.4.3 3.05-.35 4.34-.75-1.75-.4-3.99-.5-6.24-.1-2.7-.25-5.49-.35-8.14 0-.75.1-1.7-.5-2.1-.25 3.89-.3 8.84-.35 12.98 0 1.25.3 2.75-.5 3.45-.85-.95-.45-2.55-.5-3.79-.2-4.54-.25-9.44-.35-12.43-.05-.1-.15-.2-.35-.15-.65 3.6-.85 9.64-1.15 14.83-.1 1.95-.55 4.84 0 6.39.7 2 3.2 2.5 3.65 4.84.1.65.05 1.75 0 2.6-.2 5.79-1.25 12.43-1.75 18.48-.25 3.01-.33 5.81-.34 9.39h5.56c-.02-.65-.05-1.24-.07-1.74z"/><path class="cst0" d="M105.61 77.9c-.05-.85.4-1.3 1-1.5.05.95.35 1.7 1 2.05.05-1.3 2-.75 2.05-2.05-1.35-.4-1 .95-2 .95.2-1.85-3.15-3.35-3.55-1.5 2.9-.65-.15 1.45 1.5 2.05zM108.52 101.1c.08 0 .17-.01.25-.01 0-.01-.01-.02-.01-.02-.09 0-.17.01-.24.03z"/><path class="cst0" d="M43.94 104.31c0-37.85 30.81-68.66 68.66-68.66s68.66 30.81 68.66 68.66c0 6.94-1.04 13.65-2.97 19.97h36.49c1.26-6.47 1.93-13.14 1.93-19.97C216.71 46.89 169.97.2 112.6.2S8.49 46.89 8.49 104.31c0 6.83.67 13.51 1.93 19.97h36.49a68.245 68.245 0 0 1-2.97-19.97zm160.89-19.92l-3.1.9-1.25-4.19-10.79 3.2-1-3.35 10.79-3.2-1.25-4.19 3.1-.9 3.5 11.73zm-9.49-24.57l-2.3 4.64c-.7 1.4-2.45 4.79-2.45 4.79s2.3-1.2 4.64-2.4l2.95-1.5 1.55 3.1-12.93 6.59-1.5-2.9 2.25-4.49c1-2 2.6-4.99 2.6-4.99s-2 1.05-4.79 2.5l-2.85 1.45-1.6-3.1 12.93-6.59 1.5 2.9zm-9.09-13.48l2 2.6-7.89 13.48-2.3-2.95 1.25-2.1-3.5-4.54-2.3.75-2.3-2.95 15.04-4.29zm-10.73-11.18c2.7 2.45 3.05 5.39 1.05 7.59-1.3 1.45-2.95 1.9-4.74 1.4l-1.15 6.14-2.95-2.65 1.15-5.29-1.35-1.2-3.15 3.5-2.6-2.3 9.69-10.79 4.05 3.6zm-23.37-6.69l4.19-6.89 2.95 1.8-4.14 6.79c-1.3 2.15-1 3.55.65 4.54 1.65 1 3.05.6 4.34-1.5l4.14-6.79 3 1.85-4.19 6.89c-2.3 3.7-5.69 4.39-8.99 2.4-3.3-2-4.2-5.4-1.95-9.09zm-3.6-10.29l.1 15.63-3.5-1.35.1-2.45-5.34-2.1-1.6 1.8-3.5-1.35 10.69-11.38 3.05 1.2zm-21.52-6.14l11.98 2.6-.7 3.2-4.34-.95-2.4 10.99-3.4-.75 2.4-10.99-4.24-.95.7-3.15zm-10.98 7.24c-1.7-.75-3.65-1.85-3.5-4.39.15-2.25 2.55-4.19 5.64-3.99 2.8.15 4.84 2 5.44 4.29l-3.45.8c-.3-1.3-1.35-1.95-2.4-2.05-1.05-.05-1.65.4-1.7 1-.05.95 1.35 1.4 3.1 2.15 2.1.9 4.29 2.25 4.14 4.74-.15 2.65-2.55 4.39-5.89 4.19-3-.15-5.09-2-5.84-4.74l3.4-.7c.3 1.1 1.3 2.25 2.8 2.35 1.25.05 1.85-.45 1.9-1.2.05-1.15-1.6-1.55-3.64-2.45zm-7.64-8.24l.35 3.25-7.04.7.25 2.4 5.49-.55.3 3-5.49.55.25 2.6 7.14-.75.35 3.25-10.64 1.05-1.45-14.43 10.49-1.07zm-21.43 3.64c3.5-1 6.14.35 6.99 3.2.55 1.9 0 3.55-1.4 4.74l4.54 4.29-3.75 1-3.89-3.79-1.7.5 1.3 4.54-3.35.95-3.94-13.98 5.2-1.45zM61.87 25.92l4.74 2c1.45.6 4.94 2.15 4.94 2.15s-1.35-2.2-2.65-4.44l-1.7-2.85 2.95-1.85 7.39 12.48-2.8 1.65-4.59-1.95c-2.05-.9-5.14-2.3-5.14-2.25 0 0 1.15 1.9 2.8 4.64l1.65 2.75-3 1.8-7.39-12.48 2.8-1.65zm-7.59 5.19l2.15 2.45-5.34 4.64 1.6 1.8 4.14-3.65 2 2.3-4.14 3.65 1.7 1.95 5.39-4.74 2.15 2.4L55.94 49l-9.59-10.94 7.93-6.95zM42.39 42.2l2.5 2.05-4.39 5.49 1.85 1.5 3.45-4.29 2.4 1.9-3.5 4.29 2 1.65 4.54-5.59 2.5 2-6.69 8.34-11.29-9.14 6.63-8.2zM37.9 77.15c-1.05-.3-1.25-.4-1.25-.4.6 1.1.65 2.85.2 4.19-1.3 3.94-5.34 6.19-9.49 4.84-4.14-1.35-6.14-5.49-4.84-9.49.85-2.7 3.05-4.59 5.69-5.09l-.2 3.65c-1 .4-1.85 1.4-2.2 2.5-.75 2.3.45 4.24 2.7 4.94 2.45.8 4.49-.35 5.19-2.65.7-2.2-.1-3.55-1-4.24l-1.15 3.65-2.65-.85 2.1-6.44 7.79 2.55-.89 2.84zm3.74-8.44l-1.7 3.05-12.68-6.99 2.6-4.74c1.75-3.2 4.54-4.14 7.19-2.7 1.7.95 2.55 2.45 2.4 4.29l6.24-.25-1.9 3.4-5.44.1-.85 1.55 4.14 2.29z"/><path class="cst0" d="M173.87 40.3c.5-.6.8-1.6-.15-2.45l-1.8-1.6-2.3 2.55 1.8 1.6c.95.85 1.9.45 2.45-.1zM145.41 23.77c0-.9.15-2.25.1-2.25 0 0-.85 1.05-1.45 1.75l-2 2.25 3.3 1.25.05-3zM182.61 52.08c.45-.75 1.25-1.85 1.25-1.85s-1.25.5-2.1.75l-2.85.9 2.1 2.75 1.6-2.55zM89.23 20.93c1.2-.35 1.4-1.35 1.2-2.15-.2-.75-.95-1.5-2.15-1.2l-2.3.65.95 3.35 2.3-.65zM35.3 60.47c-.7-.4-1.75-.4-2.35.7l-1.15 2.1 3 1.65 1.15-2.1c.6-1.1 0-2-.65-2.35zM60.47 174.12l-1.45-1.1-3.1 4.09 1.45 1.1c1.05.8 2.55.75 3.5-.5.95-1.29.65-2.79-.4-3.59zM103.01 191.1l-1.55-.2-.25 2.25 1.55.2c.8.1 1.2-.45 1.25-1 .05-.5-.2-1.15-1-1.25zM157.29 185.21c1.35-.75 1.65-2.2.9-3.55-.75-1.35-2.15-1.8-3.5-1.05-1.3.75-1.65 2.15-.9 3.55.8 1.35 2.2 1.8 3.5 1.05z"/><path class="cst0" d="M112.6 172.97c-11.36 0-22.09-2.78-31.54-7.69H28.25c18.93 26.12 49.68 43.14 84.35 43.14s65.42-17.02 84.35-43.14h-52.81a68.227 68.227 0 0 1-31.54 7.69zm-56.47 6.89l-3.25-2.5 5.64-7.44 3.25 2.5c2.15 1.6 2.7 4.44 1 6.69-1.7 2.25-4.55 2.4-6.64.75zm6.04 4.28l4.95-7.91 1.9 1.19-4.95 7.91-1.9-1.19zm10.28 5.76l-.55-3.2c-.25-1.45-.55-3.6-.55-3.6l-1.55 3.1-.95 1.85-2-1 4.19-8.34 1.9.95.6 3.3c.15 1 .55 3.45.55 3.45l1.5-3 .95-1.9 2 1-4.19 8.34-1.9-.95zm13.94-2.25l-4.29-1.55-.5 1.45 3.35 1.2-.7 1.85-3.35-1.2-.55 1.55 4.34 1.6-.7 1.95-6.44-2.35 3.15-8.74 6.39 2.3-.7 1.94zm5.14 6.84c1.45.35 2.25-.25 2.7-.85l-2.4-.55.4-1.75 4.24 1-1.25 5.14-1.85-.45c.15-.65.2-.8.2-.8-.65.45-1.8.55-2.7.35-2.6-.6-4.24-3.1-3.6-5.84s3.25-4.24 5.84-3.6c1.75.4 3.1 1.75 3.55 3.4l-2.35.05c-.3-.6-1-1.15-1.7-1.3-1.5-.35-2.7.5-3.05 2-.38 1.61.47 2.86 1.97 3.2zm14.73-1.84c-.15 1.25-.85 2.1-2 2.5l1.65 3.65-2.4-.3-1.4-3.2-1.15-.15-.35 3.05-2.25-.25 1.05-9.29 3.45.4c2.35.24 3.6 1.69 3.4 3.59zm9.34-.9l-4.54-.1-.06 1.55 3.6.05-.05 1.95-3.55-.05-.05 1.65 4.64.1-.05 2.1-6.89-.15.2-9.34 6.74.15v2.09zm3.24 7.04l-.95-9.34 6.74-.65.2 2.05-4.49.5.15 1.5 3.55-.35.2 1.95-3.55.35.15 1.65 4.59-.45.25 2.1-6.84.69zm16.28-2.6l-2.45-2.1c-1.1-.95-2.7-2.4-2.7-2.4s.35 1.4.75 3.4l.45 2-2.2.5-2.05-9.09 2.05-.45 2.55 2.15c.75.65 2.6 2.3 2.6 2.3s-.35-1.6-.75-3.25l-.45-2.1 2.2-.5 2.05 9.09-2.05.45zm5.99-1.5c-.6.15-1.2-.15-1.35-.7-.15-.55.15-1.15.7-1.3.55-.15 1.15.15 1.3.7.2.56-.1 1.15-.65 1.3zm19.93-20.42l3.1 1.2c1.2.5 1.45.6 1.45.6s-.05-.25-.15-1.55l-.3-3.3 1.6-1.25 5.59 7.49-1.75 1.3-1.35-1.85c-1.35-1.75-1.95-2.7-1.95-2.7s.15 1.5.2 1.65l.25 2.15-.95.7-2-.85c-.15-.05-1.5-.65-1.5-.6 0 0 .7.85 2.05 2.6l1.35 1.85-1.75 1.3-5.59-7.49 1.7-1.25zm-7.44 4.4c2.35-1.3 5.24-.6 6.59 1.85 1.4 2.45.5 5.29-1.85 6.64-2.35 1.3-5.24.6-6.59-1.85-1.35-2.45-.5-5.3 1.85-6.64zm-4.35 5.24l-1.8 1.35c-.6-.35-1.45-.35-2.15-.05-1.45.6-1.9 1.95-1.35 3.4.6 1.5 1.95 2.05 3.3 1.5.85-.35 1.45-1.1 1.55-1.8l2.35-.3c-.1 1.85-1.25 3.45-3.05 4.19-2.5 1-5.24-.05-6.34-2.65-1.05-2.6.15-5.29 2.65-6.34 1.7-.7 3.54-.35 4.84.7z"/><g><path class="cst0" d="M75 136.92h-2.8v7.09H75v.05c2.9 0 4.49-.95 4.49-3.4 0-2.69-1.89-3.74-4.49-3.74z"/><path class="cst0" d="M226 124.29H0l7.64 20.52L0 165.28H226l-7.64-20.47 7.64-20.52zM38.3 150.45c-.35.7-2.75 5.99-10.54 5.99-2.31 0-4.46-.61-6.25-1.75-3.06-1.95-5.08-5.44-5.08-10.13 0-.12.01-.23.01-.35.16-7.41 5.42-11.28 11.03-11.28 3.6 0 5.49 1.55 6.39 2.85l-.05-2.2c-.05-.3.15-.45.45-.45h3.2c.3 0 .45.15.45.45v7.64c0 .3-.2.45-.45.45h-3.7c-.3 0-.45-.15-.45-.45v-.3c0-1.4-2.15-3.75-5.59-3.75-3.5 0-6.49 2.55-6.49 7.44 0 4.74 3.35 7.39 6.74 7.39 4.94 0 6.59-2.9 7.09-3.75.15-.3.4-.3.65-.15l2.45 1.65c.24.2.24.4.14.7zm22.62 5.25c0 .3-.2.45-.45.45H42.59v.05c-.3 0-.45-.15-.45-.45v-2.95c0-.3.15-.45.45-.45h2.2v-15.43h-2.2c-.3 0-.45-.15-.45-.45v-2.95c0-.3.15-.45.45-.45H60.46c.25 0 .45.15.45.45v6.49c0 .3-.15.45-.45.45h-3.05c-.3 0-.45-.15-.45-.45v-3.1H49.34v5.84h6.34c.03 0 .05.01.08.01.24.03.37.17.37.44v2.94c0 .3-.2.45-.45.45h-6.34v5.74h7.64v-3.1c0-.3.15-.45.45-.45h3.04c.3 0 .45.15.45.45v6.47zm25.07.1c0 .3-.15.45-.45.45H81.6v-.05c-1.1 0-1.75-.75-2.3-1.95l-2.55-5.19c-.35-.7-.85-1.4-1.95-1.45h-2.6v4.74h2.75c.3 0 .45.15.45.45v2.95c0 .3-.2.45-.45.45h-9.44c-.3 0-.45-.15-.45-.45v-2.95c0-.3.15-.45.45-.45h2.2v-15.43h-2.2c-.3 0-.45-.15-.45-.45v-2.94c0-.3.15-.45.45-.45H76.1c4.64 0 7.94 2.9 7.94 7.44 0 3.05-1.45 5.14-3.99 6.19.4.4.85.95 1.25 1.75l2.15 3.94h2.1c.3 0 .45.15.45.45v2.95zm23.07-15.18c0 .3-.2.5-.5.5h-3.2c-.3 0-.5-.2-.5-.5v-3.65h-3.89v15.43h2.1c.3 0 .5.2.5.5v2.8c0 .3-.2.5-.5.5h-8.79c-.3 0-.5-.25-.5-.5v-2.8c0-.3.25-.5.5-.5h2.15v-15.43h-4.04v3.65c0 .3-.2.5-.5.5h-3.2c-.3 0-.5-.2-.5-.5v-6.99c0-.3.2-.5.5-.5h19.87c.3 0 .5.2.5.5v6.99zm13.93-4.15c0 .3-.2.45-.45.45h-2.25v15.43h2.25c.3 0 .45.15.45.45v2.95c0 .3-.2.45-.45.45h-8.94c-.3 0-.45-.15-.45-.45v-2.95c0-.3.15-.45.45-.45h2.2v-15.43h-2.2c-.3 0-.45-.15-.45-.45v-2.95c0-.3.15-.45.45-.45h8.94c.3 0 .45.15.45.45v2.95zm19.12 4c-.3 0-.45-.15-.45-.45v-3.1h-7.44v5.84h6.09c.3 0 .45.15.45.45v2.95c0 .3-.15.45-.45.45h-6.09v5.74h3.89c.3 0 .45.15.45.45v2.95c0 .3-.2.45-.45.45h-10.59c-.3 0-.45-.15-.45-.45v-2.95c0-.3.15-.45.45-.45h2.2v-15.43h-2.2c-.3 0-.45-.15-.45-.45v-2.95c0-.3.15-.45.45-.45h17.63c.3 0 .45.15.45.45v6.49c0 .3-.15.45-.45.45h-3.04zm17.38 15.28c0 .3-.2.45-.45.45h-8.94c-.3 0-.45-.15-.45-.45v-2.95c0-.3.15-.45.45-.45h2.2v-15.43h-2.2c-.3 0-.45-.15-.45-.45v-2.95c0-.3.15-.45.45-.45h8.94c.3 0 .45.15.45.45v2.95c0 .3-.2.45-.45.45h-2.25v15.43h2.25c.3 0 .45.15.45.45v2.95zm22.87-15.73c0 .3-.15.45-.45.45h-3.05c-.3 0-.45-.15-.45-.45v-3.1H170.77v5.84h6.29c.3 0 .45.15.45.45v2.95c0 .3-.2.45-.45.45h-6.34v5.74h7.64v-3.1c0-.3.15-.45.45-.45h3.05c.3 0 .45.15.45.45v6.44c0 .3-.2.45-.45.45h-17.83v.05c-.3 0-.45-.15-.45-.45v-2.95c0-.3.15-.45.45-.45h2.2v-15.43h-2.2c-.3 0-.45-.15-.45-.45v-2.95c0-.3.15-.45.45-.45H181.91c.25 0 .45.15.45.45v6.51zm22.23 13.01c-1.92 2.04-4.6 3.17-7.56 3.17h-10.19c-.25 0-.45-.15-.45-.45v-2.95c0-.3.15-.45.45-.45h2.25v-15.43h-2.25c-.25 0-.45-.15-.45-.45v-2.95c0-.3.15-.45.45-.45h8.89c6.54 0 11.83 4.19 11.83 11.73 0 .96-.09 1.87-.26 2.72-.42 2.24-1.38 4.1-2.71 5.51z"/><path class="cst0" d="M195.09 136.97h-1.55v15.43h1.85c4.74-.05 7.44-2.15 7.44-7.44 0-5.29-2.75-7.99-7.74-7.99z"/></g><path class="cst0" d="M56.13 143.21c0-.27-.13-.41-.37-.44.12.18.25.35.37.53v-.09zM60.47 148.81h-.11c.19.22.37.44.56.65v-.2c0-.3-.15-.45-.45-.45zM159.04 136.92c.25 0 .45-.15.45-.45v-2.95c0-.3-.15-.45-.45-.45h-.26c-.02 1.44-.09 2.78-.35 3.84h.61zM159.04 156.2c.25 0 .45-.15.45-.45v-1.33c-.65.61-1.3 1.2-1.97 1.78h1.52zM73.2 219.91c-8.29 0-14.98 6.74-14.98 14.98 0 8.29 6.69 14.98 14.98 14.98s14.98-6.69 14.98-14.98-6.69-14.98-14.98-14.98zm5.55 24.57l-5.54-5.89-5.54 5.89 2.35-7.74-7.89-1.85 7.89-1.85-2.35-7.74 5.54 5.89 5.54-5.89-2.35 7.74 7.89 1.85-7.89 1.85 2.35 7.74zM111.45 219.91c-8.29 0-14.98 6.74-14.98 14.98 0 8.29 6.69 14.98 14.98 14.98s14.98-6.69 14.98-14.98-6.69-14.98-14.98-14.98zm5.49 24.57l-5.54-5.89-5.54 5.89 2.35-7.74-7.84-1.85 7.84-1.85-2.35-7.74 5.54 5.89 5.54-5.89-2.35 7.74 7.89 1.85-7.89 1.85 2.35 7.74zM149.65 219.91c-8.29 0-14.98 6.74-14.98 14.98 0 8.29 6.69 14.98 14.98 14.98s14.98-6.69 14.98-14.98-6.69-14.98-14.98-14.98zm5.54 24.57l-5.54-5.89-5.54 5.89 2.35-7.74-7.89-1.85 7.89-1.85-2.35-7.74 5.54 5.89 5.54-5.89-2.35 7.74 7.84 1.85-7.84 1.85 2.35 7.74z"/></svg><svg version="1.1" id="green-seal-certified-logo" y="75" viewBox="0 0 255 238" xml:space="preserve" width="255" height="238" xmlns="http://www.w3.org/2000/svg"><style>.dst0{fill:#fff}</style><path id="dXMLID_27_" class="dst0" d="M242.29 57.18c-3.15-4.1-8.52-6.47-13.88-7.42-14.51-1.43-28.7 1.56-42.1 4.87-1.38.41-2.75.85-4.12 1.29-45.15 14.36-86 40.86-117.96 74.64-6.92 7.32-13.44 14.97-19.48 22.92 0 0-25.26-20.56-43.42-25.55l-.25-.12c24.42 31.27 31.2 63.58 36.76 93.35l6.46-13.89c13.27-29.23 33.41-55.99 55.25-79.35 27.62-28.68 59.95-56.1 99.23-69.48 12.78-3.3 33.12-9.12 42.57 3.34 5.83 9.31.93 21.29-3.01 30.28l1.89.47c5.36-10.12 9.62-25.1 2.06-35.35"/><path class="dst0" d="M193.11 64.54c-.19.07-.38.15-.56.22-37.34 18.1-66.07 49.29-89.95 81.15-6.31 8.69-12.38 17.73-18.03 27.07 13.99 14.75 33.76 23.97 55.69 23.97 42.4 0 76.76-34.37 76.76-76.76 0-21.92-9.19-41.67-23.91-55.65zM180.38 54.75c-11.67-7.18-25.4-11.33-40.11-11.33-42.39 0-76.76 34.37-76.76 76.76 0 2.7.15 5.36.43 7.98 31.69-33.14 71.97-59.17 116.44-73.41zM243.55 113.49c2.98 0 5.36 2.42 5.36 5.45 0 3.07-2.38 5.47-5.38 5.47-2.98 0-5.4-2.4-5.4-5.47 0-3.03 2.43-5.45 5.4-5.45h.02m-.02.85c-2.4 0-4.36 2.06-4.36 4.61 0 2.59 1.96 4.62 4.38 4.62 2.42.02 4.36-2.04 4.36-4.6s-1.94-4.63-4.36-4.63h-.02zm-1.02 7.77h-.97v-6.08c.51-.07.99-.14 1.72-.14.92 0 1.52.19 1.89.46.36.26.56.68.56 1.26 0 .8-.54 1.28-1.19 1.47v.05c.53.09.9.58 1.02 1.47.15.95.29 1.31.39 1.5h-1.02c-.14-.19-.29-.75-.41-1.55-.15-.77-.53-1.07-1.31-1.07h-.68v2.63zm0-3.36h.71c.8 0 1.47-.29 1.47-1.04 0-.53-.39-1.07-1.47-1.07-.32 0-.53.02-.71.05v2.06z"/><path id="dXMLID_22_" class="dst0" d="M45.21 107.2c-.87 6.82-4.64 7.7-10.75 6.91l-5.44-.7c-5.9-.76-9.48-3-8.67-9.36.53-4.1 2.36-7.44 7.92-6.72.71.09 1.23.71 1.14 1.42l-.39 3.05c-.09.71-.74 1.18-1.46 1.09-.21-.03-2.23-.5-2.52 1.72-.2 1.59.75 2.44 2.68 2.68l9.71 1.24c1.84.23 2.94-.39 3.15-1.98.3-2.34-3.64-2.51-3.64-2.51l-.38-.04-.14 1.05c-.1.75-.75 1.22-1.46 1.13l-2.01-.26c-.71-.09-1.19-.7-1.09-1.46l.69-5.4c.09-.71.75-1.18 1.46-1.09l3.47.44c5.53.72 8.49 2.88 7.73 8.79"/><path class="dst0" d="M52.08 80.5l-1.07 2.94c-.25.67-.96.91-1.66.74 0 0-.79-.06-2.09-.54l-1.98-.72c-2.46-.9-3.88-.56-4.49 1.1l-.55 1.51 7.61 2.77c.67.25 1.04.96.79 1.64l-1.07 2.94c-.25.67-.99.99-1.66.74L25.53 86.2c-.67-.25-1.04-.97-.79-1.64l2.48-6.82c1.64-4.48 4.21-5.88 8.29-4.39l.91.33c2.65.97 4.25 2.49 4.04 5.16 1.77-2.14 4.37-2.13 7.03-1.17l1.83.67c1.07.39 1.96.53 1.96.53.71.16 1.05.96.8 1.63m-17.81-1.64c-1.66-.61-2.69-.26-3.27 1.32l-.62 1.71 5.87 2.14.58-1.59c.62-1.7.26-2.56-1.52-3.21l-1.04-.37z"/><path id="dXMLID_19_" class="dst0" d="M62.4 62.98l-5.88 9.06c-.39.6-1.19.74-1.79.35l-18.19-11.8c-.6-.39-.8-1.17-.41-1.78l5.69-8.78c.39-.6 1.17-.8 1.77-.41l1.88 1.22c.6.39.77 1.21.39 1.81l-3.31 5.1 3.82 2.48 2.73-4.21c.39-.6 1.17-.8 1.78-.41l1.91 1.24c.6.39.78 1.21.39 1.81l-2.73 4.21 4.32 2.8 3.49-5.38c.39-.6 1.17-.8 1.78-.41l1.98 1.29c.6.39.77 1.21.38 1.81"/><path id="dXMLID_18_" class="dst0" d="M76.04 48.07l-7.65 7.62c-.51.51-1.31.48-1.82-.03L51.27 40.3c-.51-.51-.53-1.31-.03-1.82l7.42-7.38c.51-.51 1.31-.53 1.82-.03l1.58 1.59c.51.51.51 1.34 0 1.85l-4.31 4.29 3.22 3.23 3.56-3.54c.51-.51 1.31-.53 1.82-.03l1.61 1.62c.51.51.51 1.34 0 1.85l-3.56 3.54 3.63 3.65 4.54-4.53c.51-.51 1.31-.53 1.82-.03l1.67 1.68c.49.49.49 1.33-.02 1.83"/><path id="dXMLID_17_" class="dst0" d="M95.25 34.79L91.65 37c-.61.38-1.23.02-1.8-.43l-11.33-9.82.06.11 7.45 12.11c.38.61.16 1.39-.45 1.76l-2.16 1.33c-.61.37-1.39.16-1.76-.45L70.3 23.14c-.38-.61-.22-1.4.39-1.78l3.77-2.32c.65-.4 1.26-.04 1.8.43l10.71 9.11-7-11.39c-.38-.61-.22-1.4.39-1.78l2.19-1.35c.61-.38 1.39-.16 1.76.45l11.38 18.5c.38.62.17 1.4-.44 1.78"/><path id="dXMLID_16_" class="dst0" d="M122.01 26.34c-4.77.86-7.82-.61-8.77-5.62-.13-.71.31-1.39 1.01-1.51l2.78-.5c.7-.13 1.35.36 1.47 1.07.26 1.45.93 2.53 2.88 2.18 1.33-.24 1.99-1.13 1.74-2.46l-.14-.79c-.31-1.74-2.21-2.26-5.33-2.94-3.75-.83-5.44-2.37-6.14-6.23-.84-4.65 1.35-7.06 5.75-7.85 4.61-.83 7.89.25 8.72 4.9.14.75-.32 1.34-1.02 1.47l-2.7.48c-.7.13-1.33-.27-1.47-1.02-.2-1.08-.97-1.8-2.5-1.52-1.21.21-1.77.87-1.55 2.12l.12.67c.21 1.16 1.84 1.9 4.63 2.42 4.17.79 6.23 2.44 7 6.76.97 5.23-1.67 7.5-6.48 8.37"/><path id="dXMLID_15_" class="dst0" d="M147 24.54l-10.8-.25c-.72-.02-1.25-.62-1.23-1.34l.5-21.68c.01-.72.58-1.29 1.29-1.28l10.46.24c.72.02 1.3.58 1.28 1.3l-.05 2.23c-.01.72-.62 1.29-1.34 1.28l-6.07-.14-.11 4.56 5.02.12c.72.02 1.29.58 1.28 1.29l-.06 2.28c-.01.72-.62 1.29-1.33 1.28l-5.02-.12-.12 5.14 6.41.15c.72.01 1.3.58 1.28 1.29l-.06 2.36c-.01.73-.61 1.31-1.33 1.29"/><path class="dst0" d="M169.59 29.11l-2.98-.77c-.7-.18-1-.87-.94-1.59l.31-3.06-4.33-1.11-1.24 2.82c-.3.66-.86 1.13-1.55.95l-2.94-.76c-.7-.18-1.24-.93-.94-1.59l9.59-19.92c.3-.66.86-1.13 1.55-.95l5.35 1.37c.69.18 1 .86.94 1.59l-1.26 22.06c-.07.73-.87 1.14-1.56.96m-2.08-20.26l-4.14 9.52 3.15.81.99-10.33z"/><path id="dXMLID_12_" class="dst0" d="M187.62 37.51l-9.26-4.78c-.64-.33-.86-1.1-.53-1.74l9.95-19.27c.33-.64 1.09-.91 1.73-.58l2.77 1.43c.64.33.85 1.11.52 1.74l-8.29 16.04 5.36 2.77c.64.33.91 1.09.58 1.73l-1.1 2.14c-.32.64-1.1.85-1.73.52"/><path id="dXMLID_11_" class="dst0" d="M90.39 227.86c-6.27-2.83-5.81-7.02-3.28-12.63l2.05-4.54c2.48-5.5 5.48-8.45 11.55-5.71 5.19 2.34 5.98 5.2 3.68 10.32-.29.65-1.04.97-1.69.67l-2.73-1.23c-.65-.29-.91-1.06-.62-1.71.09-.19 1.46-2.72-.58-3.64-1.42-.64-2.49.08-3.3 1.89l-3.89 8.61c-.73 1.62-.55 2.95.8 3.56 2.15.97 3.5-2.73 3.5-2.73.3-.65 1.04-.97 1.69-.67l2.84 1.28c.65.29.91 1.06.62 1.71-2.3 5.11-5.22 7.27-10.64 4.82"/><path id="dXMLID_10_" class="dst0" d="M122.36 236.8l-10.61-2.02c-.71-.13-1.13-.81-1-1.52l4.05-21.3c.13-.71.79-1.18 1.49-1.05l10.28 1.95c.7.13 1.18.79 1.05 1.49l-.42 2.2c-.13.7-.83 1.17-1.53 1.04l-5.97-1.14-.85 4.48 4.93.94c.71.13 1.18.78 1.05 1.49l-.43 2.24c-.13.7-.83 1.17-1.53 1.04l-4.93-.94-.96 5.06 6.3 1.2c.7.13 1.18.78 1.05 1.49l-.44 2.32c-.14.69-.83 1.16-1.53 1.03"/><path class="dst0" d="M151.43 237.39l-3.12.15c-.72.03-1.21-.53-1.33-1.25 0 0-.25-.75-.31-2.14l-.1-2.11c-.12-2.61-.98-3.8-2.75-3.71l-1.6.07.38 8.09c.04.72-.48 1.33-1.2 1.36l-3.12.14c-.72.04-1.29-.53-1.33-1.24l-1-21.66c-.04-.72.48-1.33 1.2-1.36l7.25-.34c4.76-.22 7.04 1.61 7.24 5.95l.05.97c.13 2.82-.66 4.89-3.2 5.72 2.65.8 3.66 3.21 3.78 6.03l.09 1.94c.05 1.14.26 2.02.26 2.02.13.71-.48 1.33-1.19 1.37m-5.36-17.07c-.08-1.77-.8-2.58-2.48-2.5l-1.81.08.29 6.24 1.69-.08c1.81-.08 2.46-.75 2.37-2.65l-.06-1.09z"/><path id="dXMLID_7_" class="dst0" d="M172.68 212.7l-3.28.95 5.06 17.47c.2.69-.16 1.41-.85 1.61l-3 .86c-.69.2-1.38-.22-1.58-.9l-5.06-17.47-3.28.95c-.69.2-1.41-.16-1.61-.85l-.63-2.19c-.2-.69.22-1.38.91-1.58l12.01-3.43c.69-.2 1.4.12 1.61.85l.62 2.15c.18.69-.23 1.38-.92 1.58"/><path id="dXMLID_6_" class="dst0" d="M195.14 223.75l-2.77 1.45c-.63.33-1.4.06-1.73-.58l-10.03-19.23c-.33-.64-.12-1.41.51-1.74l2.81-1.46c.64-.33 1.4-.06 1.73.57l10.05 19.26c.34.64.07 1.4-.57 1.73"/><path id="dXMLID_5_" class="dst0" d="M205.31 193.11l-4.61 3.69 3.11 3.88 3.65-2.93c.56-.45 1.36-.39 1.81.17l1.4 1.75c.48.59.36 1.39-.2 1.84l-3.65 2.93 5.25 6.55c.45.56.39 1.36-.17 1.81l-2.44 1.95c-.56.45-1.36.33-1.8-.23l-13.57-16.92c-.45-.56-.39-1.36.17-1.81l8.03-6.44c.56-.45 1.36-.39 1.81.17l1.4 1.74c.45.57.37 1.4-.19 1.85"/><path id="dXMLID_4_" class="dst0" d="M230.59 194.58l-2.01 2.39c-.46.55-1.27.58-1.82.12l-16.57-13.99c-.55-.46-.65-1.26-.18-1.81l2.04-2.42c.46-.55 1.27-.59 1.82-.12l16.6 14.01c.54.47.59 1.27.12 1.82"/><path id="dXMLID_3_" class="dst0" d="M245.66 171.39l-5.2 9.47c-.34.63-1.13.82-1.76.48l-19-10.44c-.63-.34-.88-1.11-.54-1.74l5.04-9.17c.34-.63 1.11-.88 1.74-.54l1.96 1.08c.63.34.86 1.15.52 1.78l-2.93 5.32 3.99 2.2 2.42-4.4c.34-.63 1.11-.88 1.74-.54l2 1.1c.63.35.86 1.15.52 1.78l-2.42 4.4 4.51 2.48 3.09-5.62c.34-.63 1.11-.88 1.74-.54l2.07 1.14c.62.33.85 1.13.51 1.76"/><path class="dst0" d="M253.35 150.58l-1.63 6.02c-.19.69-.9 1.07-1.59.88l-20.93-5.67c-.69-.19-1.12-.87-.93-1.56l1.7-6.27c1.55-5.74 5.09-6.84 12.29-4.88l2.73.74c7.45 2.02 10 4.68 8.36 10.74m-14.46-6.46c-2.73-.74-4.15-.34-4.71 1.74l-.34 1.26 14.54 3.94.35-1.3c.6-2.2-.47-3.1-3.36-3.88l-6.48-1.76z"/></svg><svg version="1.1" id="instagram" x="434.11" y="250" viewBox="0 0 50 50" xml:space="preserve" width="50" height="50" xmlns="http://www.w3.org/2000/svg"><style>.est0{fill:#fff}</style><path class="est0" d="M35.1 0H14.9C6.68 0 0 6.68 0 14.9v20.2C0 43.32 6.68 50 14.9 50h20.2C43.32 50 50 43.32 50 35.1V14.9C50 6.68 43.32 0 35.1 0zm9.87 35.1c0 5.45-4.42 9.87-9.87 9.87H14.9c-5.45 0-9.87-4.42-9.87-9.87V14.9c0-5.45 4.42-9.87 9.87-9.87h20.2c5.45 0 9.87 4.42 9.87 9.87v20.2z"/><path class="est0" d="M25 12.07c-7.13 0-12.93 5.8-12.93 12.93S17.87 37.93 25 37.93 37.93 32.13 37.93 25 32.13 12.07 25 12.07zm0 20.83c-4.36 0-7.9-3.54-7.9-7.9s3.54-7.9 7.9-7.9 7.9 3.54 7.9 7.9-3.54 7.9-7.9 7.9z"/><circle class="est0" cx="37.96" cy="12.17" r="3.1"/></svg><svg version="1.1" id="linkedin" x="484.11" y="250" viewBox="0 0 50 50" xml:space="preserve" width="50" height="50" xmlns="http://www.w3.org/2000/svg"><style>.fst0{fill:#fff}</style><path class="fst0" d="M45.48 0H4.52C2.02 0 0 2.02 0 4.52v40.95C0 47.97 2.02 50 4.52 50h40.95c2.5 0 4.52-2.03 4.52-4.52V4.52C50 2.02 47.97 0 45.48 0zM15.47 43.17c0 .73-.59 1.32-1.32 1.32h-5.6c-.73 0-1.32-.59-1.32-1.32V19.69c0-.73.59-1.32 1.32-1.32h5.6c.73 0 1.32.59 1.32 1.32v23.48zm-4.12-27.01c-2.94 0-5.32-2.38-5.32-5.32s2.38-5.32 5.32-5.32 5.32 2.38 5.32 5.32-2.38 5.32-5.32 5.32zm33.4 27.12c0 .67-.54 1.21-1.21 1.21h-6.01c-.67 0-1.21-.54-1.21-1.21V32.26c0-1.64.48-7.2-4.29-7.2-3.71 0-4.46 3.8-4.61 5.51v12.71c0 .67-.54 1.21-1.21 1.21H20.4c-.67 0-1.21-.54-1.21-1.21v-23.7c0-.67.54-1.21 1.21-1.21h5.81c.67 0 1.21.54 1.21 1.21v2.05c1.37-2.06 3.42-3.65 7.76-3.65 9.63 0 9.57 8.99 9.57 13.94v11.36z"/></svg><svg version="1.1" id="pinterest" x="255" y="75" viewBox="0 0 50 50" xml:space="preserve" width="50" height="50" xmlns="http://www.w3.org/2000/svg"><style>.gst0{fill:#fff}</style><path class="gst0" d="M49.99 25.73C50.4 11.47 38.85-.2 24.63 0 10.94.2-.1 11.51 0 25.2.08 35 5.8 43.47 14.08 47.49a.704.704 0 0 0 1.01-.66c-.06-1.61-.01-3.33.31-4.71.32-1.36 1.56-6.62 2.38-10.08.4-1.68.45-3.43.13-5.13-.11-.56-.18-1.21-.18-1.94 0-3.69 2.14-6.45 4.81-6.45 2.27 0 3.36 1.7 3.36 3.74 0 2.28-1.45 5.69-2.2 8.85-.63 2.65 1.33 4.8 3.94 4.8 4.72 0 8.35-4.98 8.35-12.17 0-6.36-4.57-10.81-11.1-10.81-7.56 0-12 5.67-12 11.53 0 2.28.88 4.73 1.98 6.06.22.26.25.49.18.76-.2.84-.65 2.64-.74 3.01-.12.49-.39.59-.89.36-3.32-1.54-5.39-6.4-5.39-10.29 0-8.38 6.09-16.08 17.56-16.08 9.22 0 16.38 6.57 16.38 15.35 0 9.16-5.77 16.53-13.79 16.53-2.12 0-4.14-.87-5.32-2.04a.662.662 0 0 0-1.11.3c-.42 1.59-1.09 4.17-1.31 5-.39 1.51-1.22 3.26-2.05 4.79-.22.41 0 .91.45 1.02 2.04.52 4.19.79 6.4.77 13.11-.12 24.37-11.15 24.75-24.27z"/></svg><svg version="1.1" id="twitter" x="324" y="250" viewBox="0 0 60.11 50" xml:space="preserve" width="60.11" height="50" xmlns="http://www.w3.org/2000/svg"><style>.hst0{fill:#fff}</style><path class="hst0" d="M59.15 5.82c-1.34.59-2.72 1.06-4.14 1.4a12.84 12.84 0 0 0 3.41-5.43c.19-.59-.46-1.11-.99-.79a24.255 24.255 0 0 1-6.34 2.62c-.13.03-.26.05-.4.05-.41 0-.8-.15-1.11-.42C47.22 1.15 44.17 0 41.01 0c-1.37 0-2.75.21-4.11.63-4.2 1.3-7.44 4.77-8.46 9.05-.38 1.6-.48 3.21-.31 4.77.02.18-.06.3-.12.36-.09.1-.22.16-.36.16h-.05C18.42 14.12 10.13 9.69 4.26 2.5a.675.675 0 0 0-1.11.09A12.887 12.887 0 0 0 1.4 9.1c0 3.51 1.41 6.82 3.86 9.24-1.03-.24-2.03-.63-2.96-1.14a.68.68 0 0 0-1.01.58c-.06 5.22 3 9.86 7.58 11.95h-.28c-.73 0-1.46-.07-2.18-.21-.51-.1-.93.38-.77.87 1.49 4.64 5.48 8.06 10.26 8.83A23.892 23.892 0 0 1 2.5 43.3H1c-.46 0-.85.3-.97.75-.12.44.1.91.49 1.13A35.62 35.62 0 0 0 18.4 50c5.49 0 10.63-1.09 15.27-3.24 4.25-1.97 8.01-4.79 11.18-8.37 2.94-3.34 5.25-7.2 6.84-11.46 1.52-4.06 2.33-8.4 2.33-12.54v-.2c0-.66.3-1.29.83-1.72 1.99-1.62 3.72-3.52 5.15-5.66.37-.56-.23-1.27-.85-.99z"/></svg></svg>