<svg version="1.1" id="Layer_1" xmlns="http://www.w3.org/2000/svg" x="0" y="0" viewBox="0 0 57.3 50" xml:space="preserve"><style>.st2,.st3{fill:none;stroke:#413f4c;stroke-miterlimit:10}.st3{stroke-width:1.5}</style><circle cx="16.9" cy="11.9" r="11.7" fill="#9cbc65"/><path class="st2" d="M48.8 42.1v5.6m-2.9-2.8h5.7m-41.2-4.7v5.6M7.6 43h5.6"/><path class="st3" d="M8.3 25.9l5.6 5.5m1.9 5.8c-.9.9-2.5.9-3.6-.2-1-1-1.1-2.6-.2-3.6l3.3-3.3c.9-.9 2.5-.9 3.6.2 1 1 1.1 2.6.2 3.6l-3.3 3.3z"/><path class="st3" d="M19.6 40.9c-.9.9-2.5.9-3.6-.2-1-1-1.1-2.6-.2-3.6l3.3-3.3c.9-.9 2.5-.9 3.6.2 1 1 1.1 2.6.2 3.6l-3.3 3.3z"/><path class="st3" d="M23.4 44.7c-.9.9-2.5.9-3.6-.2-1-1-1.1-2.6-.2-3.6l3.3-3.3c.9-.9 2.5-.9 3.6.2 1 1 1.1 2.6.2 3.6l-3.3 3.3zm3.8 3.9c-.9.9-2.5.9-3.6-.2-1-1-1.1-2.6-.2-3.6l3.3-3.3c.9-.9 2.5-.9 3.6.2 1 1 1.1 2.6.2 3.6l-3.3 3.3zm14.1-11.2c1 1 2.6 1 3.6 0s1-2.6 0-3.6l-10.1-10c-1.3-1.3-3.3-1.3-4.6 0L25.9 28c-1.2 1.2-3.2 1.3-4.4.1-1.2-1.2-1.2-3.2.1-4.4l9.1-8.3s1.5-1.7 3-.6c.7.6 1.3 1.1 1.7 1.4.6.5 1.3.8 2 .8.6 0 .9-.3 1.5-1"/><path class="st3" d="M41.3 37.4c1 1 1 2.6 0 3.6s-2.6 1-3.6 0m-.1.1c1 1 1 2.6 0 3.6s-2.6 1-3.6 0m-15.1-29s1.1 1.2 2 1 2.8-3.8 4.8-2.3c2.1 1.5 3.2 2.6 3.2 2.6m14.7 15.1l5.4-5.4M33.8 44.8c1 1 1 2.6 0 3.6-.4.4-1 .5-1.6.5-1.1 0-2.2-.5-2.9-1.3l-.4-.4"/><path class="st2" d="M53 23.1c0 1-.8 1.8-1.8 1.8s-1.8-.8-1.8-1.8.8-1.8 1.8-1.8c1 .1 1.8.8 1.8 1.8z"/><path class="st3" d="M2.2 20.9l10.7-10.5c1.1-1.1 3-1.1 4.1 0l1.7 1.7c1.1 1.1 1.1 2.9 0 4L7.9 26.6c-1.1 1.1-3 1.1-4.1 0l-1.6-1.7c-1.2-1.2-1.1-2.9 0-4z"/><path d="M44.8 10.9l10.5 10.7c1.1 1.1 1.1 3 0 4.1l-1.7 1.7c-1.1 1.1-2.9 1.1-4 0L39.2 16.6c-1.1-1.1-1.1-3 0-4.1l1.7-1.6c1.1-1.2 2.8-1.1 3.9 0z" fill="none" stroke="#413f4c" stroke-width="1.5" stroke-linecap="round" stroke-linejoin="round" stroke-miterlimit="10"/></svg>
