<?xml version="1.0" encoding="utf-8"?>
<!-- Generator: Adobe Illustrator 23.0.1, SVG Export Plug-In . SVG Version: 6.00 Build 0)  -->
<svg version="1.1" id="Layer_1" xmlns="http://www.w3.org/2000/svg" xmlns:xlink="http://www.w3.org/1999/xlink" x="0px" y="0px"
	 viewBox="0 0 50 50" style="enable-background:new 0 0 50 50;" xml:space="preserve">
<style type="text/css">
	.st0{fill:#FFFFFF;}
</style>
<path class="st0" d="M43.3,0H6.7C3,0,0,3,0,6.7v36.5C0,47,3,50,6.7,50h18l0-17.9h-4.6c-0.6,0-1.1-0.5-1.1-1.1l0-5.8
	c0-0.6,0.5-1.1,1.1-1.1h4.6v-5.6c0-6.5,3.9-10,9.7-10h4.7c0.6,0,1.1,0.5,1.1,1.1v4.9c0,0.6-0.5,1.1-1.1,1.1h-2.9
	c-3.1,0-3.7,1.5-3.7,3.7v4.8h6.9c0.7,0,1.2,0.6,1.1,1.2l-0.7,5.8c-0.1,0.5-0.5,1-1.1,1h-6.2l0,17.9h10.7c3.7,0,6.7-3,6.7-6.7V6.7
	C50,3,47,0,43.3,0z"/>
</svg>
