<?xml version="1.0" encoding="utf-8"?>
<!-- Generator: Adobe Illustrator 23.0.1, SVG Export Plug-In . SVG Version: 6.00 Build 0)  -->
<svg version="1.1" id="图层_1" xmlns="http://www.w3.org/2000/svg" xmlns:xlink="http://www.w3.org/1999/xlink" x="0px" y="0px"
	 viewBox="0 0 255 238" style="enable-background:new 0 0 255 238;" xml:space="preserve">
<style type="text/css">
	.st0{fill:#FFFFFF;}
</style>
<path id="XMLID_27_" class="st0" d="M242.3,57.2c-3.1-4.1-8.5-6.5-13.9-7.4c-14.5-1.4-28.7,1.6-42.1,4.9c-1.4,0.4-2.8,0.8-4.1,1.3
	c-45.1,14.4-86,40.9-118,74.6c-6.9,7.3-13.4,15-19.5,22.9c0,0-25.3-20.6-43.4-25.6l-0.3-0.1c24.4,31.3,31.2,63.6,36.8,93.3l6.5-13.9
	c13.3-29.2,33.4-56,55.3-79.3c27.6-28.7,59.9-56.1,99.2-69.5c12.8-3.3,33.1-9.1,42.6,3.3c5.8,9.3,0.9,21.3-3,30.3l1.9,0.5
	C245.6,82.4,249.9,67.4,242.3,57.2"/>
<g>
	<path class="st0" d="M193.1,64.5c-0.2,0.1-0.4,0.2-0.6,0.2c-37.3,18.1-66.1,49.3-89.9,81.2c-6.3,8.7-12.4,17.7-18,27.1
		c14,14.8,33.8,24,55.7,24c42.4,0,76.8-34.4,76.8-76.8C217,98.3,207.8,78.5,193.1,64.5z"/>
	<path class="st0" d="M180.4,54.8c-11.7-7.2-25.4-11.3-40.1-11.3c-42.4,0-76.8,34.4-76.8,76.8c0,2.7,0.2,5.4,0.4,8
		C95.6,95,135.9,69,180.4,54.8z"/>
</g>
<path class="st0" d="M243.6,113.5c3,0,5.4,2.4,5.4,5.4c0,3.1-2.4,5.5-5.4,5.5c-3,0-5.4-2.4-5.4-5.5
	C238.1,115.9,240.6,113.5,243.6,113.5L243.6,113.5 M243.5,114.3c-2.4,0-4.4,2.1-4.4,4.6c0,2.6,2,4.6,4.4,4.6c2.4,0,4.4-2,4.4-4.6
	S246,114.3,243.5,114.3C243.6,114.3,243.5,114.3,243.5,114.3z M242.5,122.1h-1V116c0.5-0.1,1-0.1,1.7-0.1c0.9,0,1.5,0.2,1.9,0.5
	c0.4,0.3,0.6,0.7,0.6,1.3c0,0.8-0.5,1.3-1.2,1.5v0.1c0.5,0.1,0.9,0.6,1,1.5c0.1,0.9,0.3,1.3,0.4,1.5h-1c-0.1-0.2-0.3-0.8-0.4-1.6
	c-0.1-0.8-0.5-1.1-1.3-1.1h-0.7V122.1z M242.5,118.8h0.7c0.8,0,1.5-0.3,1.5-1c0-0.5-0.4-1.1-1.5-1.1c-0.3,0-0.5,0-0.7,0.1V118.8z"/>
<path id="XMLID_22_" class="st0" d="M45.2,107.2c-0.9,6.8-4.6,7.7-10.8,6.9l-5.4-0.7c-5.9-0.8-9.5-3-8.7-9.4
	c0.5-4.1,2.4-7.4,7.9-6.7c0.7,0.1,1.2,0.7,1.1,1.4l-0.4,3.1c-0.1,0.7-0.7,1.2-1.5,1.1c-0.2,0-2.2-0.5-2.5,1.7
	c-0.2,1.6,0.8,2.4,2.7,2.7l9.7,1.2c1.8,0.2,2.9-0.4,3.2-2c0.3-2.3-3.6-2.5-3.6-2.5l-0.4,0l-0.1,1.1c-0.1,0.8-0.8,1.2-1.5,1.1l-2-0.3
	c-0.7-0.1-1.2-0.7-1.1-1.5l0.7-5.4c0.1-0.7,0.8-1.2,1.5-1.1l3.5,0.4C43,99.1,46,101.3,45.2,107.2"/>
<path class="st0" d="M52.1,80.5L51,83.4c-0.3,0.7-1,0.9-1.7,0.7c0,0-0.8-0.1-2.1-0.5l-2-0.7c-2.5-0.9-3.9-0.6-4.5,1.1l-0.5,1.5
	l7.6,2.8c0.7,0.3,1,1,0.8,1.6l-1.1,2.9c-0.3,0.7-1,1-1.7,0.7l-20.4-7.4c-0.7-0.3-1-1-0.8-1.6l2.5-6.8c1.6-4.5,4.2-5.9,8.3-4.4
	l0.9,0.3c2.7,1,4.3,2.5,4,5.2c1.8-2.1,4.4-2.1,7-1.2l1.8,0.7c1.1,0.4,2,0.5,2,0.5C52,79,52.3,79.8,52.1,80.5 M34.3,78.9
	c-1.7-0.6-2.7-0.3-3.3,1.3l-0.6,1.7l5.9,2.1l0.6-1.6c0.6-1.7,0.3-2.6-1.5-3.2L34.3,78.9z"/>
<path id="XMLID_19_" class="st0" d="M62.4,63L56.5,72c-0.4,0.6-1.2,0.7-1.8,0.3L36.5,60.6c-0.6-0.4-0.8-1.2-0.4-1.8l5.7-8.8
	c0.4-0.6,1.2-0.8,1.8-0.4l1.9,1.2c0.6,0.4,0.8,1.2,0.4,1.8l-3.3,5.1l3.8,2.5l2.7-4.2c0.4-0.6,1.2-0.8,1.8-0.4l1.9,1.2
	c0.6,0.4,0.8,1.2,0.4,1.8l-2.7,4.2l4.3,2.8l3.5-5.4c0.4-0.6,1.2-0.8,1.8-0.4l2,1.3C62.6,61.6,62.8,62.4,62.4,63"/>
<path id="XMLID_18_" class="st0" d="M76,48.1l-7.7,7.6c-0.5,0.5-1.3,0.5-1.8,0L51.3,40.3c-0.5-0.5-0.5-1.3,0-1.8l7.4-7.4
	c0.5-0.5,1.3-0.5,1.8,0l1.6,1.6c0.5,0.5,0.5,1.3,0,1.8l-4.3,4.3L61,42l3.6-3.5c0.5-0.5,1.3-0.5,1.8,0l1.6,1.6c0.5,0.5,0.5,1.3,0,1.8
	l-3.6,3.5l3.6,3.7l4.5-4.5c0.5-0.5,1.3-0.5,1.8,0l1.7,1.7C76.6,46.7,76.6,47.6,76,48.1"/>
<path id="XMLID_17_" class="st0" d="M95.3,34.8L91.7,37c-0.6,0.4-1.2,0-1.8-0.4l-11.3-9.8l0.1,0.1L86,39c0.4,0.6,0.2,1.4-0.4,1.8
	l-2.2,1.3c-0.6,0.4-1.4,0.2-1.8-0.5L70.3,23.1c-0.4-0.6-0.2-1.4,0.4-1.8l3.8-2.3c0.7-0.4,1.3,0,1.8,0.4L87,28.6l-7-11.4
	c-0.4-0.6-0.2-1.4,0.4-1.8l2.2-1.4c0.6-0.4,1.4-0.2,1.8,0.4L95.7,33C96.1,33.6,95.9,34.4,95.3,34.8"/>
<path id="XMLID_16_" class="st0" d="M122,26.3c-4.8,0.9-7.8-0.6-8.8-5.6c-0.1-0.7,0.3-1.4,1-1.5l2.8-0.5c0.7-0.1,1.3,0.4,1.5,1.1
	c0.3,1.5,0.9,2.5,2.9,2.2c1.3-0.2,2-1.1,1.7-2.5l-0.1-0.8c-0.3-1.7-2.2-2.3-5.3-2.9c-3.8-0.8-5.4-2.4-6.1-6.2
	c-0.8-4.7,1.3-7.1,5.8-7.8c4.6-0.8,7.9,0.3,8.7,4.9c0.1,0.8-0.3,1.3-1,1.5l-2.7,0.5c-0.7,0.1-1.3-0.3-1.5-1c-0.2-1.1-1-1.8-2.5-1.5
	c-1.2,0.2-1.8,0.9-1.6,2.1l0.1,0.7c0.2,1.2,1.8,1.9,4.6,2.4c4.2,0.8,6.2,2.4,7,6.8C129.5,23.2,126.8,25.5,122,26.3"/>
<path id="XMLID_15_" class="st0" d="M147,24.5l-10.8-0.3c-0.7,0-1.3-0.6-1.2-1.3l0.5-21.7c0-0.7,0.6-1.3,1.3-1.3l10.5,0.2
	c0.7,0,1.3,0.6,1.3,1.3l-0.1,2.2c0,0.7-0.6,1.3-1.3,1.3L141,4.9l-0.1,4.6l5,0.1c0.7,0,1.3,0.6,1.3,1.3l-0.1,2.3
	c0,0.7-0.6,1.3-1.3,1.3l-5-0.1l-0.1,5.1l6.4,0.1c0.7,0,1.3,0.6,1.3,1.3l-0.1,2.4C148.3,24,147.7,24.6,147,24.5"/>
<path class="st0" d="M169.6,29.1l-3-0.8c-0.7-0.2-1-0.9-0.9-1.6l0.3-3.1l-4.3-1.1l-1.2,2.8c-0.3,0.7-0.9,1.1-1.6,1l-2.9-0.8
	c-0.7-0.2-1.2-0.9-0.9-1.6l9.6-19.9c0.3-0.7,0.9-1.1,1.6-1l5.4,1.4c0.7,0.2,1,0.9,0.9,1.6l-1.3,22.1
	C171.1,28.9,170.3,29.3,169.6,29.1 M167.5,8.9l-4.1,9.5l3.1,0.8L167.5,8.9z"/>
<path id="XMLID_12_" class="st0" d="M187.6,37.5l-9.3-4.8c-0.6-0.3-0.9-1.1-0.5-1.7l9.9-19.3c0.3-0.6,1.1-0.9,1.7-0.6l2.8,1.4
	c0.6,0.3,0.9,1.1,0.5,1.7l-8.3,16l5.4,2.8c0.6,0.3,0.9,1.1,0.6,1.7l-1.1,2.1C189,37.6,188.3,37.8,187.6,37.5"/>
<path id="XMLID_11_" class="st0" d="M90.4,227.9c-6.3-2.8-5.8-7-3.3-12.6l2.1-4.5c2.5-5.5,5.5-8.4,11.6-5.7c5.2,2.3,6,5.2,3.7,10.3
	c-0.3,0.6-1,1-1.7,0.7l-2.7-1.2c-0.7-0.3-0.9-1.1-0.6-1.7c0.1-0.2,1.5-2.7-0.6-3.6c-1.4-0.6-2.5,0.1-3.3,1.9l-3.9,8.6
	c-0.7,1.6-0.6,2.9,0.8,3.6c2.2,1,3.5-2.7,3.5-2.7c0.3-0.6,1-1,1.7-0.7l2.8,1.3c0.7,0.3,0.9,1.1,0.6,1.7
	C98.7,228.1,95.8,230.3,90.4,227.9"/>
<path id="XMLID_10_" class="st0" d="M122.4,236.8l-10.6-2c-0.7-0.1-1.1-0.8-1-1.5l4.1-21.3c0.1-0.7,0.8-1.2,1.5-1.1l10.3,1.9
	c0.7,0.1,1.2,0.8,1.1,1.5l-0.4,2.2c-0.1,0.7-0.8,1.2-1.5,1l-6-1.1l-0.8,4.5l4.9,0.9c0.7,0.1,1.2,0.8,1.1,1.5l-0.4,2.2
	c-0.1,0.7-0.8,1.2-1.5,1l-4.9-0.9l-1,5.1l6.3,1.2c0.7,0.1,1.2,0.8,1.1,1.5l-0.4,2.3C123.8,236.5,123.1,236.9,122.4,236.8"/>
<path class="st0" d="M151.4,237.4l-3.1,0.1c-0.7,0-1.2-0.5-1.3-1.3c0,0-0.3-0.8-0.3-2.1l-0.1-2.1c-0.1-2.6-1-3.8-2.8-3.7l-1.6,0.1
	l0.4,8.1c0,0.7-0.5,1.3-1.2,1.4l-3.1,0.1c-0.7,0-1.3-0.5-1.3-1.2l-1-21.7c0-0.7,0.5-1.3,1.2-1.4l7.3-0.3c4.8-0.2,7,1.6,7.2,5.9
	l0.1,1c0.1,2.8-0.7,4.9-3.2,5.7c2.6,0.8,3.7,3.2,3.8,6l0.1,1.9c0.1,1.1,0.3,2,0.3,2C152.8,236.7,152.1,237.4,151.4,237.4
	 M146.1,220.3c-0.1-1.8-0.8-2.6-2.5-2.5l-1.8,0.1l0.3,6.2l1.7-0.1c1.8-0.1,2.5-0.8,2.4-2.6L146.1,220.3z"/>
<path id="XMLID_7_" class="st0" d="M172.7,212.7l-3.3,0.9l5.1,17.5c0.2,0.7-0.2,1.4-0.9,1.6l-3,0.9c-0.7,0.2-1.4-0.2-1.6-0.9
	l-5.1-17.5l-3.3,0.9c-0.7,0.2-1.4-0.2-1.6-0.9l-0.6-2.2c-0.2-0.7,0.2-1.4,0.9-1.6l12-3.4c0.7-0.2,1.4,0.1,1.6,0.9l0.6,2.1
	C173.8,211.8,173.4,212.5,172.7,212.7"/>
<path id="XMLID_6_" class="st0" d="M195.1,223.8l-2.8,1.4c-0.6,0.3-1.4,0.1-1.7-0.6l-10-19.2c-0.3-0.6-0.1-1.4,0.5-1.7l2.8-1.5
	c0.6-0.3,1.4-0.1,1.7,0.6l10.1,19.3C196.1,222.7,195.8,223.4,195.1,223.8"/>
<path id="XMLID_5_" class="st0" d="M205.3,193.1l-4.6,3.7l3.1,3.9l3.6-2.9c0.6-0.4,1.4-0.4,1.8,0.2l1.4,1.8c0.5,0.6,0.4,1.4-0.2,1.8
	l-3.6,2.9l5.3,6.6c0.4,0.6,0.4,1.4-0.2,1.8l-2.4,1.9c-0.6,0.4-1.4,0.3-1.8-0.2l-13.6-16.9c-0.4-0.6-0.4-1.4,0.2-1.8l8-6.4
	c0.6-0.4,1.4-0.4,1.8,0.2l1.4,1.7C205.9,191.8,205.9,192.7,205.3,193.1"/>
<path id="XMLID_4_" class="st0" d="M230.6,194.6l-2,2.4c-0.5,0.6-1.3,0.6-1.8,0.1l-16.6-14c-0.6-0.5-0.6-1.3-0.2-1.8l2-2.4
	c0.5-0.6,1.3-0.6,1.8-0.1l16.6,14C231,193.2,231.1,194,230.6,194.6"/>
<path id="XMLID_3_" class="st0" d="M245.7,171.4l-5.2,9.5c-0.3,0.6-1.1,0.8-1.8,0.5l-19-10.4c-0.6-0.3-0.9-1.1-0.5-1.7l5-9.2
	c0.3-0.6,1.1-0.9,1.7-0.5l2,1.1c0.6,0.3,0.9,1.1,0.5,1.8l-2.9,5.3l4,2.2l2.4-4.4c0.3-0.6,1.1-0.9,1.7-0.5l2,1.1
	c0.6,0.4,0.9,1.1,0.5,1.8l-2.4,4.4l4.5,2.5l3.1-5.6c0.3-0.6,1.1-0.9,1.7-0.5l2.1,1.1C245.8,170,246,170.8,245.7,171.4"/>
<path class="st0" d="M253.4,150.6l-1.6,6c-0.2,0.7-0.9,1.1-1.6,0.9l-20.9-5.7c-0.7-0.2-1.1-0.9-0.9-1.6l1.7-6.3
	c1.6-5.7,5.1-6.8,12.3-4.9l2.7,0.7C252.4,141.9,255,144.5,253.4,150.6 M238.9,144.1c-2.7-0.7-4.1-0.3-4.7,1.7l-0.3,1.3l14.5,3.9
	l0.4-1.3c0.6-2.2-0.5-3.1-3.4-3.9L238.9,144.1z"/>
</svg>
