<?xml version="1.0" encoding="utf-8"?>
<!-- Generator: Adobe Illustrator 23.0.1, SVG Export Plug-In . SVG Version: 6.00 Build 0)  -->
<svg version="1.1" id="layer" xmlns="http://www.w3.org/2000/svg" xmlns:xlink="http://www.w3.org/1999/xlink" x="0px" y="0px"
	 viewBox="0 0 255 250" style="enable-background:new 0 0 255 250;" xml:space="preserve">
<style type="text/css">
	.st0{fill:#FFFFFF;}
</style>
<path class="st0" d="M125.9,57.4c-19.6,0-35.5,15.9-35.5,35.5s15.9,35.5,35.5,35.5s35.5-15.9,35.5-35.5S145.5,57.4,125.9,57.4z
	 M127.3,126.4c0.9-2.8,3-4.4,2.6-8.6c-3.6-1.2-4.9-4.5-7.6-6.6c0.1-3.1,0.4-4.6,2.6-6.6c0.2-1.9-1-2.4-1.5-3.5c-0.1,0-0.2,0-0.3,0
	c-0.7,0.2-0.5,1.3-1.8,1c-2.6-2.4-5.5-4.3-8.1-6.6c-6.5,1.1-7.8-6.9-9.1-12.7c-2.3,0.4,1.3,5.5-0.5,5.1c0.1-2.2-1.8-4.2-0.5-6.1
	c-2.7-6.6,3.4-10.4,4.4-16.2c-0.1-0.9-0.8-1.2-2.1-1c1.4-2.2,4-3,6.6-4c-0.3,2.5,2.7,1.8,3.6,3c0.4-0.2,0.4-1.3,0-1.5
	c0.5-1.5,2.2,0.2,3.1,0c0.3,1.2-0.9,0.7-1,1.5c0.1,1.4,3.3-0.6,1.6-1c1.2-1.8,1.4,1.6,2.6,1.5c-0.1-1-0.3-1.7-1-2
	c2.8-4,9.6-3.3,13.7-0.5c-0.2,1.7-1,2.6,0.5,4c-3.3,1.5-6-4.5-10.2-5.4c-1.2,0.5-1.3,2-3.6,1.5c2.3,0.8,4.9,1.1,6.6,2.5
	c-0.9,1-0.9,0.4-0.5,2.1c-1.5,0.2-1.6-1.2-3.1-1c0.7-0.7,0.7-1.9-0.5-2c-1.9,2.9-3.6,1.5-6.1,4.5c1.5,1.6,4.1,2,5.1,4
	c0.9-2.2,1.1-2.6,1-5.6c4.9,1.1,8.4,2.8,11.2,7.1h-2.6v-2c-1.2,0.8-3.3,0.8-4.5,1.5c1.4-0.6,1.7,1.7,4,1.5c-2.2,1.1-7.5,3.1-7.1,7.6
	c-1.3,0.9-2.4,2-3.6,3.1c0.1,1.6,1.2,2.3,1,4c-2.2,0.4-1.1-2.3-2.1-3.1c-5.4-2.1-13.3,2.8-7.6,8.1c3.3,0.8,1.8-2.9,5.1-2.1
	c-0.8,0.9-0.6,2.8-1.5,3.6c0.8,1,3.6,0.2,4,1.5c-1.1,1.1-0.4,3.4,0.5,4c0.9,0,1.7,0.1,2.3,0c0.1,0,0.2,0,0.2,0l0,0
	c1.9-0.1,2.5-0.7,4.5-2.6c4.6,0.4,9.7,2.3,14.2,3.6c-0.3,1.6,0.9,1.5,0.5,3.1c3.2,0.3,4.3-0.3,7.1,0.5
	C146.1,116.5,138.8,123.5,127.3,126.4z"/>
<path class="st0" d="M171.9,105.5c-0.1-1.8-0.6-3.9-0.4-5.2c0.2-1.2,1.5-2.8,1.8-4.7c0.3-2.3,0-5.2,0-8.1c0-7.1,0.2-13.5,0-20.7
	c-0.1-2.2-0.2-3-1.6-2.8c-0.1,0-0.5,0-0.5,0.1c-3.2,3.8-4,8.8-4.3,16.4c-0.2,4-0.4,7.9-0.4,11.9c0,1.4-0.3,3.1-0.1,4
	c0.3,1.6,1.7,2.3,1.9,3.8c0.3,1.9-0.3,4.5-0.4,6.9c-0.3,5.6-0.8,11.6-1,17.2h6.2C172.9,117.8,172.3,112,171.9,105.5z"/>
<path class="st0" d="M84.2,122.5c-0.4-9.8-1.6-19.5-1.6-29.2c0.6-1.8,2.8-2.5,3.3-4.5c0.8-2.7-0.1-7.2-0.5-11
	c-0.3-2.8-0.4-5.5-0.8-7.9c-0.1-0.8-0.2-1.8-0.8-2.1c0.1,4.1,0.4,8.2,0.5,12.4c0.1,1.4,0.4,3.4-0.5,4C82.9,79.8,83,74,82.5,69.7
	c-0.1-0.6,0.1-1.5-0.5-1.9c-0.2,3.7,0,7.4,0,12.1c0,1.4,0.3,3.1-0.3,4.3c-0.8-1.8-0.4-4-0.5-6.2c-0.1-2.7-0.3-5.5-0.3-8.1
	c0-0.8,0.1-1.7-0.5-2.1c-0.3,3.9-0.3,8.8-0.3,13c0,1.3,0.3,2.8-0.5,3.4c-0.8-0.9-0.4-2.6-0.5-3.8c-0.2-4.5-0.3-9.4-0.3-12.4
	c-0.1-0.1-0.2-0.2-0.3-0.2c-0.7,3.6-0.8,9.6-1.2,14.8c-0.1,1.9-0.5,4.8,0,6.4c0.7,2,3.2,2.5,3.7,4.8c0.1,0.7,0.1,1.8,0,2.6
	c-0.2,5.8-1.3,12.4-1.8,18.5c-0.3,3-0.3,5.8-0.3,9.4h5.6C84.2,123.6,84.2,123,84.2,122.5z"/>
<g>
	<path class="st0" d="M120.1,77.9c-0.1-0.8,0.4-1.3,1-1.5c0.1,0.9,0.3,1.7,1,2.1c0.1-1.3,2-0.8,2.1-2.1c-1.3-0.4-1,0.9-2,0.9
		c0.2-1.8-3.2-3.3-3.6-1.5C121.5,75.2,118.5,77.3,120.1,77.9z"/>
	<path class="st0" d="M123,101.1c0.1,0,0.2,0,0.3,0l0,0C123.2,101.1,123.1,101.1,123,101.1z"/>
	<path class="st0" d="M58.4,104.3c0-37.8,30.8-68.7,68.7-68.7s68.7,30.8,68.7,68.7c0,6.9-1,13.7-3,20h36.5c1.3-6.5,1.9-13.1,1.9-20
		c0-57.4-46.7-104.1-104.1-104.1S23,46.9,23,104.3c0,6.8,0.7,13.5,1.9,20h36.5C59.5,118,58.4,111.3,58.4,104.3z M219.3,84.4
		l-3.1,0.9l-1.3-4.2l-10.8,3.2l-1-3.3l10.8-3.2l-1.3-4.2l3.1-0.9L219.3,84.4z M209.8,59.8l-2.3,4.6c-0.7,1.4-2.4,4.8-2.4,4.8
		s2.3-1.2,4.6-2.4l2.9-1.5l1.6,3.1L201.3,75l-1.5-2.9l2.3-4.5c1-2,2.6-5,2.6-5s-2,1-4.8,2.5l-2.9,1.4l-1.6-3.1l12.9-6.6L209.8,59.8z
		 M200.8,46.3l2,2.6l-7.9,13.5l-2.3-3l1.3-2.1l-3.5-4.5l-2.3,0.8l-2.3-3L200.8,46.3z M190,35.2c2.7,2.5,3.1,5.4,1.1,7.6
		c-1.3,1.5-2.9,1.9-4.7,1.4l-1.1,6.1l-2.9-2.7l1.1-5.3l-1.4-1.2l-3.1,3.5l-2.6-2.3l9.7-10.8L190,35.2z M166.6,28.5l4.2-6.9l2.9,1.8
		l-4.1,6.8c-1.3,2.2-1,3.5,0.6,4.5s3.1,0.6,4.3-1.5l4.1-6.8l3,1.9l-4.2,6.9c-2.3,3.7-5.7,4.4-9,2.4
		C165.3,35.6,164.4,32.2,166.6,28.5z M163.1,18.2l0.1,15.6l-3.5-1.3l0.1-2.5l-5.3-2.1l-1.6,1.8l-3.5-1.4L160,17L163.1,18.2z
		 M141.5,12l12,2.6l-0.7,3.2l-4.3-1l-2.4,11l-3.4-0.8l2.4-11l-4.2-0.9L141.5,12z M130.6,19.3c-1.7-0.8-3.7-1.9-3.5-4.4
		c0.2-2.3,2.6-4.2,5.6-4c2.8,0.1,4.8,2,5.4,4.3l-3.4,0.8c-0.3-1.3-1.3-1.9-2.4-2.1c-1.1-0.1-1.7,0.4-1.7,1c-0.1,0.9,1.3,1.4,3.1,2.2
		c2.1,0.9,4.3,2.3,4.1,4.7c-0.2,2.6-2.6,4.4-5.9,4.2c-3-0.1-5.1-2-5.8-4.7l3.4-0.7c0.3,1.1,1.3,2.3,2.8,2.4c1.3,0,1.8-0.5,1.9-1.2
		C134.2,20.6,132.6,20.2,130.6,19.3z M122.9,11l0.3,3.3l-7,0.7l0.3,2.4l5.5-0.5l0.3,3l-5.5,0.5l0.3,2.6l7.1-0.8l0.3,3.3l-10.6,1
		l-1.4-14.4L122.9,11z M101.5,14.7c3.5-1,6.1,0.4,7,3.2c0.6,1.9,0,3.5-1.4,4.7l4.5,4.3l-3.8,1l-3.9-3.8l-1.7,0.5l1.3,4.5l-3.3,1
		l-3.9-14L101.5,14.7z M76.4,25.9l4.7,2C82.5,28.5,86,30,86,30s-1.3-2.2-2.7-4.4l-1.7-2.9l2.9-1.9l7.4,12.5L89.1,35l-4.6-2
		c-2.1-0.9-5.1-2.3-5.1-2.3s1.2,1.9,2.8,4.6l1.7,2.8l-3,1.8l-7.4-12.5L76.4,25.9z M68.8,31.1l2.2,2.5l-5.3,4.6l1.6,1.8l4.1-3.7
		l2,2.3l-4.1,3.7l1.7,2l5.4-4.7l2.2,2.4l-8,7.1L61,38.2L68.8,31.1z M56.9,42.2l2.5,2L55,49.7l1.8,1.5l3.5-4.3l2.4,1.9l-3.5,4.3
		l2,1.7l4.5-5.6l2.5,2l-6.7,8.3l-11.3-9.1L56.9,42.2z M52.4,77.2c-1-0.3-1.3-0.4-1.3-0.4c0.6,1.1,0.7,2.8,0.2,4.2
		c-1.3,3.9-5.3,6.2-9.5,4.8c-4.1-1.3-6.1-5.5-4.8-9.5c0.9-2.7,3-4.6,5.7-5.1l-0.2,3.6c-1,0.4-1.9,1.4-2.2,2.5
		c-0.8,2.3,0.5,4.2,2.7,4.9c2.5,0.8,4.5-0.3,5.2-2.7c0.7-2.2-0.1-3.6-1-4.2L46.1,79l-2.6-0.8l2.1-6.4l7.8,2.6L52.4,77.2z M56.1,68.7
		l-1.7,3.1l-12.7-7l2.6-4.7c1.8-3.2,4.5-4.1,7.2-2.7c1.7,1,2.5,2.5,2.4,4.3l6.2-0.3l-1.9,3.4l-5.4,0.1L52,66.5L56.1,68.7z"/>
	<path class="st0" d="M188.4,40.3c0.5-0.6,0.8-1.6-0.1-2.5l-1.8-1.6l-2.3,2.5l1.8,1.6C186.9,41.3,187.8,40.8,188.4,40.3z"/>
	<path class="st0" d="M159.9,23.8c0-0.9,0.1-2.3,0.1-2.3s-0.9,1-1.4,1.8l-2,2.3l3.3,1.3L159.9,23.8z"/>
	<path class="st0" d="M197.1,52.1c0.4-0.8,1.3-1.8,1.3-1.8s-1.3,0.5-2.1,0.8l-2.9,0.9l2.1,2.8L197.1,52.1z"/>
	<path class="st0" d="M103.7,20.9c1.2-0.4,1.4-1.4,1.2-2.1c-0.2-0.8-0.9-1.5-2.2-1.2l-2.2,0.6l0.9,3.4L103.7,20.9z"/>
	<path class="st0" d="M49.8,60.5c-0.7-0.4-1.8-0.4-2.3,0.7l-1.1,2.1l3,1.6l1.2-2.1C51,61.7,50.5,60.8,49.8,60.5z"/>
</g>
<g>
	<path class="st0" d="M75,174.1l-1.5-1.1l-3.1,4.1l1.5,1.1c1,0.8,2.5,0.8,3.5-0.5C76.3,176.4,76,174.9,75,174.1z"/>
	<path class="st0" d="M117.5,191.1l-1.6-0.2l-0.3,2.3l1.6,0.2c0.8,0.1,1.2-0.4,1.3-1C118.6,191.9,118.3,191.2,117.5,191.1z"/>
	<path class="st0" d="M171.8,185.2c1.4-0.8,1.6-2.2,0.9-3.6s-2.1-1.8-3.5-1.1c-1.3,0.8-1.6,2.1-0.9,3.6
		C169.1,185.5,170.5,186,171.8,185.2z"/>
	<path class="st0" d="M127.1,173c-11.4,0-22.1-2.8-31.5-7.7H42.8c18.9,26.1,49.7,43.1,84.3,43.1s65.4-17,84.3-43.1h-52.8
		C149.2,170.2,138.5,173,127.1,173z M70.6,179.9l-3.3-2.5l5.6-7.4l3.3,2.5c2.2,1.6,2.7,4.4,1,6.7S72.7,181.5,70.6,179.9z
		 M76.7,184.1l4.9-7.9l1.9,1.2l-4.9,7.9L76.7,184.1z M86.9,189.9l-0.6-3.2c-0.3-1.4-0.6-3.6-0.6-3.6s-0.7,1.3-1.6,3.1l-0.9,1.9l-2-1
		l4.2-8.3l1.9,0.9l0.6,3.3c0.2,1,0.6,3.4,0.6,3.4s0.8-1.5,1.5-3l0.9-1.9l2,1l-4.2,8.3L86.9,189.9z M100.9,187.6l-4.3-1.6l-0.5,1.4
		l3.3,1.2l-0.7,1.9l-3.3-1.2l-0.6,1.6l4.3,1.6l-0.7,1.9L92,192l3.2-8.7l6.4,2.3L100.9,187.6z M106,194.5c1.4,0.4,2.3-0.3,2.7-0.9
		l-2.4-0.6l0.4-1.8l4.2,1l-1.3,5.1l-1.8-0.4c0.2-0.6,0.2-0.8,0.2-0.8c-0.7,0.4-1.8,0.6-2.7,0.4c-2.6-0.6-4.2-3.1-3.6-5.8
		s3.3-4.2,5.8-3.6c1.8,0.4,3.1,1.8,3.6,3.4l-2.3,0.1c-0.3-0.6-1-1.1-1.7-1.3c-1.5-0.4-2.7,0.5-3.1,2
		C103.7,192.9,104.5,194.1,106,194.5z M120.8,192.6c-0.2,1.3-0.8,2.1-2,2.5l1.7,3.6l-2.4-0.3l-1.4-3.2l-1.2-0.1l-0.3,3.1l-2.3-0.3
		l1.1-9.3l3.4,0.4C119.7,189.3,121,190.8,120.8,192.6z M130.1,191.8l-4.5-0.1l-0.1,1.6l3.6,0.1l-0.1,1.9l-3.6-0.1l-0.1,1.6l4.6,0.1
		l-0.1,2.1l-6.9-0.1l0.2-9.3l6.7,0.1L130.1,191.8L130.1,191.8z M133.3,198.8l-0.9-9.3l6.7-0.6l0.2,2.1l-4.5,0.5l0.2,1.5l3.6-0.4
		l0.2,1.9l-3.6,0.4l0.2,1.6l4.6-0.4l0.3,2.1L133.3,198.8z M149.6,196.2l-2.4-2.1c-1.1-0.9-2.7-2.4-2.7-2.4s0.4,1.4,0.8,3.4l0.4,2
		l-2.2,0.5l-2.1-9.1l2.1-0.4l2.6,2.1c0.8,0.6,2.6,2.3,2.6,2.3s-0.4-1.6-0.8-3.3l-0.4-2.1l2.2-0.5l2.1,9.1L149.6,196.2z M155.6,194.7
		c-0.6,0.1-1.2-0.1-1.4-0.7c-0.1-0.6,0.1-1.1,0.7-1.3c0.6-0.1,1.1,0.1,1.3,0.7C156.5,193.9,156.2,194.5,155.6,194.7z M175.5,174.3
		l3.1,1.2c1.2,0.5,1.4,0.6,1.4,0.6s-0.1-0.3-0.1-1.6l-0.3-3.3l1.6-1.3l5.6,7.5l-1.8,1.3l-1.4-1.9c-1.4-1.8-1.9-2.7-1.9-2.7
		s0.1,1.5,0.2,1.6l0.3,2.1l-0.9,0.7l-2-0.9c-0.1-0.1-1.5-0.6-1.5-0.6s0.7,0.9,2.1,2.6l1.4,1.9l-1.8,1.3l-5.6-7.5L175.5,174.3z
		 M168.1,178.7c2.4-1.3,5.2-0.6,6.6,1.9c1.4,2.4,0.5,5.3-1.9,6.6s-5.2,0.6-6.6-1.9C164.9,182.9,165.8,180,168.1,178.7z M163.8,183.9
		l-1.8,1.4c-0.6-0.4-1.4-0.4-2.1-0.1c-1.4,0.6-1.9,1.9-1.4,3.4c0.6,1.5,1.9,2.1,3.3,1.5c0.9-0.4,1.4-1.1,1.6-1.8l2.4-0.3
		c-0.1,1.9-1.3,3.4-3.1,4.2c-2.5,1-5.2-0.1-6.3-2.6c-1.1-2.6,0.1-5.3,2.6-6.3C160.6,182.5,162.4,182.9,163.8,183.9z"/>
</g>
<g>
	<path class="st0" d="M89.5,136.9h-2.8v7.1h2.8v0.1c2.9,0,4.5-0.9,4.5-3.4C94,138,92.1,136.9,89.5,136.9z"/>
	<path class="st0" d="M240.5,124.3h-11.2h-36.5h-19.7h-6.2h-39H127H84.2h-5.6H61.4H24.9H14.5l7.6,20.5l-7.6,20.5h28.3h52.8H127h0.9
		h30.7h52.8h29.1l-7.6-20.5L240.5,124.3z M52.8,150.4c-0.3,0.7-2.8,6-10.5,6c-2.3,0-4.5-0.6-6.3-1.8c-3.1-1.9-5.1-5.4-5.1-10.1
		c0-0.1,0-0.2,0-0.4c0.2-7.4,5.4-11.3,11-11.3c3.6,0,5.5,1.6,6.4,2.9v-2.2c0-0.3,0.2-0.4,0.5-0.4H52c0.3,0,0.5,0.1,0.5,0.4v7.6
		c0,0.3-0.2,0.4-0.5,0.4h-3.7c-0.3,0-0.5-0.1-0.5-0.4v-0.3c0-1.4-2.1-3.8-5.6-3.8s-6.5,2.6-6.5,7.4c0,4.7,3.4,7.4,6.7,7.4
		c4.9,0,6.6-2.9,7.1-3.8c0.2-0.3,0.4-0.3,0.7-0.1l2.5,1.6C52.9,149.9,52.9,150.1,52.8,150.4z M75.4,155.7c0,0.3-0.2,0.4-0.5,0.4
		H57.1v0.1c-0.3,0-0.5-0.1-0.5-0.4v-2.9c0-0.3,0.2-0.4,0.5-0.4h2.2v-15.4h-2.2c-0.3,0-0.5-0.1-0.5-0.4v-2.9c0-0.3,0.2-0.4,0.5-0.4
		h7.7H75c0.3,0,0.5,0.1,0.5,0.4v6.5c0,0.3-0.2,0.4-0.5,0.4h-3c-0.3,0-0.5-0.1-0.5-0.4v-3.1h-4.8h-2.9v5.8h6.3c0,0,0,0,0.1,0
		c0.2,0,0.4,0.2,0.4,0.4v0.1v2.9c0,0.3-0.2,0.4-0.5,0.4h-6.3v5.7h7.7v-3.1c0-0.3,0.2-0.4,0.5-0.4h2.9H75c0.3,0,0.5,0.1,0.5,0.4v0.2
		C75.4,149.4,75.4,155.7,75.4,155.7z M100.5,155.8c0,0.3-0.2,0.4-0.4,0.4h-3.9v-0.1c-1.1,0-1.8-0.8-2.3-1.9l-2.6-5.2
		c-0.3-0.7-0.8-1.4-1.9-1.4h-2.6v4.7h2.8c0.3,0,0.4,0.1,0.4,0.4v2.9c0,0.3-0.2,0.4-0.4,0.4h-7.3h-2.2c-0.3,0-0.4-0.1-0.4-0.4v-1.9
		v-1c0-0.3,0.2-0.4,0.4-0.4h2.2v-15.4h-2.2c-0.3,0-0.4-0.1-0.4-0.4v-2.8v-0.2c0-0.3,0.2-0.4,0.4-0.4h3.7h6.9c4.6,0,7.9,2.9,7.9,7.4
		c0,3.1-1.4,5.1-4,6.2c0.4,0.4,0.8,0.9,1.3,1.8l2.2,3.9h2.1c0.3,0,0.4,0.1,0.4,0.4L100.5,155.8L100.5,155.8z M123.6,140.6
		c0,0.3-0.2,0.5-0.5,0.5h-3.2c-0.3,0-0.5-0.2-0.5-0.5V137h-3.9v15.4h2.1c0.3,0,0.5,0.2,0.5,0.5v2.8c0,0.3-0.2,0.5-0.5,0.5h-8.8
		c-0.3,0-0.5-0.3-0.5-0.5v-2.8c0-0.3,0.3-0.5,0.5-0.5h2.2V137h-4v3.6c0,0.3-0.2,0.5-0.5,0.5h-3.2c-0.3,0-0.5-0.2-0.5-0.5v-7
		c0-0.3,0.2-0.5,0.5-0.5h19.9c0.3,0,0.5,0.2,0.5,0.5C123.6,133.6,123.6,140.6,123.6,140.6z M137.5,136.5c0,0.3-0.2,0.4-0.4,0.4h-2.3
		v15.4h2.3c0.3,0,0.4,0.1,0.4,0.4v2.9c0,0.3-0.2,0.4-0.4,0.4h-8.9c-0.3,0-0.4-0.1-0.4-0.4v-2.9c0-0.3,0.2-0.4,0.4-0.4h2.2v-15.4
		h-2.2c-0.3,0-0.4-0.1-0.4-0.4v-2.9c0-0.3,0.2-0.4,0.4-0.4h8.9c0.3,0,0.4,0.1,0.4,0.4V136.5z M156.6,140.5c-0.3,0-0.4-0.1-0.4-0.4
		V137h-7.4v5.8h6.1c0.3,0,0.4,0.1,0.4,0.4v2.9c0,0.3-0.1,0.4-0.4,0.4h-6.1v5.7h3.9c0.3,0,0.4,0.1,0.4,0.4v2.9c0,0.3-0.2,0.4-0.4,0.4
		h-10.6c-0.3,0-0.4-0.1-0.4-0.4v-2.9c0-0.3,0.2-0.4,0.4-0.4h2.2v-15.4h-2.2c-0.3,0-0.4-0.1-0.4-0.4v-2.9c0-0.3,0.2-0.4,0.4-0.4h17.6
		c0.3,0,0.4,0.1,0.4,0.4v6.5c0,0.3-0.1,0.4-0.4,0.4L156.6,140.5L156.6,140.5z M174,155.8c0,0.3-0.2,0.4-0.4,0.4h-1.5h-7.4
		c-0.3,0-0.4-0.1-0.4-0.4v-2.9c0-0.3,0.1-0.4,0.4-0.4h2.2v-15.4h-2.2c-0.3,0-0.4-0.1-0.4-0.4v-2.9c0-0.3,0.1-0.4,0.4-0.4h2.5h6.2
		h0.3c0.3,0,0.4,0.1,0.4,0.4v2.9c0,0.3-0.2,0.4-0.4,0.4h-0.6h-1.6v2.3v13.1h2.3c0.3,0,0.4,0.1,0.4,0.4v1.6v1.3H174z M196.9,140
		c0,0.3-0.1,0.4-0.4,0.4h-3.1c-0.3,0-0.4-0.1-0.4-0.4v-3.1h-5.5h-2.2v3.8v2h6.3c0.3,0,0.4,0.1,0.4,0.4v2.9c0,0.3-0.2,0.4-0.4,0.4
		h-6.3v5.7h7.6V149c0-0.3,0.1-0.4,0.4-0.4h3.1c0.3,0,0.4,0.1,0.4,0.4v6.4c0,0.3-0.2,0.4-0.4,0.4h-17.9v0.1c-0.3,0-0.4-0.1-0.4-0.4
		v-2.9c0-0.3,0.1-0.4,0.4-0.4h2.2V147v-10.2h-2.2c-0.3,0-0.4-0.1-0.4-0.4v-2.9c0-0.3,0.1-0.4,0.4-0.4h10.9h7c0.3,0,0.4,0.1,0.4,0.4
		L196.9,140L196.9,140z M219.1,153c-1.9,2-4.6,3.2-7.6,3.2h-10.2l0,0c-0.3,0-0.4-0.1-0.4-0.4v-2.9c0-0.3,0.1-0.4,0.4-0.4h2.3v-15.4
		h-2.3c-0.3,0-0.4-0.1-0.4-0.4v-2.9c0-0.3,0.1-0.4,0.4-0.4h8.9c6.5,0,11.8,4.2,11.8,11.7c0,1-0.1,1.9-0.3,2.7
		C221.4,149.8,220.4,151.6,219.1,153z"/>
	<path class="st0" d="M209.6,137H208v15.4h1.9c4.7-0.1,7.4-2.1,7.4-7.4C217.3,139.7,214.6,137,209.6,137z"/>
</g>
<path class="st0" d="M70.6,143.2c0-0.3-0.1-0.4-0.4-0.4C70.4,142.9,70.5,143.1,70.6,143.2L70.6,143.2z"/>
<path class="st0" d="M75,148.8L75,148.8c0.1,0.2,0.3,0.4,0.5,0.6v-0.2C75.4,149,75.3,148.8,75,148.8z"/>
<path class="st0" d="M173.5,136.9c0.3,0,0.4-0.1,0.4-0.4v-2.9c0-0.3-0.1-0.4-0.4-0.4h-0.3c0,1.4-0.1,2.8-0.4,3.8L173.5,136.9
	L173.5,136.9z"/>
<path class="st0" d="M173.5,156.2c0.3,0,0.4-0.1,0.4-0.4v-1.3c-0.6,0.6-1.3,1.2-2,1.8h1.6V156.2z"/>
<path class="st0" d="M87.7,219.9c-8.3,0-15,6.7-15,15s6.7,15,15,15s15-6.7,15-15S96,219.9,87.7,219.9z M93.3,244.5l-5.5-5.9
	l-5.5,5.9l2.3-7.7l-7.9-1.9l7.8-1.9l-2.3-7.7l5.5,5.9l5.5-5.9l-2.3,7.7l7.9,1.9l-7.9,1.9L93.3,244.5z"/>
<path class="st0" d="M125.9,219.9c-8.3,0-15,6.7-15,15s6.7,15,15,15s15-6.7,15-15S134.2,219.9,125.9,219.9z M131.4,244.5l-5.5-5.9
	l-5.5,5.9l2.3-7.7l-7.8-1.9l7.8-1.9l-2.3-7.7l5.5,5.9l5.5-5.9l-2.3,7.7l7.9,1.9l-7.9,1.9L131.4,244.5z"/>
<path class="st0" d="M164.1,219.9c-8.3,0-15,6.7-15,15s6.7,15,15,15s15-6.7,15-15S172.4,219.9,164.1,219.9z M169.7,244.5l-5.5-5.9
	l-5.5,5.9l2.4-7.7l-7.9-1.9l7.9-1.9l-2.4-7.7l5.5,5.9l5.5-5.9l-2.4,7.7l7.8,1.9l-7.8,1.9L169.7,244.5z"/>
</svg>
