<svg version="1.1" id="图层_1" xmlns="http://www.w3.org/2000/svg" x="0" y="0" viewBox="0 0 255 238" xml:space="preserve"><style>.st0{fill:#fff}</style><path id="XMLID_27_" class="st0" d="M242.3 57.2c-3.1-4.1-8.5-6.5-13.9-7.4-14.5-1.4-28.7 1.6-42.1 4.9-1.4.4-2.8.8-4.1 1.3-45.1 14.4-86 40.9-118 74.6-6.9 7.3-13.4 15-19.5 22.9 0 0-25.3-20.6-43.4-25.6l-.3-.1c24.4 31.3 31.2 63.6 36.8 93.3l6.5-13.9c13.3-29.2 33.4-56 55.3-79.3 27.6-28.7 59.9-56.1 99.2-69.5 12.8-3.3 33.1-9.1 42.6 3.3 5.8 9.3.9 21.3-3 30.3l1.9.5c5.3-10.1 9.6-25.1 2-35.3"/><path class="st0" d="M193.1 64.5c-.2.1-.4.2-.6.2-37.3 18.1-66.1 49.3-89.9 81.2-6.3 8.7-12.4 17.7-18 27.1 14 14.8 33.8 24 55.7 24 42.4 0 76.8-34.4 76.8-76.8-.1-21.9-9.3-41.7-24-55.7zm-12.7-9.7c-11.7-7.2-25.4-11.3-40.1-11.3-42.4 0-76.8 34.4-76.8 76.8 0 2.7.2 5.4.4 8C95.6 95 135.9 69 180.4 54.8zm63.2 58.7c3 0 5.4 2.4 5.4 5.4 0 3.1-2.4 5.5-5.4 5.5-3 0-5.4-2.4-5.4-5.5-.1-3 2.4-5.4 5.4-5.4m-.1.8c-2.4 0-4.4 2.1-4.4 4.6 0 2.6 2 4.6 4.4 4.6 2.4 0 4.4-2 4.4-4.6s-1.9-4.6-4.4-4.6c.1 0 0 0 0 0zm-1 7.8h-1V116c.5-.1 1-.1 1.7-.1.9 0 1.5.2 1.9.5.4.3.6.7.6 1.3 0 .8-.5 1.3-1.2 1.5v.1c.5.1.9.6 1 1.5.1.9.3 1.3.4 1.5h-1c-.1-.2-.3-.8-.4-1.6-.1-.8-.5-1.1-1.3-1.1h-.7v2.5zm0-3.3h.7c.8 0 1.5-.3 1.5-1 0-.5-.4-1.1-1.5-1.1-.3 0-.5 0-.7.1v2z"/><path id="XMLID_22_" class="st0" d="M45.2 107.2c-.9 6.8-4.6 7.7-10.8 6.9l-5.4-.7c-5.9-.8-9.5-3-8.7-9.4.5-4.1 2.4-7.4 7.9-6.7.7.1 1.2.7 1.1 1.4l-.4 3.1c-.1.7-.7 1.2-1.5 1.1-.2 0-2.2-.5-2.5 1.7-.2 1.6.8 2.4 2.7 2.7l9.7 1.2c1.8.2 2.9-.4 3.2-2 .3-2.3-3.6-2.5-3.6-2.5h-.4l-.1 1.1c-.1.8-.8 1.2-1.5 1.1l-2-.3c-.7-.1-1.2-.7-1.1-1.5l.7-5.4c.1-.7.8-1.2 1.5-1.1l3.5.4c5.5.8 8.5 3 7.7 8.9"/><path class="st0" d="M52.1 80.5L51 83.4c-.3.7-1 .9-1.7.7 0 0-.8-.1-2.1-.5l-2-.7c-2.5-.9-3.9-.6-4.5 1.1l-.5 1.5 7.6 2.8c.7.3 1 1 .8 1.6l-1.1 2.9c-.3.7-1 1-1.7.7l-20.4-7.4c-.7-.3-1-1-.8-1.6l2.5-6.8c1.6-4.5 4.2-5.9 8.3-4.4l.9.3c2.7 1 4.3 2.5 4 5.2 1.8-2.1 4.4-2.1 7-1.2l1.8.7c1.1.4 2 .5 2 .5.9.2 1.2 1 1 1.7m-17.8-1.6c-1.7-.6-2.7-.3-3.3 1.3l-.6 1.7 5.9 2.1.6-1.6c.6-1.7.3-2.6-1.5-3.2l-1.1-.3z"/><path id="XMLID_19_" class="st0" d="M62.4 63l-5.9 9c-.4.6-1.2.7-1.8.3L36.5 60.6c-.6-.4-.8-1.2-.4-1.8l5.7-8.8c.4-.6 1.2-.8 1.8-.4l1.9 1.2c.6.4.8 1.2.4 1.8l-3.3 5.1 3.8 2.5 2.7-4.2c.4-.6 1.2-.8 1.8-.4l1.9 1.2c.6.4.8 1.2.4 1.8l-2.7 4.2 4.3 2.8 3.5-5.4c.4-.6 1.2-.8 1.8-.4l2 1.3c.5.5.7 1.3.3 1.9"/><path id="XMLID_18_" class="st0" d="M76 48.1l-7.7 7.6c-.5.5-1.3.5-1.8 0L51.3 40.3c-.5-.5-.5-1.3 0-1.8l7.4-7.4c.5-.5 1.3-.5 1.8 0l1.6 1.6c.5.5.5 1.3 0 1.8l-4.3 4.3L61 42l3.6-3.5c.5-.5 1.3-.5 1.8 0l1.6 1.6c.5.5.5 1.3 0 1.8l-3.6 3.5 3.6 3.7 4.5-4.5c.5-.5 1.3-.5 1.8 0l1.7 1.7c.6.4.6 1.3 0 1.8"/><path id="XMLID_17_" class="st0" d="M95.3 34.8L91.7 37c-.6.4-1.2 0-1.8-.4l-11.3-9.8.1.1L86 39c.4.6.2 1.4-.4 1.8l-2.2 1.3c-.6.4-1.4.2-1.8-.5L70.3 23.1c-.4-.6-.2-1.4.4-1.8l3.8-2.3c.7-.4 1.3 0 1.8.4L87 28.6l-7-11.4c-.4-.6-.2-1.4.4-1.8l2.2-1.4c.6-.4 1.4-.2 1.8.4L95.7 33c.4.6.2 1.4-.4 1.8"/><path id="XMLID_16_" class="st0" d="M122 26.3c-4.8.9-7.8-.6-8.8-5.6-.1-.7.3-1.4 1-1.5l2.8-.5c.7-.1 1.3.4 1.5 1.1.3 1.5.9 2.5 2.9 2.2 1.3-.2 2-1.1 1.7-2.5l-.1-.8c-.3-1.7-2.2-2.3-5.3-2.9-3.8-.8-5.4-2.4-6.1-6.2-.8-4.7 1.3-7.1 5.8-7.8 4.6-.8 7.9.3 8.7 4.9.1.8-.3 1.3-1 1.5l-2.7.5c-.7.1-1.3-.3-1.5-1-.2-1.1-1-1.8-2.5-1.5-1.2.2-1.8.9-1.6 2.1l.1.7c.2 1.2 1.8 1.9 4.6 2.4 4.2.8 6.2 2.4 7 6.8 1 5-1.7 7.3-6.5 8.1"/><path id="XMLID_15_" class="st0" d="M147 24.5l-10.8-.3c-.7 0-1.3-.6-1.2-1.3l.5-21.7c0-.7.6-1.3 1.3-1.3l10.5.2c.7 0 1.3.6 1.3 1.3l-.1 2.2c0 .7-.6 1.3-1.3 1.3H141l-.1 4.6 5 .1c.7 0 1.3.6 1.3 1.3l-.1 2.3c0 .7-.6 1.3-1.3 1.3l-5-.1-.1 5.1 6.4.1c.7 0 1.3.6 1.3 1.3l-.1 2.4c0 .7-.6 1.3-1.3 1.2"/><path class="st0" d="M169.6 29.1l-3-.8c-.7-.2-1-.9-.9-1.6l.3-3.1-4.3-1.1-1.2 2.8c-.3.7-.9 1.1-1.6 1l-2.9-.8c-.7-.2-1.2-.9-.9-1.6L164.7 4c.3-.7.9-1.1 1.6-1l5.4 1.4c.7.2 1 .9.9 1.6l-1.3 22.1c-.2.8-1 1.2-1.7 1m-2.1-20.2l-4.1 9.5 3.1.8 1-10.3z"/><path id="XMLID_12_" class="st0" d="M187.6 37.5l-9.3-4.8c-.6-.3-.9-1.1-.5-1.7l9.9-19.3c.3-.6 1.1-.9 1.7-.6l2.8 1.4c.6.3.9 1.1.5 1.7l-8.3 16 5.4 2.8c.6.3.9 1.1.6 1.7l-1.1 2.1c-.3.8-1 1-1.7.7"/><path id="XMLID_11_" class="st0" d="M90.4 227.9c-6.3-2.8-5.8-7-3.3-12.6l2.1-4.5c2.5-5.5 5.5-8.4 11.6-5.7 5.2 2.3 6 5.2 3.7 10.3-.3.6-1 1-1.7.7l-2.7-1.2c-.7-.3-.9-1.1-.6-1.7.1-.2 1.5-2.7-.6-3.6-1.4-.6-2.5.1-3.3 1.9l-3.9 8.6c-.7 1.6-.6 2.9.8 3.6 2.2 1 3.5-2.7 3.5-2.7.3-.6 1-1 1.7-.7l2.8 1.3c.7.3.9 1.1.6 1.7-2.4 4.8-5.3 7-10.7 4.6"/><path id="XMLID_10_" class="st0" d="M122.4 236.8l-10.6-2c-.7-.1-1.1-.8-1-1.5l4.1-21.3c.1-.7.8-1.2 1.5-1.1l10.3 1.9c.7.1 1.2.8 1.1 1.5l-.4 2.2c-.1.7-.8 1.2-1.5 1l-6-1.1-.8 4.5 4.9.9c.7.1 1.2.8 1.1 1.5l-.4 2.2c-.1.7-.8 1.2-1.5 1l-4.9-.9-1 5.1 6.3 1.2c.7.1 1.2.8 1.1 1.5l-.4 2.3c-.5.8-1.2 1.2-1.9 1.1"/><path class="st0" d="M151.4 237.4l-3.1.1c-.7 0-1.2-.5-1.3-1.3 0 0-.3-.8-.3-2.1l-.1-2.1c-.1-2.6-1-3.8-2.8-3.7l-1.6.1.4 8.1c0 .7-.5 1.3-1.2 1.4l-3.1.1c-.7 0-1.3-.5-1.3-1.2l-1-21.7c0-.7.5-1.3 1.2-1.4l7.3-.3c4.8-.2 7 1.6 7.2 5.9l.1 1c.1 2.8-.7 4.9-3.2 5.7 2.6.8 3.7 3.2 3.8 6l.1 1.9c.1 1.1.3 2 .3 2 0 .8-.7 1.5-1.4 1.5m-5.3-17.1c-.1-1.8-.8-2.6-2.5-2.5l-1.8.1.3 6.2 1.7-.1c1.8-.1 2.5-.8 2.4-2.6l-.1-1.1z"/><path id="XMLID_7_" class="st0" d="M172.7 212.7l-3.3.9 5.1 17.5c.2.7-.2 1.4-.9 1.6l-3 .9c-.7.2-1.4-.2-1.6-.9l-5.1-17.5-3.3.9c-.7.2-1.4-.2-1.6-.9l-.6-2.2c-.2-.7.2-1.4.9-1.6l12-3.4c.7-.2 1.4.1 1.6.9l.6 2.1c.3.8-.1 1.5-.8 1.7"/><path id="XMLID_6_" class="st0" d="M195.1 223.8l-2.8 1.4c-.6.3-1.4.1-1.7-.6l-10-19.2c-.3-.6-.1-1.4.5-1.7l2.8-1.5c.6-.3 1.4-.1 1.7.6l10.1 19.3c.4.6.1 1.3-.6 1.7"/><path id="XMLID_5_" class="st0" d="M205.3 193.1l-4.6 3.7 3.1 3.9 3.6-2.9c.6-.4 1.4-.4 1.8.2l1.4 1.8c.5.6.4 1.4-.2 1.8l-3.6 2.9 5.3 6.6c.4.6.4 1.4-.2 1.8l-2.4 1.9c-.6.4-1.4.3-1.8-.2l-13.6-16.9c-.4-.6-.4-1.4.2-1.8l8-6.4c.6-.4 1.4-.4 1.8.2l1.4 1.7c.4.4.4 1.3-.2 1.7"/><path id="XMLID_4_" class="st0" d="M230.6 194.6l-2 2.4c-.5.6-1.3.6-1.8.1l-16.6-14c-.6-.5-.6-1.3-.2-1.8l2-2.4c.5-.6 1.3-.6 1.8-.1l16.6 14c.6.4.7 1.2.2 1.8"/><path id="XMLID_3_" class="st0" d="M245.7 171.4l-5.2 9.5c-.3.6-1.1.8-1.8.5l-19-10.4c-.6-.3-.9-1.1-.5-1.7l5-9.2c.3-.6 1.1-.9 1.7-.5l2 1.1c.6.3.9 1.1.5 1.8l-2.9 5.3 4 2.2 2.4-4.4c.3-.6 1.1-.9 1.7-.5l2 1.1c.6.4.9 1.1.5 1.8l-2.4 4.4 4.5 2.5 3.1-5.6c.3-.6 1.1-.9 1.7-.5l2.1 1.1c.7.1.9.9.6 1.5"/><path class="st0" d="M253.4 150.6l-1.6 6c-.2.7-.9 1.1-1.6.9l-20.9-5.7c-.7-.2-1.1-.9-.9-1.6l1.7-6.3c1.6-5.7 5.1-6.8 12.3-4.9l2.7.7c7.3 2.2 9.9 4.8 8.3 10.9m-14.5-6.5c-2.7-.7-4.1-.3-4.7 1.7l-.3 1.3 14.5 3.9.4-1.3c.6-2.2-.5-3.1-3.4-3.9l-6.5-1.7z"/></svg>