<svg version="1.1" id="layer" xmlns="http://www.w3.org/2000/svg" x="0" y="0" viewBox="0 0 255 250" xml:space="preserve"><style>.st0{fill:#fff}</style><path class="st0" d="M125.9 57.4c-19.6 0-35.5 15.9-35.5 35.5s15.9 35.5 35.5 35.5 35.5-15.9 35.5-35.5-15.9-35.5-35.5-35.5zm1.4 69c.9-2.8 3-4.4 2.6-8.6-3.6-1.2-4.9-4.5-7.6-6.6.1-3.1.4-4.6 2.6-6.6.2-1.9-1-2.4-1.5-3.5h-.3c-.7.2-.5 1.3-1.8 1-2.6-2.4-5.5-4.3-8.1-6.6-6.5 1.1-7.8-6.9-9.1-12.7-2.3.4 1.3 5.5-.5 5.1.1-2.2-1.8-4.2-.5-6.1-2.7-6.6 3.4-10.4 4.4-16.2-.1-.9-.8-1.2-2.1-1 1.4-2.2 4-3 6.6-4-.3 2.5 2.7 1.8 3.6 3 .4-.2.4-1.3 0-1.5.5-1.5 2.2.2 3.1 0 .3 1.2-.9.7-1 1.5.1 1.4 3.3-.6 1.6-1 1.2-1.8 1.4 1.6 2.6 1.5-.1-1-.3-1.7-1-2 2.8-4 9.6-3.3 13.7-.5-.2 1.7-1 2.6.5 4-3.3 1.5-6-4.5-10.2-5.4-1.2.5-1.3 2-3.6 1.5 2.3.8 4.9 1.1 6.6 2.5-.9 1-.9.4-.5 2.1-1.5.2-1.6-1.2-3.1-1 .7-.7.7-1.9-.5-2-1.9 2.9-3.6 1.5-6.1 4.5 1.5 1.6 4.1 2 5.1 4 .9-2.2 1.1-2.6 1-5.6 4.9 1.1 8.4 2.8 11.2 7.1h-2.6v-2c-1.2.8-3.3.8-4.5 1.5 1.4-.6 1.7 1.7 4 1.5-2.2 1.1-7.5 3.1-7.1 7.6-1.3.9-2.4 2-3.6 3.1.1 1.6 1.2 2.3 1 4-2.2.4-1.1-2.3-2.1-3.1-5.4-2.1-13.3 2.8-7.6 8.1 3.3.8 1.8-2.9 5.1-2.1-.8.9-.6 2.8-1.5 3.6.8 1 3.6.2 4 1.5-1.1 1.1-.4 3.4.5 4 .9 0 1.7.1 2.3 0h.2c1.9-.1 2.5-.7 4.5-2.6 4.6.4 9.7 2.3 14.2 3.6-.3 1.6.9 1.5.5 3.1 3.2.3 4.3-.3 7.1.5-3.3 10.9-10.6 17.9-22.1 20.8zm44.6-20.9c-.1-1.8-.6-3.9-.4-5.2.2-1.2 1.5-2.8 1.8-4.7.3-2.3 0-5.2 0-8.1 0-7.1.2-13.5 0-20.7-.1-2.2-.2-3-1.6-2.8-.1 0-.5 0-.5.1-3.2 3.8-4 8.8-4.3 16.4-.2 4-.4 7.9-.4 11.9 0 1.4-.3 3.1-.1 4 .3 1.6 1.7 2.3 1.9 3.8.3 1.9-.3 4.5-.4 6.9-.3 5.6-.8 11.6-1 17.2h6.2c-.2-6.5-.8-12.3-1.2-18.8zm-87.7 17c-.4-9.8-1.6-19.5-1.6-29.2.6-1.8 2.8-2.5 3.3-4.5.8-2.7-.1-7.2-.5-11-.3-2.8-.4-5.5-.8-7.9-.1-.8-.2-1.8-.8-2.1.1 4.1.4 8.2.5 12.4.1 1.4.4 3.4-.5 4-.9-4.4-.8-10.2-1.3-14.5-.1-.6.1-1.5-.5-1.9-.2 3.7 0 7.4 0 12.1 0 1.4.3 3.1-.3 4.3-.8-1.8-.4-4-.5-6.2-.1-2.7-.3-5.5-.3-8.1 0-.8.1-1.7-.5-2.1-.3 3.9-.3 8.8-.3 13 0 1.3.3 2.8-.5 3.4-.8-.9-.4-2.6-.5-3.8-.2-4.5-.3-9.4-.3-12.4-.1-.1-.2-.2-.3-.2-.7 3.6-.8 9.6-1.2 14.8-.1 1.9-.5 4.8 0 6.4.7 2 3.2 2.5 3.7 4.8.1.7.1 1.8 0 2.6-.2 5.8-1.3 12.4-1.8 18.5-.3 3-.3 5.8-.3 9.4h5.6c-.3-.7-.3-1.3-.3-1.8z"/><path class="st0" d="M120.1 77.9c-.1-.8.4-1.3 1-1.5.1.9.3 1.7 1 2.1.1-1.3 2-.8 2.1-2.1-1.3-.4-1 .9-2 .9.2-1.8-3.2-3.3-3.6-1.5 2.9-.6-.1 1.5 1.5 2.1zm2.9 23.2h.3-.3z"/><path class="st0" d="M58.4 104.3c0-37.8 30.8-68.7 68.7-68.7s68.7 30.8 68.7 68.7c0 6.9-1 13.7-3 20h36.5c1.3-6.5 1.9-13.1 1.9-20C231.2 46.9 184.5.2 127.1.2S23 46.9 23 104.3c0 6.8.7 13.5 1.9 20h36.5c-1.9-6.3-3-13-3-20zm160.9-19.9l-3.1.9-1.3-4.2-10.8 3.2-1-3.3 10.8-3.2-1.3-4.2 3.1-.9 3.6 11.7zm-9.5-24.6l-2.3 4.6-2.4 4.8 4.6-2.4 2.9-1.5 1.6 3.1-12.9 6.6-1.5-2.9 2.3-4.5c1-2 2.6-5 2.6-5s-2 1-4.8 2.5l-2.9 1.4-1.6-3.1 12.9-6.6 1.5 3zm-9-13.5l2 2.6-7.9 13.5-2.3-3 1.3-2.1-3.5-4.5-2.3.8-2.3-3 15-4.3zM190 35.2c2.7 2.5 3.1 5.4 1.1 7.6-1.3 1.5-2.9 1.9-4.7 1.4l-1.1 6.1-2.9-2.7 1.1-5.3-1.4-1.2-3.1 3.5-2.6-2.3 9.7-10.8 3.9 3.7zm-23.4-6.7l4.2-6.9 2.9 1.8-4.1 6.8c-1.3 2.2-1 3.5.6 4.5s3.1.6 4.3-1.5l4.1-6.8 3 1.9-4.2 6.9c-2.3 3.7-5.7 4.4-9 2.4-3.1-2-4-5.4-1.8-9.1zm-3.5-10.3l.1 15.6-3.5-1.3.1-2.5-5.3-2.1-1.6 1.8-3.5-1.4L160 17l3.1 1.2zM141.5 12l12 2.6-.7 3.2-4.3-1-2.4 11-3.4-.8 2.4-11-4.2-.9.6-3.1zm-10.9 7.3c-1.7-.8-3.7-1.9-3.5-4.4.2-2.3 2.6-4.2 5.6-4 2.8.1 4.8 2 5.4 4.3l-3.4.8c-.3-1.3-1.3-1.9-2.4-2.1-1.1-.1-1.7.4-1.7 1-.1.9 1.3 1.4 3.1 2.2 2.1.9 4.3 2.3 4.1 4.7-.2 2.6-2.6 4.4-5.9 4.2-3-.1-5.1-2-5.8-4.7l3.4-.7c.3 1.1 1.3 2.3 2.8 2.4 1.3 0 1.8-.5 1.9-1.2 0-1.2-1.6-1.6-3.6-2.5zm-7.7-8.3l.3 3.3-7 .7.3 2.4 5.5-.5.3 3-5.5.5.3 2.6 7.1-.8.3 3.3-10.6 1-1.4-14.4 10.4-1.1zm-21.4 3.7c3.5-1 6.1.4 7 3.2.6 1.9 0 3.5-1.4 4.7l4.5 4.3-3.8 1-3.9-3.8-1.7.5 1.3 4.5-3.3 1-3.9-14 5.2-1.4zM76.4 25.9l4.7 2L86 30s-1.3-2.2-2.7-4.4l-1.7-2.9 2.9-1.9 7.4 12.5-2.8 1.7-4.6-2c-2.1-.9-5.1-2.3-5.1-2.3s1.2 1.9 2.8 4.6l1.7 2.8-3 1.8-7.4-12.5 2.9-1.5zm-7.6 5.2l2.2 2.5-5.3 4.6 1.6 1.8 4.1-3.7 2 2.3-4.1 3.7 1.7 2 5.4-4.7 2.2 2.4-8 7.1L61 38.2l7.8-7.1zM56.9 42.2l2.5 2-4.4 5.5 1.8 1.5 3.5-4.3 2.4 1.9-3.5 4.3 2 1.7 4.5-5.6 2.5 2-6.7 8.3-11.3-9.1 6.7-8.2zm-4.5 35c-1-.3-1.3-.4-1.3-.4.6 1.1.7 2.8.2 4.2-1.3 3.9-5.3 6.2-9.5 4.8-4.1-1.3-6.1-5.5-4.8-9.5.9-2.7 3-4.6 5.7-5.1l-.2 3.6c-1 .4-1.9 1.4-2.2 2.5-.8 2.3.5 4.2 2.7 4.9 2.5.8 4.5-.3 5.2-2.7.7-2.2-.1-3.6-1-4.2L46.1 79l-2.6-.8 2.1-6.4 7.8 2.6-1 2.8zm3.7-8.5l-1.7 3.1-12.7-7 2.6-4.7c1.8-3.2 4.5-4.1 7.2-2.7 1.7 1 2.5 2.5 2.4 4.3l6.2-.3-1.9 3.4-5.4.1-.8 1.6 4.1 2.2z"/><path class="st0" d="M188.4 40.3c.5-.6.8-1.6-.1-2.5l-1.8-1.6-2.3 2.5 1.8 1.6c.9 1 1.8.5 2.4 0zm-28.5-16.5c0-.9.1-2.3.1-2.3s-.9 1-1.4 1.8l-2 2.3 3.3 1.3v-3.1zm37.2 28.3c.4-.8 1.3-1.8 1.3-1.8s-1.3.5-2.1.8l-2.9.9 2.1 2.8 1.6-2.7zm-93.4-31.2c1.2-.4 1.4-1.4 1.2-2.1-.2-.8-.9-1.5-2.2-1.2l-2.2.6.9 3.4 2.3-.7zM49.8 60.5c-.7-.4-1.8-.4-2.3.7l-1.1 2.1 3 1.6 1.2-2.1c.4-1.1-.1-2-.8-2.3zM75 174.1l-1.5-1.1-3.1 4.1 1.5 1.1c1 .8 2.5.8 3.5-.5.9-1.3.6-2.8-.4-3.6zm42.5 17l-1.6-.2-.3 2.3 1.6.2c.8.1 1.2-.4 1.3-1 .1-.5-.2-1.2-1-1.3zm54.3-5.9c1.4-.8 1.6-2.2.9-3.6s-2.1-1.8-3.5-1.1c-1.3.8-1.6 2.1-.9 3.6.8 1.4 2.2 1.9 3.5 1.1z"/><path class="st0" d="M127.1 173c-11.4 0-22.1-2.8-31.5-7.7H42.8c18.9 26.1 49.7 43.1 84.3 43.1s65.4-17 84.3-43.1h-52.8c-9.4 4.9-20.1 7.7-31.5 7.7zm-56.5 6.9l-3.3-2.5 5.6-7.4 3.3 2.5c2.2 1.6 2.7 4.4 1 6.7s-4.5 2.3-6.6.7zm6.1 4.2l4.9-7.9 1.9 1.2-4.9 7.9-1.9-1.2zm10.2 5.8l-.6-3.2c-.3-1.4-.6-3.6-.6-3.6s-.7 1.3-1.6 3.1l-.9 1.9-2-1 4.2-8.3 1.9.9.6 3.3c.2 1 .6 3.4.6 3.4s.8-1.5 1.5-3l.9-1.9 2 1-4.2 8.3-1.8-.9zm14-2.3l-4.3-1.6-.5 1.4 3.3 1.2-.7 1.9-3.3-1.2-.6 1.6 4.3 1.6-.7 1.9L92 192l3.2-8.7 6.4 2.3-.7 2zm5.1 6.9c1.4.4 2.3-.3 2.7-.9l-2.4-.6.4-1.8 4.2 1-1.3 5.1-1.8-.4c.2-.6.2-.8.2-.8-.7.4-1.8.6-2.7.4-2.6-.6-4.2-3.1-3.6-5.8s3.3-4.2 5.8-3.6c1.8.4 3.1 1.8 3.6 3.4l-2.3.1c-.3-.6-1-1.1-1.7-1.3-1.5-.4-2.7.5-3.1 2-.3 1.6.5 2.8 2 3.2zm14.8-1.9c-.2 1.3-.8 2.1-2 2.5l1.7 3.6-2.4-.3-1.4-3.2-1.2-.1-.3 3.1-2.3-.3 1.1-9.3 3.4.4c2.3.3 3.6 1.8 3.4 3.6zm9.3-.8l-4.5-.1-.1 1.6 3.6.1-.1 1.9-3.6-.1-.1 1.6 4.6.1-.1 2.1-6.9-.1.2-9.3 6.7.1.3 2.1zm3.2 7l-.9-9.3 6.7-.6.2 2.1-4.5.5.2 1.5 3.6-.4.2 1.9-3.6.4.2 1.6 4.6-.4.3 2.1-7 .6zm16.3-2.6l-2.4-2.1c-1.1-.9-2.7-2.4-2.7-2.4s.4 1.4.8 3.4l.4 2-2.2.5-2.1-9.1 2.1-.4 2.6 2.1c.8.6 2.6 2.3 2.6 2.3s-.4-1.6-.8-3.3l-.4-2.1 2.2-.5 2.1 9.1-2.2.5zm6-1.5c-.6.1-1.2-.1-1.4-.7-.1-.6.1-1.1.7-1.3.6-.1 1.1.1 1.3.7.3.5 0 1.1-.6 1.3zm19.9-20.4l3.1 1.2c1.2.5 1.4.6 1.4.6s-.1-.3-.1-1.6l-.3-3.3 1.6-1.3 5.6 7.5-1.8 1.3-1.4-1.9c-1.4-1.8-1.9-2.7-1.9-2.7s.1 1.5.2 1.6l.3 2.1-.9.7-2-.9c-.1-.1-1.5-.6-1.5-.6s.7.9 2.1 2.6l1.4 1.9-1.8 1.3-5.6-7.5 1.6-1zm-7.4 4.4c2.4-1.3 5.2-.6 6.6 1.9 1.4 2.4.5 5.3-1.9 6.6s-5.2.6-6.6-1.9c-1.3-2.4-.4-5.3 1.9-6.6zm-4.3 5.2l-1.8 1.4c-.6-.4-1.4-.4-2.1-.1-1.4.6-1.9 1.9-1.4 3.4.6 1.5 1.9 2.1 3.3 1.5.9-.4 1.4-1.1 1.6-1.8l2.4-.3c-.1 1.9-1.3 3.4-3.1 4.2-2.5 1-5.2-.1-6.3-2.6-1.1-2.6.1-5.3 2.6-6.3 1.6-.8 3.4-.4 4.8.6zm-74.3-47h-2.8v7.1h2.8v.1c2.9 0 4.5-.9 4.5-3.4 0-2.7-1.9-3.8-4.5-3.8z"/><path class="st0" d="M240.5 124.3h-226l7.6 20.5-7.6 20.5h226l-7.6-20.5 7.6-20.5zM52.8 150.4c-.3.7-2.8 6-10.5 6-2.3 0-4.5-.6-6.3-1.8-3.1-1.9-5.1-5.4-5.1-10.1v-.4c.2-7.4 5.4-11.3 11-11.3 3.6 0 5.5 1.6 6.4 2.9v-2.2c0-.3.2-.4.5-.4H52c.3 0 .5.1.5.4v7.6c0 .3-.2.4-.5.4h-3.7c-.3 0-.5-.1-.5-.4v-.3c0-1.4-2.1-3.8-5.6-3.8s-6.5 2.6-6.5 7.4c0 4.7 3.4 7.4 6.7 7.4 4.9 0 6.6-2.9 7.1-3.8.2-.3.4-.3.7-.1l2.5 1.6c.2.4.2.6.1.9zm22.6 5.3c0 .3-.2.4-.5.4H57.1v.1c-.3 0-.5-.1-.5-.4v-2.9c0-.3.2-.4.5-.4h2.2v-15.4h-2.2c-.3 0-.5-.1-.5-.4v-2.9c0-.3.2-.4.5-.4H75c.3 0 .5.1.5.4v6.5c0 .3-.2.4-.5.4h-3c-.3 0-.5-.1-.5-.4v-3.1h-7.7v5.8h6.4c.2 0 .4.2.4.4v3c0 .3-.2.4-.5.4h-6.3v5.7h7.7v-3.1c0-.3.2-.4.5-.4h3c.3 0 .5.1.5.4v.2c-.1-.2-.1 6.1-.1 6.1zm25.1.1c0 .3-.2.4-.4.4h-3.9v-.1c-1.1 0-1.8-.8-2.3-1.9l-2.6-5.2c-.3-.7-.8-1.4-1.9-1.4h-2.6v4.7h2.8c.3 0 .4.1.4.4v2.9c0 .3-.2.4-.4.4h-9.5c-.3 0-.4-.1-.4-.4v-2.9c0-.3.2-.4.4-.4h2.2v-15.4h-2.2c-.3 0-.4-.1-.4-.4v-3c0-.3.2-.4.4-.4h10.6c4.6 0 7.9 2.9 7.9 7.4 0 3.1-1.4 5.1-4 6.2.4.4.8.9 1.3 1.8l2.2 3.9h2.1c.3 0 .4.1.4.4l-.1 3zm23.1-15.2c0 .3-.2.5-.5.5h-3.2c-.3 0-.5-.2-.5-.5V137h-3.9v15.4h2.1c.3 0 .5.2.5.5v2.8c0 .3-.2.5-.5.5h-8.8c-.3 0-.5-.3-.5-.5v-2.8c0-.3.3-.5.5-.5h2.2V137h-4v3.6c0 .3-.2.5-.5.5h-3.2c-.3 0-.5-.2-.5-.5v-7c0-.3.2-.5.5-.5h19.9c.3 0 .5.2.5.5-.1 0-.1 7-.1 7zm13.9-4.1c0 .3-.2.4-.4.4h-2.3v15.4h2.3c.3 0 .4.1.4.4v2.9c0 .3-.2.4-.4.4h-8.9c-.3 0-.4-.1-.4-.4v-2.9c0-.3.2-.4.4-.4h2.2v-15.4h-2.2c-.3 0-.4-.1-.4-.4v-2.9c0-.3.2-.4.4-.4h8.9c.3 0 .4.1.4.4v2.9zm19.1 4c-.3 0-.4-.1-.4-.4V137h-7.4v5.8h6.1c.3 0 .4.1.4.4v2.9c0 .3-.1.4-.4.4h-6.1v5.7h3.9c.3 0 .4.1.4.4v2.9c0 .3-.2.4-.4.4h-10.6c-.3 0-.4-.1-.4-.4v-2.9c0-.3.2-.4.4-.4h2.2v-15.4h-2.2c-.3 0-.4-.1-.4-.4v-2.9c0-.3.2-.4.4-.4h17.6c.3 0 .4.1.4.4v6.5c0 .3-.1.4-.4.4l-3.1.1zm17.4 15.3c0 .3-.2.4-.4.4h-8.9c-.3 0-.4-.1-.4-.4v-2.9c0-.3.1-.4.4-.4h2.2v-15.4h-2.2c-.3 0-.4-.1-.4-.4v-2.9c0-.3.1-.4.4-.4h9c.3 0 .4.1.4.4v2.9c0 .3-.2.4-.4.4h-2.2v15.4h2.3c.3 0 .4.1.4.4v2.9h-.2zm22.9-15.8c0 .3-.1.4-.4.4h-3.1c-.3 0-.4-.1-.4-.4v-3.1h-7.7v5.8h6.3c.3 0 .4.1.4.4v2.9c0 .3-.2.4-.4.4h-6.3v5.7h7.6V149c0-.3.1-.4.4-.4h3.1c.3 0 .4.1.4.4v6.4c0 .3-.2.4-.4.4h-17.9v.1c-.3 0-.4-.1-.4-.4v-2.9c0-.3.1-.4.4-.4h2.2v-15.4h-2.2c-.3 0-.4-.1-.4-.4v-2.9c0-.3.1-.4.4-.4h17.9c.3 0 .4.1.4.4l.1 6.5zm22.2 13c-1.9 2-4.6 3.2-7.6 3.2h-10.2c-.3 0-.4-.1-.4-.4v-2.9c0-.3.1-.4.4-.4h2.3v-15.4h-2.3c-.3 0-.4-.1-.4-.4v-2.9c0-.3.1-.4.4-.4h8.9c6.5 0 11.8 4.2 11.8 11.7 0 1-.1 1.9-.3 2.7-.3 2-1.3 3.8-2.6 5.2z"/><path class="st0" d="M209.6 137H208v15.4h1.9c4.7-.1 7.4-2.1 7.4-7.4 0-5.3-2.7-8-7.7-8zm-139 6.2c0-.3-.1-.4-.4-.4.2.1.3.3.4.4zm4.4 5.6c.1.2.3.4.5.6v-.2c-.1-.2-.2-.4-.5-.4zm98.5-11.9c.3 0 .4-.1.4-.4v-2.9c0-.3-.1-.4-.4-.4h-.3c0 1.4-.1 2.8-.4 3.8l.7-.1zm0 19.3c.3 0 .4-.1.4-.4v-1.3c-.6.6-1.3 1.2-2 1.8h1.6v-.1zm-85.8 63.7c-8.3 0-15 6.7-15 15s6.7 15 15 15 15-6.7 15-15-6.7-15-15-15zm5.6 24.6l-5.5-5.9-5.5 5.9 2.3-7.7-7.9-1.9 7.8-1.9-2.3-7.7 5.5 5.9 5.5-5.9-2.3 7.7 7.9 1.9-7.9 1.9 2.4 7.7zm32.6-24.6c-8.3 0-15 6.7-15 15s6.7 15 15 15 15-6.7 15-15-6.7-15-15-15zm5.5 24.6l-5.5-5.9-5.5 5.9 2.3-7.7-7.8-1.9 7.8-1.9-2.3-7.7 5.5 5.9 5.5-5.9-2.3 7.7 7.9 1.9-7.9 1.9 2.3 7.7zm32.7-24.6c-8.3 0-15 6.7-15 15s6.7 15 15 15 15-6.7 15-15-6.7-15-15-15zm5.6 24.6l-5.5-5.9-5.5 5.9 2.4-7.7-7.9-1.9 7.9-1.9-2.4-7.7 5.5 5.9 5.5-5.9-2.4 7.7 7.8 1.9-7.8 1.9 2.4 7.7z"/></svg>