<svg version="1.1" id="Layer_1" xmlns="http://www.w3.org/2000/svg" x="0" y="0" viewBox="0 0 50 50" xml:space="preserve"><style>.st3,.st4{fill:none;stroke:#413f4c;stroke-miterlimit:10;stroke-width:1.5}.st4{stroke-linecap:round;stroke-linejoin:round}</style><circle cx="21.1" cy="30.7" r="11.5" fill="#9cbc65"/><path d="M5.9 46.8c0 1.1-.8 2-1.9 2-1 0-1.9-.9-1.9-2s.8-2 1.9-2c1.1 0 1.9.9 1.9 2zm39-43.6v4.5m-2.3-2.3h4.5" fill="none" stroke="#413f4c" stroke-miterlimit="10"/><path class="st4" d="M32.5 6.8s3 2.6-.8 5.1c-3.8 2.6 1 7 1 7m12.7 3.8c-1.6-.3-3.3-.2-4.9.3-2.1.7-1.7 3.2-1.7 4.6m9.3 2c-1.6 0-5-.2-5.8.1-.8.3-1.6.9-2.1 1.6-.5.8-.5 1.7-.5 2.6 0 .8 0 1.5.4 2.2.5.8 1.4 1.5 2.3 1.6.9.1 2.4.4 3.3.2"/><path class="st4" d="M45.8 15.9h-5.3s-5.1-.2-5.1 7.5c-2.3-.7-5.7 0-5.8 3.6-.1 2.4 2.8 4.7 5.2 4.3-1.3.1-2.6.3-3.7.9-1.1.6-2 1.8-1.9 3.1.1 1.1 1 2 1.9 2.4.6.3.6 1.2-.1 1.4-.8.2-1.5.6-1.8 1.6-.6 2 .5 4.3 2.3 5.4 1.8 1.1 5.3 1 7.4.5"/><path class="st4" d="M26.1 45.9c.9 1.5 2.7 3 6.2 3.1 10.6.4 23.7-21.7 11-37.1C33.5-.1 28 5.4 26 8.5"/><path class="st3" d="M17.8 6.8s-3 2.6.8 5.1c3.8 2.6-1 7-1 7M4.9 22.7c1.6-.3 3.3-.2 4.9.3 2.1.7 1.7 3.2 1.7 4.6m-9.3 2c1.6 0 5-.2 5.8.1.8.3 1.6.9 2.1 1.6.5.8.5 1.7.5 2.6 0 .8 0 1.5-.4 2.2-.4.9-1.3 1.6-2.2 1.7-1 .1-2.4.4-3.3.2"/><path class="st3" d="M4.5 15.9h5.3s5.1-.2 5.1 7.5c2.3-.7 5.7 0 5.8 3.6.1 2.4-2.8 4.7-5.2 4.3 1.3.1 2.6.3 3.7.9 1.1.6 2 1.8 1.9 3.1-.1 1.1-1 2-1.9 2.4-.6.3-.6 1.2.1 1.4.8.2 1.5.6 1.8 1.6.6 2-.5 4.3-2.3 5.4-1.8 1.1-5.3 1-7.4.5"/><path class="st3" d="M25.2 10.2v32.2s.1 6.3-7.2 6.6C7.5 49.4-5.6 27.3 7 11.9s18.2-1.8 18.2-1.7z"/></svg>