<svg version="1.1" id="Layer_1" xmlns="http://www.w3.org/2000/svg" x="0" y="0" viewBox="0 0 50 50" xml:space="preserve"><style>.st0{fill:#fff}</style><path class="st0" d="M35.1 0H14.9C6.7 0 0 6.7 0 14.9v20.2C0 43.3 6.7 50 14.9 50h20.2C43.3 50 50 43.3 50 35.1V14.9C50 6.7 43.3 0 35.1 0zM45 35.1c0 5.5-4.4 9.9-9.9 9.9H14.9C9.4 45 5 40.5 5 35.1V14.9C5 9.4 9.4 5 14.9 5h20.2c5.5 0 9.9 4.4 9.9 9.9v20.2z"/><path class="st0" d="M25 12.1c-7.1 0-12.9 5.8-12.9 12.9S17.9 37.9 25 37.9 37.9 32.1 37.9 25 32.1 12.1 25 12.1zm0 20.8c-4.4 0-7.9-3.5-7.9-7.9s3.5-7.9 7.9-7.9 7.9 3.5 7.9 7.9-3.5 7.9-7.9 7.9z"/><circle class="st0" cx="38" cy="12.2" r="3.1"/></svg>