<svg version="1.1" id="Layer_1" xmlns="http://www.w3.org/2000/svg" x="0" y="0" viewBox="0 0 50 50" xml:space="preserve"><style>.st1{fill:#413f4c}</style><circle cx="18.9" cy="15.5" r="10.3" fill="#9cbc65"/><path d="M46 42.6v5.3m-2.7-2.6h5.4M4.1 2.6v4.2M2 4.7h4.2" fill="none" stroke="#413f4c" stroke-miterlimit="10"/><path class="st1" d="M25.1 50c-.1 0-.3 0-.4-.1-.3-.1-6.6-2.8-12.9-7.7C3.4 35.7-.6 28.3.2 21c.7-6.6 4.4-11.3 10-12.6 5.4-1.2 11.1 1.1 14.8 6.1 3.7-5 9.4-7.4 14.8-6.1 5.6 1.3 9.3 6 10.1 12.6.8 7.3-3.2 14.7-11.6 21.2-6.2 4.9-12.6 7.6-12.9 7.7-.1 0-.2.1-.3.1zm-12-40c-.8 0-1.6.1-2.4.3-4.7 1.1-7.9 5.2-8.5 10.9C.6 36.2 22 46.5 25.1 47.9c3.1-1.4 24.6-11.7 22.9-26.7-.6-5.7-3.8-9.8-8.5-10.9-5-1.2-10.4 1.4-13.6 6.5-.2.3-.5.5-.8.5-.3 0-.7-.2-.8-.5-2.8-4.3-6.9-6.8-11.2-6.8z"/><path class="st1" d="M25 44.5c-.4 0-.7-.2-.9-.5-.2-.5 0-1.1.4-1.3 1.2-.6 2.4-1.2 3.6-1.9.5-.3 1.1-.1 1.4.4.3.5.1 1.1-.4 1.4-1.2.7-2.4 1.4-3.7 2-.1-.1-.2-.1-.4-.1zm8.2-4.9c-.3 0-.6-.1-.8-.4-.3-.4-.2-1.1.2-1.4 2.9-2.1 5.3-4.2 7-6.4.3-.4 1-.5 1.4-.2.4.3.5 1 .2 1.4-1.8 2.3-4.3 4.6-7.4 6.8-.2.2-.4.2-.6.2z"/></svg>