<svg xmlns="http://www.w3.org/2000/svg" viewBox="0 0 50 50"><path d="M50 25.7C50.4 11.5 38.8-.2 24.6 0 10.9.2-.1 11.5 0 25.2.1 35 5.8 43.5 14.1 47.5c.5.2 1-.1 1-.7-.1-1.6 0-3.3.3-4.7.3-1.4 1.6-6.6 2.4-10.1.4-1.7.5-3.4.1-5.1-.1-.6-.2-1.2-.2-1.9 0-3.7 2.1-6.4 4.8-6.4 2.3 0 3.4 1.7 3.4 3.7 0 2.3-1.5 5.7-2.2 8.9-.6 2.7 1.3 4.8 3.9 4.8 4.7 0 8.3-5 8.3-12.2 0-6.4-4.6-10.8-11.1-10.8-7.6 0-12 5.7-12 11.5 0 2.3.9 4.7 2 6.1.2.3.3.5.2.8-.2.8-.6 2.6-.7 3-.1.5-.4.6-.9.4C10.1 33.1 8 28.2 8 24.4 8 16 14.1 8.3 25.6 8.3c9.2 0 16.4 6.6 16.4 15.4 0 9.2-5.8 16.5-13.8 16.5-2.1 0-4.1-.9-5.3-2-.4-.4-1-.2-1.1.3-.4 1.6-1.1 4.2-1.3 5-.4 1.5-1.2 3.3-2 4.8-.2.4 0 .9.5 1 2 .5 4.2.8 6.4.8 12.9-.2 24.2-11.3 24.6-24.4z" fill="#fff"/></svg>