<svg version="1.1" id="Layer_1" xmlns="http://www.w3.org/2000/svg" x="0" y="0" viewBox="0 0 324 75" xml:space="preserve"><style>.st0{fill:#fff}.st1{fill:#9cbc65}</style><path class="st0" d="M10.1 44c-1.4 0-2.9-.2-4.7-.6-1.7-.4-3.1-1-4.2-1.7l1.1-2.5c1.4.7 2.8 1.3 4 1.7s2.5.6 3.9.6c2.4 0 4.3-.5 5.6-1.5 1.4-1 2-2.3 2-4 0-2.4-2.6-4.6-7.7-6.6-5.7-2.2-8.5-4.9-8.5-8.1 0-2.4.9-4.3 2.6-5.8 1.8-1.5 4.2-2.3 7.4-2.3 1.3 0 2.7.2 4.4.7s2.9 1 3.9 1.7l-1.2 2.1c-1.4-.7-2.6-1.2-3.6-1.5s-2.3-.5-3.8-.5c-2 0-3.6.5-4.9 1.6-1.2 1.1-1.9 2.3-1.9 3.8 0 1.2.6 2.3 1.9 3.3s3.1 1.9 5.4 2.8c2.7 1.1 4.9 2.3 6.5 3.7 1.6 1.4 2.4 3 2.4 4.9.1 5.5-3.5 8.2-10.6 8.2zm31.2-30.7c2.2 0 4.2.7 5.9 2s3 3.1 4 5.5c.9 2.3 1.4 5 1.4 7.9h-21c0 3.8.9 6.8 2.6 9.3 1.7 2.4 4.3 3.6 7.7 3.6 1.9 0 3.5-.2 4.8-.5 1.3-.4 2.5-.9 3.8-1.5l1.2 2.2c-1.1.7-2.6 1.2-4.5 1.7-1.9.4-3.5.6-4.8.6-4.6 0-8.1-1.4-10.4-4.2s-3.5-6.6-3.5-11.3c0-4.6 1.1-8.2 3.3-11 2.2-2.9 5.4-4.3 9.5-4.3zm-.4 2.5c-2.7 0-4.9 1-6.4 3s-2.5 4.6-2.7 7.7h17.7c-.3-3.2-1.2-5.7-2.5-7.7s-3.4-3-6.1-3zm32.2-2.5c2.2 0 4.2.7 5.9 2 1.7 1.3 3.1 3.1 4 5.5.9 2.3 1.4 5 1.4 7.9h-21c0 3.8.9 6.8 2.6 9.3s4.3 3.6 7.7 3.6c1.9 0 3.5-.2 4.8-.5 1.3-.4 2.5-.9 3.8-1.5l1.2 2.2c-1.1.7-2.6 1.2-4.5 1.7-1.9.4-3.5.6-4.8.6-4.6 0-8.1-1.4-10.4-4.2-2.3-2.8-3.5-6.6-3.5-11.3 0-4.6 1.1-8.2 3.3-11s5.4-4.3 9.5-4.3zm-.4 2.5c-2.7 0-4.9 1-6.4 3s-2.5 4.6-2.7 7.7h17.7c-.3-3.2-1.2-5.7-2.5-7.7-1.4-2-3.4-3-6.1-3zm43.1 27.5h-1.6l-1.1-2.6c-2.4 2.2-5.2 3.4-8.3 3.4-4.2 0-7.3-1.4-9.4-4.2s-3.2-6.6-3.2-11.3c0-4.5 1.1-8.2 3.4-11s5.4-4.2 9.6-4.2c1.3 0 2.6.3 3.9.8s2.6 1.2 3.7 2V1.4l2.9-.5.1 42.4zm-3-5.6V19.1c-2.4-2.2-5-3.3-7.8-3.3-2.1 0-3.8.6-5.3 1.7s-2.6 2.7-3.3 4.6-1.1 4.1-1.1 6.4c0 3.8.8 6.9 2.4 9.4s4 3.7 7.1 3.7c1.8 0 3.2-.3 4.4-1s2.4-1.7 3.6-2.9z"/><path class="st1" d="M177.5 41.6l-1.5 1.6-5.8-5.3c-1.4 1.9-3.1 3.4-5.2 4.4-2.1 1.1-4.3 1.6-6.8 1.6-2.6 0-5.1-.5-7.2-1.6s-3.9-2.5-5.1-4.4c-1.2-1.9-1.9-4.2-1.9-6.8s.6-4.9 1.7-7.1c1.2-2.1 2.7-3.9 4.8-5.2-1.5-2.2-2.2-4.6-2.2-7.1 0-1.9.4-3.6 1.3-5.2s2.1-2.9 3.7-3.8 3.3-1.4 5.2-1.4c1.8 0 3.5.2 5.1.7s2.9 1 4 1.6l-1.2 2.1c-1.5-.7-2.7-1.2-3.6-1.5-.9-.3-2.1-.5-3.8-.5-1.5 0-2.8.4-4 1.1s-2.1 1.7-2.8 2.8c-.7 1.2-1 2.5-1 3.8 0 2 .5 3.9 1.6 5.7 1.1 1.7 2.7 3.7 5 5.8L169.7 34c1-1.7 1.8-3.5 2.3-5.6.5-2 .8-4 .8-5.8l2.2.7c0 2.2-.3 4.4-.9 6.5-.6 2.2-1.4 4.1-2.5 6l5.9 5.8zm-19.1 0c2 0 3.8-.5 5.5-1.4 1.7-1 3.1-2.3 4.4-3.9l-12.7-11.6c-1.6-1.4-2.8-2.7-3.6-3.7-1.7 1.2-2.9 2.7-3.8 4.4s-1.3 3.6-1.3 5.7c0 2 .6 3.9 1.6 5.5 1.1 1.6 2.5 2.8 4.3 3.7 1.7.8 3.6 1.3 5.6 1.3z"/><path class="st0" d="M211.6 44c-1.4 0-2.9-.2-4.6-.6-1.7-.4-3.1-1-4.2-1.7l1.1-2.5c1.4.7 2.8 1.3 4 1.7s2.5.6 3.9.6c2.4 0 4.3-.5 5.6-1.5 1.4-1 2-2.3 2-4 0-2.4-2.6-4.6-7.7-6.6-5.6-2.2-8.5-4.9-8.5-8.1 0-2.4.9-4.3 2.6-5.8 1.8-1.5 4.2-2.3 7.4-2.3 1.3 0 2.7.2 4.4.7 1.6.5 2.9 1 3.9 1.7l-1.2 2.1c-1.4-.7-2.6-1.2-3.6-1.5s-2.3-.5-3.8-.5c-2 0-3.6.5-4.9 1.6-1.3 1.1-1.9 2.3-1.9 3.8 0 1.2.6 2.3 1.9 3.3s3.1 1.9 5.4 2.8c2.7 1.1 4.9 2.3 6.5 3.7s2.4 3 2.4 4.9c0 5.5-3.6 8.2-10.7 8.2zm24.5-29h5.3l1.3 2.2h-6.6v18.6c0 1.6.3 3 1 4 .7 1.1 1.7 1.7 3.1 1.7.8 0 1.6-.2 2.5-.5l.7 2.3c-.1 0-.7.1-1.6.4-.8.2-1.6.3-2.3.3-1.9 0-3.4-.7-4.6-2s-1.7-3.3-1.7-5.7v-19h-4.3V15h4.3V7.2l2.9-1.3V15zm27.3-1.7c2.2 0 4.2.7 5.9 2 1.7 1.3 3 3.1 4 5.5.9 2.3 1.4 5 1.4 7.9h-21c0 3.8.9 6.8 2.6 9.3 1.7 2.4 4.3 3.6 7.7 3.6 1.9 0 3.5-.2 4.8-.5 1.3-.4 2.5-.9 3.8-1.5l1.2 2.2c-1.1.7-2.6 1.2-4.5 1.7-1.9.4-3.5.6-4.8.6-4.6 0-8.1-1.4-10.4-4.2s-3.4-6.6-3.4-11.3c0-4.6 1.1-8.2 3.3-11 2.1-2.9 5.2-4.3 9.4-4.3zm-.5 2.5c-2.7 0-4.9 1-6.4 3s-2.4 4.6-2.7 7.7h17.7c-.3-3.2-1.2-5.7-2.5-7.7-1.4-2-3.4-3-6.1-3zm59.8 7.2v20.2h-2.9V23c0-2.3-.3-4.1-1-5.4-.7-1.2-2-1.9-3.8-1.9-2.8 0-6 1.8-9.7 5.4 0 .4.1 1 .1 1.8v20.2h-2.9V23c0-2.3-.3-4.1-1-5.4-.7-1.2-2-1.9-3.8-1.9-1.5 0-3.1.5-4.9 1.6-1.7 1.1-3.5 2.5-5.3 4.3v21.6h-2.9V14.1h2.3l.6 4.6c1.2-1.4 2.8-2.7 4.8-3.8s3.7-1.6 5.2-1.6c3.9 0 6.4 1.8 7.5 5.3 1.2-1.4 2.8-2.7 4.8-3.7 1.9-1 3.7-1.6 5.2-1.6 2.8 0 4.8.9 6.1 2.6 1 1.7 1.6 4.1 1.6 7.1z"/><path class="st1" d="M164.3 8.1c-1.2-1.4-3.6-2.4-6.8-1.2-1.7.7-2.9 2-3.4 3.6-.6 1.8-.1 3.9 1.2 5.8 2.5 3.5 9 8.9 9.3 9.2.2.2.4.2.7.2.1 0 .3 0 .4-.1.4-.2.6-.5.6-.9.2-2.3.4-13.9-2-16.6zm-7.1 7c-1-1.4-1.3-2.8-.9-3.9.3-1 1.1-1.8 2.1-2.2.8-.3 1.4-.4 2-.4 1.4 0 2.2.7 2.4 1 1 1.2 1.5 6.3 1.6 11l-2.9-5.9 2.1 7.1c-2.1-2-5-4.8-6.4-6.7z"/><path class="st0" d="M73.5 69.4c0-.9.2-1.6.5-2.3.3-.7.8-1.2 1.4-1.6s1.3-.6 2-.6 1.4.2 2 .6 1.1.9 1.4 1.6.5 1.4.5 2.3-.2 1.6-.5 2.3c-.3.7-.8 1.2-1.4 1.6s-1.3.6-2 .6-1.4-.2-2-.6-1-.9-1.4-1.6c-.3-.7-.5-1.5-.5-2.3zm4-3.9c-.6 0-1.2.2-1.6.5-.5.3-.9.8-1.1 1.4s-.4 1.3-.4 2 .1 1.4.4 2 .6 1 1.1 1.4 1 .5 1.6.5 1.2-.2 1.7-.5.9-.8 1.1-1.4.4-1.3.4-2-.1-1.4-.4-2-.6-1-1.1-1.4c-.6-.4-1.1-.5-1.7-.5zm8.2 8.1V65h2.1c1 0 1.7.2 2.3.6s.8 1 .8 1.9c0 .6-.2 1-.4 1.4s-.7.7-1.1.8l2.2 3.9h-.8l-2.1-3.7c-.3.1-.7.1-1.1.1h-1.3v3.6h-.6zm4.5-6.1c0-1.3-.8-1.9-2.4-1.9h-1.5v3.8h1.3c.7 0 1.3-.2 1.8-.5s.8-.7.8-1.4zm10.4 2.3h-1.9l.1-.5h2.6v3.9c-.2.2-.6.3-1 .4s-.8.2-1.2.2c-.8 0-1.6-.2-2.2-.6s-1.1-.9-1.5-1.6-.5-1.4-.5-2.3.2-1.7.6-2.3c.4-.7.9-1.2 1.6-1.6s1.4-.6 2.2-.6c.3 0 .7 0 1.1.1s.8.2 1 .3l-.2.5c-.3-.1-.6-.2-.8-.3s-.6-.1-1-.1c-.7 0-1.3.2-1.8.5-.6.3-1 .8-1.3 1.4s-.5 1.3-.5 2.1c0 .7.2 1.4.4 2 .3.6.7 1 1.2 1.3s1.1.5 1.8.5c.5 0 1-.1 1.5-.3l-.2-3zm4.1 3.8l3.1-8.6h.7l3.3 8.5-.7.1-1-2.7h-3.7l-1 2.6-.7.1zm1.8-3.2h3.3l-1.7-4.5-1.6 4.5zm9.8-3.9v7.2h-.7v-8.6h.4l4.4 6.3.4.7V65h.7v8.6h-.4l-4.7-6.8-.1-.3zm11-1.4v8.6h-.7v-8.6h.7zm8.3-.2c.3 0 .7 0 1.1.1.4.1.8.2 1 .3l-.3.5c-.3-.1-.6-.2-.8-.3-.2-.1-.6-.1-1-.1-.6 0-1.1.2-1.6.5s-.9.8-1.1 1.4-.4 1.3-.4 2 .1 1.3.4 1.9c.2.6.6 1 1.1 1.4s1 .5 1.6.5c.4 0 .8 0 1.1-.1s.6-.2.8-.3l.3.5c-.2.1-.6.2-1 .3-.4.1-.8.1-1.2.1-.8 0-1.6-.2-2.1-.6s-1-.9-1.3-1.6-.4-1.4-.4-2.2c0-.8.2-1.6.5-2.3.3-.7.8-1.2 1.4-1.6.4-.2 1.1-.4 1.9-.4zm15 0c.3 0 .7 0 1.1.1.4.1.8.2 1 .3l-.3.5c-.3-.1-.6-.2-.8-.3-.2-.1-.6-.1-1-.1-.6 0-1.1.2-1.6.5s-.9.8-1.1 1.4-.4 1.3-.4 2 .1 1.3.4 1.9c.2.6.6 1 1.1 1.4s1 .5 1.6.5c.4 0 .8 0 1.1-.1s.6-.2.8-.3l.3.5c-.2.1-.6.2-1 .3-.4.1-.8.1-1.2.1-.8 0-1.6-.2-2.1-.6s-1-.9-1.3-1.6-.4-1.4-.4-2.2c0-.8.2-1.6.5-2.3s.8-1.2 1.4-1.6c.4-.2 1.1-.4 1.9-.4zm5.1 8.7l3.1-8.6h.7l3.3 8.5-.7.1-1-2.7h-3.7l-1 2.6-.7.1zm1.8-3.2h3.3l-1.7-4.5-1.6 4.5zm8-5.3h6.5l.1.6h-2.9v8h-.7v-8h-2.9l-.1-.6zm15.2 8l.1.6H176v-8.6h4.7l.1.5h-4.1V69h3l.1.5h-3.1v3.6h4zm4.1.5V65h2.1c1 0 1.7.2 2.3.6s.8 1 .8 1.9c0 .6-.1 1-.4 1.4s-.6.7-1.1.8l2.2 3.9h-.8l-2.1-3.7c-.4.1-.7.1-1.1.1h-1.3v3.6h-.6zm4.5-6.1c0-1.3-.8-1.9-2.4-1.9h-1.5v3.8h1.3c.7 0 1.3-.2 1.8-.5s.8-.7.8-1.4zm6-2.4v8.6h-.7v-8.6h.7zm5.7 1.4v7.2h-.7v-8.6h.4l4.4 6.3.4.7V65h.7v8.6h-.4l-4.7-6.8-.1-.3zm15.4 3.3h-1.9l.1-.5h2.6v3.9c-.2.2-.6.3-1 .4s-.8.2-1.2.2c-.9 0-1.6-.2-2.2-.6s-1.1-.9-1.5-1.6-.5-1.4-.5-2.3.2-1.7.6-2.3c.4-.7.9-1.2 1.6-1.6.7-.4 1.4-.6 2.2-.6.3 0 .7 0 1.1.1.4.1.8.2 1 .3l-.2.5c-.3-.1-.6-.2-.8-.3s-.6-.1-1-.1c-.7 0-1.3.2-1.8.5-.6.3-1 .8-1.3 1.4s-.5 1.3-.5 2.1c0 .7.1 1.4.4 2 .3.6.7 1 1.2 1.3s1.1.5 1.8.5c.5 0 1-.1 1.5-.3l-.2-3zm14-4.9c.3 0 .7 0 1.1.1.4.1.8.2 1 .3l-.3.5c-.3-.1-.6-.2-.8-.3-.2-.1-.6-.1-1-.1-.6 0-1.1.2-1.6.5s-.9.8-1.1 1.4-.4 1.3-.4 2 .1 1.3.4 1.9c.2.6.6 1 1.1 1.4s1 .5 1.6.5c.4 0 .8 0 1.1-.1s.6-.2.8-.3l.3.5c-.2.1-.6.2-1 .3-.4.1-.8.1-1.2.1-.8 0-1.6-.2-2.1-.6s-1-.9-1.3-1.6-.4-1.4-.4-2.2c0-.8.2-1.6.5-2.3.3-.7.8-1.2 1.4-1.6.4-.2 1.1-.4 1.9-.4zm5.6 4.5c0-.9.2-1.6.5-2.3.3-.7.8-1.2 1.4-1.6.6-.4 1.3-.6 2-.6s1.4.2 2 .6 1.1.9 1.4 1.6.5 1.4.5 2.3-.2 1.6-.5 2.3-.8 1.2-1.4 1.6-1.3.6-2 .6-1.4-.2-2-.6-1-.9-1.4-1.6c-.4-.7-.5-1.5-.5-2.3zm3.9-3.9c-.6 0-1.1.2-1.6.5s-.9.8-1.1 1.4-.4 1.3-.4 2 .1 1.4.4 2c.3.6.6 1 1.1 1.4s1 .5 1.6.5 1.2-.2 1.6-.5c.5-.3.9-.8 1.1-1.4s.4-1.3.4-2-.1-1.4-.4-2c-.3-.6-.6-1-1.1-1.4s-1-.5-1.6-.5zm8.4 7.6c0 .2-.1.3-.2.4-.1.1-.2.2-.4.2s-.3-.1-.4-.2-.1-.2-.1-.4c0-.1.1-.3.2-.4.1-.1.2-.2.4-.2.1 0 .3.1.4.2s.1.3.1.4zm8.4-3.3h20.5v.5h-20.5zm-211.6 0h20.5v.5H45.1z"/></svg>