<svg xmlns="http://www.w3.org/2000/svg" viewBox="0 0 50 50"><circle cx="25.7" cy="25" r="10.3" fill="#9cbc65"/><path d="M49.6 16.9c-.2-.2-.4-.2-.6-.2-.6.1-13.6 1.6-21.2 10.9-.9 1.1-1.7 2.4-2.5 3.7-.8-1.7-1.8-3.4-3.1-5C14.6 17.2 1.5 15.6 1 15.5c-.2 0-.4.1-.6.2-.2.2-.3.3-.3.6-.1.5-1.1 13.6 6.4 22.8S27.1 49.9 27.7 50h.3c.1 0 .2 0 .2-.1 4.6-1.4 11-4.2 15.4-9.6C51.1 31.1 50 18 50 17.4c-.2-.1-.3-.3-.4-.5zM7.8 38.1c-6-7.4-6.1-17.7-6.1-20.8 3 .5 13.1 2.7 19.2 10.1 5.3 6.5 6 15.4 6.1 19.5L9.5 25.5c-.3-.3-.8-.4-1.2-.1-.3.3-.3.8-.1 1.1l17.5 21.4c-4-.8-12.6-3.3-17.9-9.8zm34.4 1.2c-3.9 4.7-9.3 7.3-13.5 8.7.1-.9.1-2.3-.1-4l13.2-16.2c.3-.3.2-.9-.1-1.2-.3-.3-.9-.2-1.2.1l-12.2 15c-.3-2.5-.9-5.4-2.1-8.4.8-1.7 1.8-3.3 2.9-4.6 6-7.4 16.1-9.6 19.2-10.1 0 3-.1 13.4-6.1 20.7z" fill="#413f4c"/><path d="M34.9 18c0 1-.8 1.8-1.7 1.8-.9 0-1.7-.8-1.7-1.8s.8-1.8 1.7-1.8c.9 0 1.7.8 1.7 1.8zM4.4 42.6v4.2m-2.1-2.1h4.2m8.9-39.3v5.3m-2.6-2.6h5.3" fill="none" stroke="#413f4c" stroke-miterlimit="10"/></svg>