<svg xmlns="http://www.w3.org/2000/svg" viewBox="0 0 60.1 50"><path d="M59.2 5.8c-1.3.6-2.7 1.1-4.1 1.4 1.6-1.5 2.8-3.3 3.4-5.4.2-.6-.5-1.1-1-.8-2 1.2-4.1 2-6.3 2.6h-.4c-.4 0-.8-.2-1.1-.4C47.2 1.1 44.2 0 41 0c-1.4 0-2.8.2-4.1.6-4.2 1.3-7.4 4.8-8.5 9.1-.4 1.6-.5 3.2-.3 4.8 0 .2-.1.3-.1.4-.1.1-.2.2-.4.2-9.2-1-17.5-5.4-23.3-12.6-.3-.4-.9-.3-1.1.1-1.2 2-1.8 4.2-1.8 6.5 0 3.5 1.4 6.8 3.9 9.2-1-.2-2-.6-3-1.1-.5-.3-1 .1-1 .6-.1 5.2 3 9.9 7.6 11.9h-.3c-.7 0-1.5-.1-2.2-.2-.5-.1-.9.4-.8.9 1.5 4.6 5.5 8.1 10.3 8.8-4 2.7-8.6 4.1-13.4 4.1H1c-.5 0-.9.3-1 .8-.1.4.1.9.5 1.1C5.9 48.3 12.1 50 18.4 50c5.5 0 10.6-1.1 15.3-3.2 4.3-2 8-4.8 11.2-8.4 2.9-3.3 5.3-7.2 6.8-11.5 1.5-4.1 2.3-8.4 2.3-12.5v-.2c0-.7.3-1.3.8-1.7 2-1.6 3.7-3.5 5.2-5.7.4-.5-.2-1.3-.8-1z" fill="#fff"/></svg>