<?xml version="1.0" encoding="utf-8"?>
<!-- Generator: Adobe Illustrator 23.0.1, SVG Export Plug-In . SVG Version: 6.00 Build 0)  -->
<svg version="1.1" id="Layer_1" xmlns="http://www.w3.org/2000/svg" xmlns:xlink="http://www.w3.org/1999/xlink" x="0px" y="0px"
	 viewBox="0 0 60.1 50" style="enable-background:new 0 0 60.1 50;" xml:space="preserve">
<style type="text/css">
	.st0{fill:#FFFFFF;}
</style>
<path class="st0" d="M59.2,5.8c-1.3,0.6-2.7,1.1-4.1,1.4c1.6-1.5,2.8-3.3,3.4-5.4l0,0c0.2-0.6-0.5-1.1-1-0.8l0,0
	c-2,1.2-4.1,2-6.3,2.6c-0.1,0-0.3,0-0.4,0c-0.4,0-0.8-0.2-1.1-0.4C47.2,1.1,44.2,0,41,0c-1.4,0-2.8,0.2-4.1,0.6
	c-4.2,1.3-7.4,4.8-8.5,9.1c-0.4,1.6-0.5,3.2-0.3,4.8c0,0.2-0.1,0.3-0.1,0.4c-0.1,0.1-0.2,0.2-0.4,0.2c0,0,0,0,0,0
	C18.4,14.1,10.1,9.7,4.3,2.5l0,0C4,2.1,3.4,2.2,3.2,2.6l0,0C2,4.6,1.4,6.8,1.4,9.1c0,3.5,1.4,6.8,3.9,9.2c-1-0.2-2-0.6-3-1.1l0,0
	c-0.5-0.3-1,0.1-1,0.6l0,0c-0.1,5.2,3,9.9,7.6,11.9c-0.1,0-0.2,0-0.3,0c-0.7,0-1.5-0.1-2.2-0.2l0,0c-0.5-0.1-0.9,0.4-0.8,0.9l0,0
	c1.5,4.6,5.5,8.1,10.3,8.8c-4,2.7-8.6,4.1-13.4,4.1H1c-0.5,0-0.9,0.3-1,0.8c-0.1,0.4,0.1,0.9,0.5,1.1C5.9,48.3,12.1,50,18.4,50
	c5.5,0,10.6-1.1,15.3-3.2c4.3-2,8-4.8,11.2-8.4c2.9-3.3,5.3-7.2,6.8-11.5c1.5-4.1,2.3-8.4,2.3-12.5v-0.2c0-0.7,0.3-1.3,0.8-1.7
	c2-1.6,3.7-3.5,5.2-5.7l0,0C60.4,6.3,59.8,5.5,59.2,5.8L59.2,5.8z"/>
</svg>
