<?xml version="1.0" encoding="utf-8"?><svg width="550" height="313" viewBox="0 0 550 313" xmlns="http://www.w3.org/2000/svg" xmlns:xlink="http://www.w3.org/1999/xlink"><svg version="1.1" id="SS-LogoWhite" viewBox="0 0 324 75" xml:space="preserve" width="324" height="75" xmlns="http://www.w3.org/2000/svg"><style>.ast0{fill:#9cbc65}</style><path class="ast0" d="M10.1 44c-1.4 0-2.9-.2-4.7-.6-1.7-.4-3.1-1-4.2-1.7l1.1-2.5c1.4.7 2.8 1.3 4 1.7s2.5.6 3.9.6c2.4 0 4.3-.5 5.6-1.5 1.4-1 2-2.3 2-4 0-2.4-2.6-4.6-7.7-6.6-5.7-2.2-8.5-4.9-8.5-8.1 0-2.4.9-4.3 2.6-5.8 1.8-1.5 4.2-2.3 7.4-2.3 1.3 0 2.7.2 4.4.7s2.9 1 3.9 1.7l-1.2 2.1c-1.4-.7-2.6-1.2-3.6-1.5s-2.3-.5-3.8-.5c-2 0-3.6.5-4.9 1.6-1.2 1.1-1.9 2.3-1.9 3.8 0 1.2.6 2.3 1.9 3.3s3.1 1.9 5.4 2.8c2.7 1.1 4.9 2.3 6.5 3.7 1.6 1.4 2.4 3 2.4 4.9.1 5.5-3.5 8.2-10.6 8.2zM41.3 13.3c2.2 0 4.2.7 5.9 2s3 3.1 4 5.5c.9 2.3 1.4 5 1.4 7.9h-21c0 3.8.9 6.8 2.6 9.3 1.7 2.4 4.3 3.6 7.7 3.6 1.9 0 3.5-.2 4.8-.5 1.3-.4 2.5-.9 3.8-1.5l1.2 2.2c-1.1.7-2.6 1.2-4.5 1.7-1.9.4-3.5.6-4.8.6-4.6 0-8.1-1.4-10.4-4.2s-3.5-6.6-3.5-11.3c0-4.6 1.1-8.2 3.3-11 2.2-2.9 5.4-4.3 9.5-4.3zm-.4 2.5c-2.7 0-4.9 1-6.4 3s-2.5 4.6-2.7 7.7h17.7c-.3-3.2-1.2-5.7-2.5-7.7s-3.4-3-6.1-3zM73.1 13.3c2.2 0 4.2.7 5.9 2 1.7 1.3 3.1 3.1 4 5.5.9 2.3 1.4 5 1.4 7.9h-21c0 3.8.9 6.8 2.6 9.3s4.3 3.6 7.7 3.6c1.9 0 3.5-.2 4.8-.5 1.3-.4 2.5-.9 3.8-1.5l1.2 2.2c-1.1.7-2.6 1.2-4.5 1.7-1.9.4-3.5.6-4.8.6-4.6 0-8.1-1.4-10.4-4.2-2.3-2.8-3.5-6.6-3.5-11.3 0-4.6 1.1-8.2 3.3-11s5.4-4.3 9.5-4.3zm-.4 2.5c-2.7 0-4.9 1-6.4 3s-2.5 4.6-2.7 7.7h17.7c-.3-3.2-1.2-5.7-2.5-7.7-1.4-2-3.4-3-6.1-3zM115.8 43.3h-1.6l-1.1-2.6c-2.4 2.2-5.2 3.4-8.3 3.4-4.2 0-7.3-1.4-9.4-4.2s-3.2-6.6-3.2-11.3c0-4.5 1.1-8.2 3.4-11s5.4-4.2 9.6-4.2c1.3 0 2.6.3 3.9.8s2.6 1.2 3.7 2V1.4l2.9-.5.1 42.4zm-3-5.6V19.1c-2.4-2.2-5-3.3-7.8-3.3-2.1 0-3.8.6-5.3 1.7s-2.6 2.7-3.3 4.6-1.1 4.1-1.1 6.4c0 3.8.8 6.9 2.4 9.4s4 3.7 7.1 3.7c1.8 0 3.2-.3 4.4-1s2.4-1.7 3.6-2.9zM177.5 41.6l-1.5 1.6-5.8-5.3c-1.4 1.9-3.1 3.4-5.2 4.4-2.1 1.1-4.3 1.6-6.8 1.6-2.6 0-5.1-.5-7.2-1.6s-3.9-2.5-5.1-4.4c-1.2-1.9-1.9-4.2-1.9-6.8s.6-4.9 1.7-7.1c1.2-2.1 2.7-3.9 4.8-5.2-1.5-2.2-2.2-4.6-2.2-7.1 0-1.9.4-3.6 1.3-5.2s2.1-2.9 3.7-3.8 3.3-1.4 5.2-1.4c1.8 0 3.5.2 5.1.7s2.9 1 4 1.6l-1.2 2.1c-1.5-.7-2.7-1.2-3.6-1.5-.9-.3-2.1-.5-3.8-.5-1.5 0-2.8.4-4 1.1s-2.1 1.7-2.8 2.8c-.7 1.2-1 2.5-1 3.8 0 2 .5 3.9 1.6 5.7 1.1 1.7 2.7 3.7 5 5.8L169.7 34c1-1.7 1.8-3.5 2.3-5.6.5-2 .8-4 .8-5.8l2.2.7c0 2.2-.3 4.4-.9 6.5-.6 2.2-1.4 4.1-2.5 6l5.9 5.8zm-19.1 0c2 0 3.8-.5 5.5-1.4 1.7-1 3.1-2.3 4.4-3.9l-12.7-11.6c-1.6-1.4-2.8-2.7-3.6-3.7-1.7 1.2-2.9 2.7-3.8 4.4s-1.3 3.6-1.3 5.7c0 2 .6 3.9 1.6 5.5 1.1 1.6 2.5 2.8 4.3 3.7 1.7.8 3.6 1.3 5.6 1.3zM211.6 44c-1.4 0-2.9-.2-4.6-.6-1.7-.4-3.1-1-4.2-1.7l1.1-2.5c1.4.7 2.8 1.3 4 1.7s2.5.6 3.9.6c2.4 0 4.3-.5 5.6-1.5 1.4-1 2-2.3 2-4 0-2.4-2.6-4.6-7.7-6.6-5.6-2.2-8.5-4.9-8.5-8.1 0-2.4.9-4.3 2.6-5.8 1.8-1.5 4.2-2.3 7.4-2.3 1.3 0 2.7.2 4.4.7 1.6.5 2.9 1 3.9 1.7l-1.2 2.1c-1.4-.7-2.6-1.2-3.6-1.5s-2.3-.5-3.8-.5c-2 0-3.6.5-4.9 1.6-1.3 1.1-1.9 2.3-1.9 3.8 0 1.2.6 2.3 1.9 3.3s3.1 1.9 5.4 2.8c2.7 1.1 4.9 2.3 6.5 3.7s2.4 3 2.4 4.9c0 5.5-3.6 8.2-10.7 8.2zM236.1 15h5.3l1.3 2.2h-6.6v18.6c0 1.6.3 3 1 4 .7 1.1 1.7 1.7 3.1 1.7.8 0 1.6-.2 2.5-.5l.7 2.3c-.1 0-.7.1-1.6.4-.8.2-1.6.3-2.3.3-1.9 0-3.4-.7-4.6-2s-1.7-3.3-1.7-5.7v-19h-4.3V15h4.3V7.2l2.9-1.3V15zM263.4 13.3c2.2 0 4.2.7 5.9 2 1.7 1.3 3 3.1 4 5.5.9 2.3 1.4 5 1.4 7.9h-21c0 3.8.9 6.8 2.6 9.3 1.7 2.4 4.3 3.6 7.7 3.6 1.9 0 3.5-.2 4.8-.5 1.3-.4 2.5-.9 3.8-1.5l1.2 2.2c-1.1.7-2.6 1.2-4.5 1.7-1.9.4-3.5.6-4.8.6-4.6 0-8.1-1.4-10.4-4.2s-3.4-6.6-3.4-11.3c0-4.6 1.1-8.2 3.3-11 2.1-2.9 5.2-4.3 9.4-4.3zm-.5 2.5c-2.7 0-4.9 1-6.4 3s-2.4 4.6-2.7 7.7h17.7c-.3-3.2-1.2-5.7-2.5-7.7-1.4-2-3.4-3-6.1-3zM322.7 23v20.2h-2.9V23c0-2.3-.3-4.1-1-5.4-.7-1.2-2-1.9-3.8-1.9-2.8 0-6 1.8-9.7 5.4 0 .4.1 1 .1 1.8v20.2h-2.9V23c0-2.3-.3-4.1-1-5.4-.7-1.2-2-1.9-3.8-1.9-1.5 0-3.1.5-4.9 1.6-1.7 1.1-3.5 2.5-5.3 4.3v21.6h-2.9V14.1h2.3l.6 4.6c1.2-1.4 2.8-2.7 4.8-3.8s3.7-1.6 5.2-1.6c3.9 0 6.4 1.8 7.5 5.3 1.2-1.4 2.8-2.7 4.8-3.7 1.9-1 3.7-1.6 5.2-1.6 2.8 0 4.8.9 6.1 2.6 1 1.7 1.6 4.1 1.6 7.1z"/><path class="ast0" d="M164.3 8.1c-1.2-1.4-3.6-2.4-6.8-1.2-1.7.7-2.9 2-3.4 3.6-.6 1.8-.1 3.9 1.2 5.8 2.5 3.5 9 8.9 9.3 9.2.2.2.4.2.7.2.1 0 .3 0 .4-.1.4-.2.6-.5.6-.9.2-2.3.4-13.9-2-16.6zm-7.1 7c-1-1.4-1.3-2.8-.9-3.9.3-1 1.1-1.8 2.1-2.2.8-.3 1.4-.4 2-.4 1.4 0 2.2.7 2.4 1 1 1.2 1.5 6.3 1.6 11l-2.9-5.9 2.1 7.1c-2.1-2-5-4.8-6.4-6.7zM73.5 69.4c0-.9.2-1.6.5-2.3.3-.7.8-1.2 1.4-1.6s1.3-.6 2-.6 1.4.2 2 .6 1.1.9 1.4 1.6.5 1.4.5 2.3-.2 1.6-.5 2.3c-.3.7-.8 1.2-1.4 1.6s-1.3.6-2 .6-1.4-.2-2-.6-1-.9-1.4-1.6c-.3-.7-.5-1.5-.5-2.3zm4-3.9c-.6 0-1.2.2-1.6.5-.5.3-.9.8-1.1 1.4s-.4 1.3-.4 2 .1 1.4.4 2 .6 1 1.1 1.4 1 .5 1.6.5 1.2-.2 1.7-.5.9-.8 1.1-1.4.4-1.3.4-2-.1-1.4-.4-2-.6-1-1.1-1.4c-.6-.4-1.1-.5-1.7-.5zM85.7 73.6V65h2.1c1 0 1.7.2 2.3.6s.8 1 .8 1.9c0 .6-.2 1-.4 1.4s-.7.7-1.1.8l2.2 3.9h-.8l-2.1-3.7c-.3.1-.7.1-1.1.1h-1.3v3.6h-.6zm4.5-6.1c0-1.3-.8-1.9-2.4-1.9h-1.5v3.8h1.3c.7 0 1.3-.2 1.8-.5s.8-.7.8-1.4zM100.6 69.8h-1.9l.1-.5h2.6v3.9c-.2.2-.6.3-1 .4s-.8.2-1.2.2c-.8 0-1.6-.2-2.2-.6s-1.1-.9-1.5-1.6-.5-1.4-.5-2.3.2-1.7.6-2.3c.4-.7.9-1.2 1.6-1.6s1.4-.6 2.2-.6c.3 0 .7 0 1.1.1s.8.2 1 .3l-.2.5c-.3-.1-.6-.2-.8-.3s-.6-.1-1-.1c-.7 0-1.3.2-1.8.5-.6.3-1 .8-1.3 1.4s-.5 1.3-.5 2.1c0 .7.2 1.4.4 2 .3.6.7 1 1.2 1.3s1.1.5 1.8.5c.5 0 1-.1 1.5-.3l-.2-3zM104.7 73.6l3.1-8.6h.7l3.3 8.5-.7.1-1-2.7h-3.7l-1 2.6-.7.1zm1.8-3.2h3.3l-1.7-4.5-1.6 4.5zM116.3 66.5v7.2h-.7v-8.6h.4l4.4 6.3.4.7V65h.7v8.6h-.4l-4.7-6.8-.1-.3zM127.3 65.1v8.6h-.7v-8.6h.7zM135.6 64.9c.3 0 .7 0 1.1.1.4.1.8.2 1 .3l-.3.5c-.3-.1-.6-.2-.8-.3-.2-.1-.6-.1-1-.1-.6 0-1.1.2-1.6.5s-.9.8-1.1 1.4-.4 1.3-.4 2 .1 1.3.4 1.9c.2.6.6 1 1.1 1.4s1 .5 1.6.5c.4 0 .8 0 1.1-.1s.6-.2.8-.3l.3.5c-.2.1-.6.2-1 .3-.4.1-.8.1-1.2.1-.8 0-1.6-.2-2.1-.6s-1-.9-1.3-1.6-.4-1.4-.4-2.2c0-.8.2-1.6.5-2.3.3-.7.8-1.2 1.4-1.6.4-.2 1.1-.4 1.9-.4zM150.6 64.9c.3 0 .7 0 1.1.1.4.1.8.2 1 .3l-.3.5c-.3-.1-.6-.2-.8-.3-.2-.1-.6-.1-1-.1-.6 0-1.1.2-1.6.5s-.9.8-1.1 1.4-.4 1.3-.4 2 .1 1.3.4 1.9c.2.6.6 1 1.1 1.4s1 .5 1.6.5c.4 0 .8 0 1.1-.1s.6-.2.8-.3l.3.5c-.2.1-.6.2-1 .3-.4.1-.8.1-1.2.1-.8 0-1.6-.2-2.1-.6s-1-.9-1.3-1.6-.4-1.4-.4-2.2c0-.8.2-1.6.5-2.3s.8-1.2 1.4-1.6c.4-.2 1.1-.4 1.9-.4zM155.7 73.6l3.1-8.6h.7l3.3 8.5-.7.1-1-2.7h-3.7l-1 2.6-.7.1zm1.8-3.2h3.3l-1.7-4.5-1.6 4.5zM165.5 65.1h6.5l.1.6h-2.9v8h-.7v-8h-2.9l-.1-.6zM180.7 73.1l.1.6H176v-8.6h4.7l.1.5h-4.1V69h3l.1.5h-3.1v3.6h4zM184.8 73.6V65h2.1c1 0 1.7.2 2.3.6s.8 1 .8 1.9c0 .6-.1 1-.4 1.4s-.6.7-1.1.8l2.2 3.9h-.8l-2.1-3.7c-.4.1-.7.1-1.1.1h-1.3v3.6h-.6zm4.5-6.1c0-1.3-.8-1.9-2.4-1.9h-1.5v3.8h1.3c.7 0 1.3-.2 1.8-.5s.8-.7.8-1.4zM195.3 65.1v8.6h-.7v-8.6h.7zM201 66.5v7.2h-.7v-8.6h.4l4.4 6.3.4.7V65h.7v8.6h-.4l-4.7-6.8-.1-.3zM216.4 69.8h-1.9l.1-.5h2.6v3.9c-.2.2-.6.3-1 .4s-.8.2-1.2.2c-.9 0-1.6-.2-2.2-.6s-1.1-.9-1.5-1.6-.5-1.4-.5-2.3.2-1.7.6-2.3c.4-.7.9-1.2 1.6-1.6.7-.4 1.4-.6 2.2-.6.3 0 .7 0 1.1.1.4.1.8.2 1 .3l-.2.5c-.3-.1-.6-.2-.8-.3s-.6-.1-1-.1c-.7 0-1.3.2-1.8.5-.6.3-1 .8-1.3 1.4s-.5 1.3-.5 2.1c0 .7.1 1.4.4 2 .3.6.7 1 1.2 1.3s1.1.5 1.8.5c.5 0 1-.1 1.5-.3l-.2-3zM230.4 64.9c.3 0 .7 0 1.1.1.4.1.8.2 1 .3l-.3.5c-.3-.1-.6-.2-.8-.3-.2-.1-.6-.1-1-.1-.6 0-1.1.2-1.6.5s-.9.8-1.1 1.4-.4 1.3-.4 2 .1 1.3.4 1.9c.2.6.6 1 1.1 1.4s1 .5 1.6.5c.4 0 .8 0 1.1-.1s.6-.2.8-.3l.3.5c-.2.1-.6.2-1 .3-.4.1-.8.1-1.2.1-.8 0-1.6-.2-2.1-.6s-1-.9-1.3-1.6-.4-1.4-.4-2.2c0-.8.2-1.6.5-2.3.3-.7.8-1.2 1.4-1.6.4-.2 1.1-.4 1.9-.4zM236 69.4c0-.9.2-1.6.5-2.3.3-.7.8-1.2 1.4-1.6.6-.4 1.3-.6 2-.6s1.4.2 2 .6 1.1.9 1.4 1.6.5 1.4.5 2.3-.2 1.6-.5 2.3-.8 1.2-1.4 1.6-1.3.6-2 .6-1.4-.2-2-.6-1-.9-1.4-1.6c-.4-.7-.5-1.5-.5-2.3zm3.9-3.9c-.6 0-1.1.2-1.6.5s-.9.8-1.1 1.4-.4 1.3-.4 2 .1 1.4.4 2c.3.6.6 1 1.1 1.4s1 .5 1.6.5 1.2-.2 1.6-.5c.5-.3.9-.8 1.1-1.4s.4-1.3.4-2-.1-1.4-.4-2c-.3-.6-.6-1-1.1-1.4s-1-.5-1.6-.5zM248.3 73.1c0 .2-.1.3-.2.4-.1.1-.2.2-.4.2s-.3-.1-.4-.2-.1-.2-.1-.4c0-.1.1-.3.2-.4.1-.1.2-.2.4-.2.1 0 .3.1.4.2s.1.3.1.4zM256.7 69.8h20.5v.5h-20.5zM45.1 69.8h20.5v.5H45.1z"/></svg><svg version="1.1" id="facebook" x="384.1" y="250" viewBox="0 0 50 50" xml:space="preserve" width="50" height="50" xmlns="http://www.w3.org/2000/svg"><style>.bst0{fill:#fff}</style><path class="bst0" d="M43.3 0H6.7C3 0 0 3 0 6.7v36.5C0 47 3 50 6.7 50h18V32.1h-4.6c-.6 0-1.1-.5-1.1-1.1v-5.8c0-.6.5-1.1 1.1-1.1h4.6v-5.6c0-6.5 3.9-10 9.7-10h4.7c.6 0 1.1.5 1.1 1.1v4.9c0 .6-.5 1.1-1.1 1.1h-2.9c-3.1 0-3.7 1.5-3.7 3.7v4.8h6.9c.7 0 1.2.6 1.1 1.2l-.7 5.8c-.1.5-.5 1-1.1 1h-6.2V50h10.7c3.7 0 6.7-3 6.7-6.7V6.7C50 3 47 0 43.3 0z"/></svg><svg version="1.1" id="green-restaurant-certified-logo" x="324" viewBox="0 0 226 250" xml:space="preserve" width="226" height="250" xmlns="http://www.w3.org/2000/svg"><style>.cst0{fill:#fff}</style><path class="cst0" d="M111.4 57.4c-19.6 0-35.5 15.9-35.5 35.5s15.9 35.5 35.5 35.5 35.5-15.9 35.5-35.5-15.9-35.5-35.5-35.5zm1.4 69c.9-2.8 3-4.4 2.6-8.6-3.6-1.2-4.9-4.5-7.6-6.6.1-3.1.4-4.6 2.6-6.6.2-1.9-1-2.4-1.5-3.5h-.3c-.7.2-.5 1.3-1.8 1-2.6-2.4-5.5-4.3-8.1-6.6-6.5 1.1-7.8-6.9-9.1-12.7-2.3.4 1.3 5.5-.5 5.1.1-2.2-1.8-4.2-.5-6.1-2.7-6.6 3.4-10.4 4.4-16.2-.1-.9-.8-1.2-2.1-1 1.4-2.2 4-3 6.6-4-.3 2.5 2.7 1.8 3.6 3 .4-.2.4-1.3 0-1.5.5-1.5 2.2.2 3.1 0 .3 1.2-.9.7-1 1.5.1 1.4 3.3-.6 1.6-1 1.2-1.8 1.4 1.6 2.6 1.5-.1-1-.3-1.7-1-2 2.8-4 9.6-3.3 13.7-.5-.2 1.7-1 2.6.5 4-3.3 1.5-6-4.5-10.2-5.4-1.2.5-1.3 2-3.6 1.5 2.3.8 4.9 1.1 6.6 2.5-.9 1-.9.4-.5 2.1-1.5.2-1.6-1.2-3.1-1 .7-.7.7-1.9-.5-2-1.9 2.9-3.6 1.5-6.1 4.5 1.5 1.6 4.1 2 5.1 4 .9-2.2 1.1-2.6 1-5.6 4.9 1.1 8.4 2.8 11.2 7.1h-2.6v-2c-1.2.8-3.3.8-4.5 1.5 1.4-.6 1.7 1.7 4 1.5-2.2 1.1-7.5 3.1-7.1 7.6-1.3.9-2.4 2-3.6 3.1.1 1.6 1.2 2.3 1 4-2.2.4-1.1-2.3-2.1-3.1-5.4-2.1-13.3 2.8-7.6 8.1 3.3.8 1.8-2.9 5.1-2.1-.8.9-.6 2.8-1.5 3.6.8 1 3.6.2 4 1.5-1.1 1.1-.4 3.4.5 4 .9 0 1.7.1 2.3 0h.2c1.9-.1 2.5-.7 4.5-2.6 4.6.4 9.7 2.3 14.2 3.6-.3 1.6.9 1.5.5 3.1 3.2.3 4.3-.3 7.1.5-3.3 10.9-10.6 17.9-22.1 20.8zM157.4 105.5c-.1-1.8-.6-3.9-.4-5.2.2-1.2 1.5-2.8 1.8-4.7.3-2.3 0-5.2 0-8.1 0-7.1.2-13.5 0-20.7-.1-2.2-.2-3-1.6-2.8-.1 0-.5 0-.5.1-3.2 3.8-4 8.8-4.3 16.4-.2 4-.4 7.9-.4 11.9 0 1.4-.3 3.1-.1 4 .3 1.6 1.7 2.3 1.9 3.8.3 1.9-.3 4.5-.4 6.9-.3 5.6-.8 11.6-1 17.2h6.2c-.2-6.5-.8-12.3-1.2-18.8zM69.7 122.5c-.4-9.8-1.6-19.5-1.6-29.2.6-1.8 2.8-2.5 3.3-4.5.8-2.7-.1-7.2-.5-11-.3-2.8-.4-5.5-.8-7.9-.1-.8-.2-1.8-.8-2.1.1 4.1.4 8.2.5 12.4.1 1.4.4 3.4-.5 4-.9-4.4-.8-10.2-1.3-14.5-.1-.6.1-1.5-.5-1.9-.2 3.7 0 7.4 0 12.1 0 1.4.3 3.1-.3 4.3-.8-1.8-.4-4-.5-6.2-.1-2.7-.3-5.5-.3-8.1 0-.8.1-1.7-.5-2.1-.3 3.9-.3 8.8-.3 13 0 1.3.3 2.8-.5 3.4-.8-.9-.4-2.6-.5-3.8-.2-4.5-.3-9.4-.3-12.4-.1-.1-.2-.2-.3-.2-.7 3.6-.8 9.6-1.2 14.8-.1 1.9-.5 4.8 0 6.4.7 2 3.2 2.5 3.7 4.8.1.7.1 1.8 0 2.6-.2 5.8-1.3 12.4-1.8 18.5-.3 3-.3 5.8-.3 9.4H70c-.3-.7-.3-1.3-.3-1.8z"/><path class="cst0" d="M105.6 77.9c-.1-.8.4-1.3 1-1.5.1.9.3 1.7 1 2.1.1-1.3 2-.8 2.1-2.1-1.3-.4-1 .9-2 .9.2-1.8-3.2-3.3-3.6-1.5 2.9-.6-.1 1.5 1.5 2.1zM108.5 101.1h.3-.3z"/><path class="cst0" d="M43.9 104.3c0-37.8 30.8-68.7 68.7-68.7s68.7 30.8 68.7 68.7c0 6.9-1 13.7-3 20h36.5c1.3-6.5 1.9-13.1 1.9-20C216.7 46.9 170 .2 112.6.2S8.5 46.9 8.5 104.3c0 6.8.7 13.5 1.9 20h36.5c-1.9-6.3-3-13-3-20zm160.9-19.9l-3.1.9-1.3-4.2-10.8 3.2-1-3.3 10.8-3.2-1.3-4.2 3.1-.9 3.6 11.7zm-9.5-24.6l-2.3 4.6-2.4 4.8 4.6-2.4 2.9-1.5 1.6 3.1-12.9 6.6-1.5-2.9 2.3-4.5c1-2 2.6-5 2.6-5s-2 1-4.8 2.5l-2.9 1.4-1.6-3.1 12.9-6.6 1.5 3zm-9-13.5l2 2.6-7.9 13.5-2.3-3 1.3-2.1-3.5-4.5-2.3.8-2.3-3 15-4.3zm-10.8-11.1c2.7 2.5 3.1 5.4 1.1 7.6-1.3 1.5-2.9 1.9-4.7 1.4l-1.1 6.1-2.9-2.7 1.1-5.3-1.4-1.2-3.1 3.5-2.6-2.3 9.7-10.8 3.9 3.7zm-23.4-6.7l4.2-6.9 2.9 1.8-4.1 6.8c-1.3 2.2-1 3.5.6 4.5s3.1.6 4.3-1.5l4.1-6.8 3 1.9-4.2 6.9c-2.3 3.7-5.7 4.4-9 2.4-3.1-2-4-5.4-1.8-9.1zm-3.5-10.3l.1 15.6-3.5-1.3.1-2.5-5.3-2.1-1.6 1.8-3.5-1.4L145.5 17l3.1 1.2zM127 12l12 2.6-.7 3.2-4.3-1-2.4 11-3.4-.8 2.4-11-4.2-.9.6-3.1zm-10.9 7.3c-1.7-.8-3.7-1.9-3.5-4.4.2-2.3 2.6-4.2 5.6-4 2.8.1 4.8 2 5.4 4.3l-3.4.8c-.3-1.3-1.3-1.9-2.4-2.1-1.1-.1-1.7.4-1.7 1-.1.9 1.3 1.4 3.1 2.2 2.1.9 4.3 2.3 4.1 4.7-.2 2.6-2.6 4.4-5.9 4.2-3-.1-5.1-2-5.8-4.7l3.4-.7c.3 1.1 1.3 2.3 2.8 2.4 1.3 0 1.8-.5 1.9-1.2 0-1.2-1.6-1.6-3.6-2.5zm-7.7-8.3l.3 3.3-7 .7.3 2.4 5.5-.5.3 3-5.5.5.3 2.6 7.1-.8.3 3.3-10.6 1L98 12.1l10.4-1.1zM87 14.7c3.5-1 6.1.4 7 3.2.6 1.9 0 3.5-1.4 4.7l4.5 4.3-3.8 1-3.9-3.8-1.7.5 1.3 4.5-3.3 1-3.9-14 5.2-1.4zM61.9 25.9l4.7 2 4.9 2.1s-1.3-2.2-2.7-4.4l-1.7-2.9 2.9-1.9 7.4 12.5-2.8 1.7-4.6-2c-2.1-.9-5.1-2.3-5.1-2.3s1.2 1.9 2.8 4.6l1.7 2.8-3 1.8L59 27.4l2.9-1.5zm-7.6 5.2l2.2 2.5-5.3 4.6 1.6 1.8 4.1-3.7 2 2.3-4.1 3.7 1.7 2 5.4-4.7 2.2 2.4-8 7.1-9.6-10.9 7.8-7.1zM42.4 42.2l2.5 2-4.4 5.5 1.8 1.5 3.5-4.3 2.4 1.9-3.5 4.3 2 1.7 4.5-5.6 2.5 2-6.7 8.3-11.3-9.1 6.7-8.2zm-4.5 35c-1-.3-1.3-.4-1.3-.4.6 1.1.7 2.8.2 4.2-1.3 3.9-5.3 6.2-9.5 4.8-4.1-1.3-6.1-5.5-4.8-9.5.9-2.7 3-4.6 5.7-5.1l-.2 3.6c-1 .4-1.9 1.4-2.2 2.5-.8 2.3.5 4.2 2.7 4.9 2.5.8 4.5-.3 5.2-2.7.7-2.2-.1-3.6-1-4.2L31.6 79l-2.6-.8 2.1-6.4 7.8 2.6-1 2.8zm3.7-8.5l-1.7 3.1-12.7-7 2.6-4.7c1.8-3.2 4.5-4.1 7.2-2.7 1.7 1 2.5 2.5 2.4 4.3l6.2-.3-1.9 3.4-5.4.1-.8 1.6 4.1 2.2z"/><path class="cst0" d="M173.9 40.3c.5-.6.8-1.6-.1-2.5l-1.8-1.6-2.3 2.5 1.8 1.6c.9 1 1.8.5 2.4 0zM145.4 23.8c0-.9.1-2.3.1-2.3s-.9 1-1.4 1.8l-2 2.3 3.3 1.3v-3.1zM182.6 52.1c.4-.8 1.3-1.8 1.3-1.8s-1.3.5-2.1.8l-2.9.9 2.1 2.8 1.6-2.7zM89.2 20.9c1.2-.4 1.4-1.4 1.2-2.1-.2-.8-.9-1.5-2.2-1.2l-2.2.6.9 3.4 2.3-.7zM35.3 60.5c-.7-.4-1.8-.4-2.3.7l-1.1 2.1 3 1.6 1.2-2.1c.4-1.1-.1-2-.8-2.3zM60.5 174.1L59 173l-3.1 4.1 1.5 1.1c1 .8 2.5.8 3.5-.5.9-1.3.6-2.8-.4-3.6zM103 191.1l-1.6-.2-.3 2.3 1.6.2c.8.1 1.2-.4 1.3-1 .1-.5-.2-1.2-1-1.3zM157.3 185.2c1.4-.8 1.6-2.2.9-3.6s-2.1-1.8-3.5-1.1c-1.3.8-1.6 2.1-.9 3.6.8 1.4 2.2 1.9 3.5 1.1z"/><path class="cst0" d="M112.6 173c-11.4 0-22.1-2.8-31.5-7.7H28.3c18.9 26.1 49.7 43.1 84.3 43.1s65.4-17 84.3-43.1h-52.8c-9.4 4.9-20.1 7.7-31.5 7.7zm-56.5 6.9l-3.3-2.5 5.6-7.4 3.3 2.5c2.2 1.6 2.7 4.4 1 6.7s-4.5 2.3-6.6.7zm6.1 4.2l4.9-7.9 1.9 1.2-4.9 7.9-1.9-1.2zm10.2 5.8l-.6-3.2c-.3-1.4-.6-3.6-.6-3.6s-.7 1.3-1.6 3.1l-.9 1.9-2-1 4.2-8.3 1.9.9.6 3.3c.2 1 .6 3.4.6 3.4s.8-1.5 1.5-3l.9-1.9 2 1-4.2 8.3-1.8-.9zm14-2.3l-4.3-1.6-.5 1.4 3.3 1.2-.7 1.9-3.3-1.2-.6 1.6 4.3 1.6-.7 1.9-6.4-2.4 3.2-8.7 6.4 2.3-.7 2zm5.1 6.9c1.4.4 2.3-.3 2.7-.9l-2.4-.6.4-1.8 4.2 1-1.3 5.1-1.8-.4c.2-.6.2-.8.2-.8-.7.4-1.8.6-2.7.4-2.6-.6-4.2-3.1-3.6-5.8s3.3-4.2 5.8-3.6c1.8.4 3.1 1.8 3.6 3.4l-2.3.1c-.3-.6-1-1.1-1.7-1.3-1.5-.4-2.7.5-3.1 2-.3 1.6.5 2.8 2 3.2zm14.8-1.9c-.2 1.3-.8 2.1-2 2.5l1.7 3.6-2.4-.3-1.4-3.2-1.2-.1-.3 3.1-2.3-.3 1.1-9.3 3.4.4c2.3.3 3.6 1.8 3.4 3.6zm9.3-.8l-4.5-.1-.1 1.6 3.6.1-.1 1.9-3.6-.1-.1 1.6 4.6.1-.1 2.1-6.9-.1.2-9.3 6.7.1.3 2.1zm3.2 7l-.9-9.3 6.7-.6.2 2.1-4.5.5.2 1.5 3.6-.4.2 1.9-3.6.4.2 1.6 4.6-.4.3 2.1-7 .6zm16.3-2.6l-2.4-2.1c-1.1-.9-2.7-2.4-2.7-2.4s.4 1.4.8 3.4l.4 2-2.2.5-2.1-9.1 2.1-.4 2.6 2.1c.8.6 2.6 2.3 2.6 2.3s-.4-1.6-.8-3.3l-.4-2.1 2.2-.5 2.1 9.1-2.2.5zm6-1.5c-.6.1-1.2-.1-1.4-.7-.1-.6.1-1.1.7-1.3.6-.1 1.1.1 1.3.7.3.5 0 1.1-.6 1.3zm19.9-20.4l3.1 1.2c1.2.5 1.4.6 1.4.6s-.1-.3-.1-1.6l-.3-3.3 1.6-1.3 5.6 7.5-1.8 1.3-1.4-1.9c-1.4-1.8-1.9-2.7-1.9-2.7s.1 1.5.2 1.6l.3 2.1-.9.7-2-.9c-.1-.1-1.5-.6-1.5-.6s.7.9 2.1 2.6l1.4 1.9-1.8 1.3-5.6-7.5 1.6-1zm-7.4 4.4c2.4-1.3 5.2-.6 6.6 1.9 1.4 2.4.5 5.3-1.9 6.6-2.4 1.3-5.2.6-6.6-1.9-1.3-2.4-.4-5.3 1.9-6.6zm-4.3 5.2l-1.8 1.4c-.6-.4-1.4-.4-2.1-.1-1.4.6-1.9 1.9-1.4 3.4.6 1.5 1.9 2.1 3.3 1.5.9-.4 1.4-1.1 1.6-1.8l2.4-.3c-.1 1.9-1.3 3.4-3.1 4.2-2.5 1-5.2-.1-6.3-2.6-1.1-2.6.1-5.3 2.6-6.3 1.6-.8 3.4-.4 4.8.6z"/><g><path class="cst0" d="M75 136.9h-2.8v7.1H75v.1c2.9 0 4.5-.9 4.5-3.4 0-2.7-1.9-3.8-4.5-3.8z"/><path class="cst0" d="M226 124.3H0l7.6 20.5L0 165.3H226l-7.6-20.5 7.6-20.5zM38.3 150.4c-.3.7-2.8 6-10.5 6-2.3 0-4.5-.6-6.3-1.8-3.1-1.9-5.1-5.4-5.1-10.1v-.4c.2-7.4 5.4-11.3 11-11.3 3.6 0 5.5 1.6 6.4 2.9v-2.2c0-.3.2-.4.5-.4h3.2c.3 0 .5.1.5.4v7.6c0 .3-.2.4-.5.4h-3.7c-.3 0-.5-.1-.5-.4v-.3c0-1.4-2.1-3.8-5.6-3.8-3.5 0-6.5 2.6-6.5 7.4 0 4.7 3.4 7.4 6.7 7.4 4.9 0 6.6-2.9 7.1-3.8.2-.3.4-.3.7-.1l2.5 1.6c.2.4.2.6.1.9zm22.6 5.3c0 .3-.2.4-.5.4H42.6v.1c-.3 0-.5-.1-.5-.4v-2.9c0-.3.2-.4.5-.4h2.2v-15.4h-2.2c-.3 0-.5-.1-.5-.4v-2.9c0-.3.2-.4.5-.4h17.9c.3 0 .5.1.5.4v6.5c0 .3-.2.4-.5.4h-3c-.3 0-.5-.1-.5-.4v-3.1H49.3v5.8H55.7c.2 0 .4.2.4.4v3c0 .3-.2.4-.5.4h-6.3v5.7H57v-3.1c0-.3.2-.4.5-.4h3c.3 0 .5.1.5.4v.2c-.1-.2-.1 6.1-.1 6.1zm25.1.1c0 .3-.2.4-.4.4h-3.9v-.1c-1.1 0-1.8-.8-2.3-1.9l-2.6-5.2c-.3-.7-.8-1.4-1.9-1.4h-2.6v4.7h2.8c.3 0 .4.1.4.4v2.9c0 .3-.2.4-.4.4h-9.5c-.3 0-.4-.1-.4-.4v-2.9c0-.3.2-.4.4-.4h2.2v-15.4h-2.2c-.3 0-.4-.1-.4-.4v-3c0-.3.2-.4.4-.4H76.2c4.6 0 7.9 2.9 7.9 7.4 0 3.1-1.4 5.1-4 6.2.4.4.8.9 1.3 1.8l2.2 3.9h2.1c.3 0 .4.1.4.4l-.1 3zm23.1-15.2c0 .3-.2.5-.5.5h-3.2c-.3 0-.5-.2-.5-.5V137H101v15.4h2.1c.3 0 .5.2.5.5v2.8c0 .3-.2.5-.5.5h-8.8c-.3 0-.5-.3-.5-.5v-2.8c0-.3.3-.5.5-.5h2.2V137h-4v3.6c0 .3-.2.5-.5.5h-3.2c-.3 0-.5-.2-.5-.5v-7c0-.3.2-.5.5-.5h19.9c.3 0 .5.2.5.5-.1 0-.1 7-.1 7zm13.9-4.1c0 .3-.2.4-.4.4h-2.3v15.4h2.3c.3 0 .4.1.4.4v2.9c0 .3-.2.4-.4.4h-8.9c-.3 0-.4-.1-.4-.4v-2.9c0-.3.2-.4.4-.4h2.2v-15.4h-2.2c-.3 0-.4-.1-.4-.4v-2.9c0-.3.2-.4.4-.4h8.9c.3 0 .4.1.4.4v2.9zm19.1 4c-.3 0-.4-.1-.4-.4V137h-7.4v5.8h6.1c.3 0 .4.1.4.4v2.9c0 .3-.1.4-.4.4h-6.1v5.7h3.9c.3 0 .4.1.4.4v2.9c0 .3-.2.4-.4.4h-10.6c-.3 0-.4-.1-.4-.4v-2.9c0-.3.2-.4.4-.4h2.2v-15.4h-2.2c-.3 0-.4-.1-.4-.4v-2.9c0-.3.2-.4.4-.4h17.6c.3 0 .4.1.4.4v6.5c0 .3-.1.4-.4.4l-3.1.1zm17.4 15.3c0 .3-.2.4-.4.4h-8.9c-.3 0-.4-.1-.4-.4v-2.9c0-.3.1-.4.4-.4h2.2v-15.4h-2.2c-.3 0-.4-.1-.4-.4v-2.9c0-.3.1-.4.4-.4h9c.3 0 .4.1.4.4v2.9c0 .3-.2.4-.4.4H157V152.5h2.3c.3 0 .4.1.4.4V155.8zm22.9-15.8c0 .3-.1.4-.4.4h-3.1c-.3 0-.4-.1-.4-.4v-3.1h-7.7v5.8h6.3c.3 0 .4.1.4.4v2.9c0 .3-.2.4-.4.4h-6.3v5.7h7.6V149c0-.3.1-.4.4-.4h3.1c.3 0 .4.1.4.4v6.4c0 .3-.2.4-.4.4H164v.1c-.3 0-.4-.1-.4-.4v-2.9c0-.3.1-.4.4-.4h2.2V136.8H164c-.3 0-.4-.1-.4-.4v-2.9c0-.3.1-.4.4-.4h17.9c.3 0 .4.1.4.4l.1 6.5zm22.2 13c-1.9 2-4.6 3.2-7.6 3.2h-10.2c-.3 0-.4-.1-.4-.4v-2.9c0-.3.1-.4.4-.4h2.3v-15.4h-2.3c-.3 0-.4-.1-.4-.4v-2.9c0-.3.1-.4.4-.4h8.9c6.5 0 11.8 4.2 11.8 11.7 0 1-.1 1.9-.3 2.7-.3 2-1.3 3.8-2.6 5.2z"/><path class="cst0" d="M195.1 137h-1.6v15.4h1.9c4.7-.1 7.4-2.1 7.4-7.4 0-5.3-2.7-8-7.7-8z"/></g><path class="cst0" d="M56.1 143.2c0-.3-.1-.4-.4-.4.2.1.3.3.4.4zM60.5 148.8h-.1l.6.6v-.2c-.1-.2-.2-.4-.5-.4zM159 136.9c.3 0 .4-.1.4-.4v-2.9c0-.3-.1-.4-.4-.4h-.3c0 1.4-.1 2.8-.4 3.8l.7-.1zM159 156.2c.3 0 .4-.1.4-.4v-1.3c-.6.6-1.3 1.2-2 1.8h1.6zM73.2 219.9c-8.3 0-15 6.7-15 15s6.7 15 15 15 15-6.7 15-15-6.7-15-15-15zm5.6 24.6l-5.5-5.9-5.5 5.9 2.3-7.7-7.9-1.9L70 233l-2.3-7.7 5.5 5.9 5.5-5.9-2.3 7.7 7.9 1.9-7.9 1.9 2.4 7.7zM111.4 219.9c-8.3 0-15 6.7-15 15s6.7 15 15 15 15-6.7 15-15-6.7-15-15-15zm5.5 24.6l-5.5-5.9-5.5 5.9 2.3-7.7-7.8-1.9 7.8-1.9-2.3-7.7 5.5 5.9 5.5-5.9-2.3 7.7 7.9 1.9-7.9 1.9 2.3 7.7zM149.6 219.9c-8.3 0-15 6.7-15 15s6.7 15 15 15 15-6.7 15-15-6.7-15-15-15zm5.6 24.6l-5.5-5.9-5.5 5.9 2.4-7.7-7.9-1.9 7.9-1.9-2.4-7.7 5.5 5.9 5.5-5.9-2.4 7.7 7.8 1.9-7.8 1.9 2.4 7.7z"/></svg><svg version="1.1" id="green-seal-certified-logo" y="75" viewBox="0 0 255 238" xml:space="preserve" width="255" height="238" xmlns="http://www.w3.org/2000/svg"><style>.dst0{fill:#fff}</style><path id="dXMLID_27_" class="dst0" d="M242.3 57.2c-3.1-4.1-8.5-6.5-13.9-7.4-14.5-1.4-28.7 1.6-42.1 4.9-1.4.4-2.8.8-4.1 1.3-45.1 14.4-86 40.9-118 74.6-6.9 7.3-13.4 15-19.5 22.9 0 0-25.3-20.6-43.4-25.6l-.3-.1c24.4 31.3 31.2 63.6 36.8 93.3l6.5-13.9c13.3-29.2 33.4-56 55.3-79.3 27.6-28.7 59.9-56.1 99.2-69.5 12.8-3.3 33.1-9.1 42.6 3.3 5.8 9.3.9 21.3-3 30.3l1.9.5c5.3-10.1 9.6-25.1 2-35.3"/><path class="dst0" d="M193.1 64.5c-.2.1-.4.2-.6.2-37.3 18.1-66.1 49.3-89.9 81.2-6.3 8.7-12.4 17.7-18 27.1 14 14.8 33.8 24 55.7 24 42.4 0 76.8-34.4 76.8-76.8-.1-21.9-9.3-41.7-24-55.7zM180.4 54.8c-11.7-7.2-25.4-11.3-40.1-11.3-42.4 0-76.8 34.4-76.8 76.8 0 2.7.2 5.4.4 8C95.6 95 135.9 69 180.4 54.8zM243.6 113.5c3 0 5.4 2.4 5.4 5.4 0 3.1-2.4 5.5-5.4 5.5-3 0-5.4-2.4-5.4-5.5-.1-3 2.4-5.4 5.4-5.4m-.1.8c-2.4 0-4.4 2.1-4.4 4.6 0 2.6 2 4.6 4.4 4.6 2.4 0 4.4-2 4.4-4.6s-1.9-4.6-4.4-4.6c.1 0 0 0 0 0zm-1 7.8h-1V116c.5-.1 1-.1 1.7-.1.9 0 1.5.2 1.9.5.4.3.6.7.6 1.3 0 .8-.5 1.3-1.2 1.5v.1c.5.1.9.6 1 1.5.1.9.3 1.3.4 1.5h-1c-.1-.2-.3-.8-.4-1.6-.1-.8-.5-1.1-1.3-1.1h-.7v2.5zm0-3.3h.7c.8 0 1.5-.3 1.5-1 0-.5-.4-1.1-1.5-1.1-.3 0-.5 0-.7.1v2z"/><path id="dXMLID_22_" class="dst0" d="M45.2 107.2c-.9 6.8-4.6 7.7-10.8 6.9l-5.4-.7c-5.9-.8-9.5-3-8.7-9.4.5-4.1 2.4-7.4 7.9-6.7.7.1 1.2.7 1.1 1.4l-.4 3.1c-.1.7-.7 1.2-1.5 1.1-.2 0-2.2-.5-2.5 1.7-.2 1.6.8 2.4 2.7 2.7l9.7 1.2c1.8.2 2.9-.4 3.2-2 .3-2.3-3.6-2.5-3.6-2.5h-.4l-.1 1.1c-.1.8-.8 1.2-1.5 1.1l-2-.3c-.7-.1-1.2-.7-1.1-1.5l.7-5.4c.1-.7.8-1.2 1.5-1.1l3.5.4c5.5.8 8.5 3 7.7 8.9"/><path class="dst0" d="M52.1 80.5L51 83.4c-.3.7-1 .9-1.7.7 0 0-.8-.1-2.1-.5l-2-.7c-2.5-.9-3.9-.6-4.5 1.1l-.5 1.5 7.6 2.8c.7.3 1 1 .8 1.6l-1.1 2.9c-.3.7-1 1-1.7.7l-20.4-7.4c-.7-.3-1-1-.8-1.6l2.5-6.8c1.6-4.5 4.2-5.9 8.3-4.4l.9.3c2.7 1 4.3 2.5 4 5.2 1.8-2.1 4.4-2.1 7-1.2l1.8.7c1.1.4 2 .5 2 .5.9.2 1.2 1 1 1.7m-17.8-1.6c-1.7-.6-2.7-.3-3.3 1.3l-.6 1.7 5.9 2.1.6-1.6c.6-1.7.3-2.6-1.5-3.2l-1.1-.3z"/><path id="dXMLID_19_" class="dst0" d="M62.4 63l-5.9 9c-.4.6-1.2.7-1.8.3L36.5 60.6c-.6-.4-.8-1.2-.4-1.8l5.7-8.8c.4-.6 1.2-.8 1.8-.4l1.9 1.2c.6.4.8 1.2.4 1.8l-3.3 5.1 3.8 2.5 2.7-4.2c.4-.6 1.2-.8 1.8-.4l1.9 1.2c.6.4.8 1.2.4 1.8l-2.7 4.2 4.3 2.8 3.5-5.4c.4-.6 1.2-.8 1.8-.4l2 1.3c.5.5.7 1.3.3 1.9"/><path id="dXMLID_18_" class="dst0" d="M76 48.1l-7.7 7.6c-.5.5-1.3.5-1.8 0L51.3 40.3c-.5-.5-.5-1.3 0-1.8l7.4-7.4c.5-.5 1.3-.5 1.8 0l1.6 1.6c.5.5.5 1.3 0 1.8l-4.3 4.3L61 42l3.6-3.5c.5-.5 1.3-.5 1.8 0l1.6 1.6c.5.5.5 1.3 0 1.8l-3.6 3.5 3.6 3.7 4.5-4.5c.5-.5 1.3-.5 1.8 0l1.7 1.7c.6.4.6 1.3 0 1.8"/><path id="dXMLID_17_" class="dst0" d="M95.3 34.8L91.7 37c-.6.4-1.2 0-1.8-.4l-11.3-9.8.1.1L86 39c.4.6.2 1.4-.4 1.8l-2.2 1.3c-.6.4-1.4.2-1.8-.5L70.3 23.1c-.4-.6-.2-1.4.4-1.8l3.8-2.3c.7-.4 1.3 0 1.8.4L87 28.6l-7-11.4c-.4-.6-.2-1.4.4-1.8l2.2-1.4c.6-.4 1.4-.2 1.8.4L95.7 33c.4.6.2 1.4-.4 1.8"/><path id="dXMLID_16_" class="dst0" d="M122 26.3c-4.8.9-7.8-.6-8.8-5.6-.1-.7.3-1.4 1-1.5l2.8-.5c.7-.1 1.3.4 1.5 1.1.3 1.5.9 2.5 2.9 2.2 1.3-.2 2-1.1 1.7-2.5l-.1-.8c-.3-1.7-2.2-2.3-5.3-2.9-3.8-.8-5.4-2.4-6.1-6.2-.8-4.7 1.3-7.1 5.8-7.8 4.6-.8 7.9.3 8.7 4.9.1.8-.3 1.3-1 1.5l-2.7.5c-.7.1-1.3-.3-1.5-1-.2-1.1-1-1.8-2.5-1.5-1.2.2-1.8.9-1.6 2.1l.1.7c.2 1.2 1.8 1.9 4.6 2.4 4.2.8 6.2 2.4 7 6.8 1 5-1.7 7.3-6.5 8.1"/><path id="dXMLID_15_" class="dst0" d="M147 24.5l-10.8-.3c-.7 0-1.3-.6-1.2-1.3l.5-21.7c0-.7.6-1.3 1.3-1.3l10.5.2c.7 0 1.3.6 1.3 1.3l-.1 2.2c0 .7-.6 1.3-1.3 1.3H141l-.1 4.6 5 .1c.7 0 1.3.6 1.3 1.3l-.1 2.3c0 .7-.6 1.3-1.3 1.3l-5-.1-.1 5.1 6.4.1c.7 0 1.3.6 1.3 1.3l-.1 2.4c0 .7-.6 1.3-1.3 1.2"/><path class="dst0" d="M169.6 29.1l-3-.8c-.7-.2-1-.9-.9-1.6l.3-3.1-4.3-1.1-1.2 2.8c-.3.7-.9 1.1-1.6 1l-2.9-.8c-.7-.2-1.2-.9-.9-1.6L164.7 4c.3-.7.9-1.1 1.6-1l5.4 1.4c.7.2 1 .9.9 1.6l-1.3 22.1c-.2.8-1 1.2-1.7 1m-2.1-20.2l-4.1 9.5 3.1.8 1-10.3z"/><path id="dXMLID_12_" class="dst0" d="M187.6 37.5l-9.3-4.8c-.6-.3-.9-1.1-.5-1.7l9.9-19.3c.3-.6 1.1-.9 1.7-.6l2.8 1.4c.6.3.9 1.1.5 1.7l-8.3 16 5.4 2.8c.6.3.9 1.1.6 1.7l-1.1 2.1c-.3.8-1 1-1.7.7"/><path id="dXMLID_11_" class="dst0" d="M90.4 227.9c-6.3-2.8-5.8-7-3.3-12.6l2.1-4.5c2.5-5.5 5.5-8.4 11.6-5.7 5.2 2.3 6 5.2 3.7 10.3-.3.6-1 1-1.7.7l-2.7-1.2c-.7-.3-.9-1.1-.6-1.7.1-.2 1.5-2.7-.6-3.6-1.4-.6-2.5.1-3.3 1.9l-3.9 8.6c-.7 1.6-.6 2.9.8 3.6 2.2 1 3.5-2.7 3.5-2.7.3-.6 1-1 1.7-.7l2.8 1.3c.7.3.9 1.1.6 1.7-2.4 4.8-5.3 7-10.7 4.6"/><path id="dXMLID_10_" class="dst0" d="M122.4 236.8l-10.6-2c-.7-.1-1.1-.8-1-1.5l4.1-21.3c.1-.7.8-1.2 1.5-1.1l10.3 1.9c.7.1 1.2.8 1.1 1.5l-.4 2.2c-.1.7-.8 1.2-1.5 1l-6-1.1-.8 4.5 4.9.9c.7.1 1.2.8 1.1 1.5l-.4 2.2c-.1.7-.8 1.2-1.5 1l-4.9-.9-1 5.1 6.3 1.2c.7.1 1.2.8 1.1 1.5l-.4 2.3c-.5.8-1.2 1.2-1.9 1.1"/><path class="dst0" d="M151.4 237.4l-3.1.1c-.7 0-1.2-.5-1.3-1.3 0 0-.3-.8-.3-2.1l-.1-2.1c-.1-2.6-1-3.8-2.8-3.7l-1.6.1.4 8.1c0 .7-.5 1.3-1.2 1.4l-3.1.1c-.7 0-1.3-.5-1.3-1.2l-1-21.7c0-.7.5-1.3 1.2-1.4l7.3-.3c4.8-.2 7 1.6 7.2 5.9l.1 1c.1 2.8-.7 4.9-3.2 5.7 2.6.8 3.7 3.2 3.8 6l.1 1.9c.1 1.1.3 2 .3 2 0 .8-.7 1.5-1.4 1.5m-5.3-17.1c-.1-1.8-.8-2.6-2.5-2.5l-1.8.1.3 6.2 1.7-.1c1.8-.1 2.5-.8 2.4-2.6l-.1-1.1z"/><path id="dXMLID_7_" class="dst0" d="M172.7 212.7l-3.3.9 5.1 17.5c.2.7-.2 1.4-.9 1.6l-3 .9c-.7.2-1.4-.2-1.6-.9l-5.1-17.5-3.3.9c-.7.2-1.4-.2-1.6-.9l-.6-2.2c-.2-.7.2-1.4.9-1.6l12-3.4c.7-.2 1.4.1 1.6.9l.6 2.1c.3.8-.1 1.5-.8 1.7"/><path id="dXMLID_6_" class="dst0" d="M195.1 223.8l-2.8 1.4c-.6.3-1.4.1-1.7-.6l-10-19.2c-.3-.6-.1-1.4.5-1.7l2.8-1.5c.6-.3 1.4-.1 1.7.6l10.1 19.3c.4.6.1 1.3-.6 1.7"/><path id="dXMLID_5_" class="dst0" d="M205.3 193.1l-4.6 3.7 3.1 3.9 3.6-2.9c.6-.4 1.4-.4 1.8.2l1.4 1.8c.5.6.4 1.4-.2 1.8l-3.6 2.9 5.3 6.6c.4.6.4 1.4-.2 1.8l-2.4 1.9c-.6.4-1.4.3-1.8-.2l-13.6-16.9c-.4-.6-.4-1.4.2-1.8l8-6.4c.6-.4 1.4-.4 1.8.2l1.4 1.7c.4.4.4 1.3-.2 1.7"/><path id="dXMLID_4_" class="dst0" d="M230.6 194.6l-2 2.4c-.5.6-1.3.6-1.8.1l-16.6-14c-.6-.5-.6-1.3-.2-1.8l2-2.4c.5-.6 1.3-.6 1.8-.1l16.6 14c.6.4.7 1.2.2 1.8"/><path id="dXMLID_3_" class="dst0" d="M245.7 171.4l-5.2 9.5c-.3.6-1.1.8-1.8.5l-19-10.4c-.6-.3-.9-1.1-.5-1.7l5-9.2c.3-.6 1.1-.9 1.7-.5l2 1.1c.6.3.9 1.1.5 1.8l-2.9 5.3 4 2.2 2.4-4.4c.3-.6 1.1-.9 1.7-.5l2 1.1c.6.4.9 1.1.5 1.8l-2.4 4.4 4.5 2.5 3.1-5.6c.3-.6 1.1-.9 1.7-.5l2.1 1.1c.7.1.9.9.6 1.5"/><path class="dst0" d="M253.4 150.6l-1.6 6c-.2.7-.9 1.1-1.6.9l-20.9-5.7c-.7-.2-1.1-.9-.9-1.6l1.7-6.3c1.6-5.7 5.1-6.8 12.3-4.9l2.7.7c7.3 2.2 9.9 4.8 8.3 10.9m-14.5-6.5c-2.7-.7-4.1-.3-4.7 1.7l-.3 1.3 14.5 3.9.4-1.3c.6-2.2-.5-3.1-3.4-3.9l-6.5-1.7z"/></svg><svg version="1.1" id="instagram" x="434.1" y="250" viewBox="0 0 50 50" xml:space="preserve" width="50" height="50" xmlns="http://www.w3.org/2000/svg"><style>.est0{fill:#fff}</style><path class="est0" d="M35.1 0H14.9C6.7 0 0 6.7 0 14.9v20.2C0 43.3 6.7 50 14.9 50h20.2C43.3 50 50 43.3 50 35.1V14.9C50 6.7 43.3 0 35.1 0zM45 35.1c0 5.5-4.4 9.9-9.9 9.9H14.9C9.4 45 5 40.5 5 35.1V14.9C5 9.4 9.4 5 14.9 5h20.2c5.5 0 9.9 4.4 9.9 9.9v20.2z"/><path class="est0" d="M25 12.1c-7.1 0-12.9 5.8-12.9 12.9S17.9 37.9 25 37.9 37.9 32.1 37.9 25 32.1 12.1 25 12.1zm0 20.8c-4.4 0-7.9-3.5-7.9-7.9s3.5-7.9 7.9-7.9 7.9 3.5 7.9 7.9-3.5 7.9-7.9 7.9z"/><circle class="est0" cx="38" cy="12.2" r="3.1"/></svg><svg version="1.1" id="linkedin" x="484.1" y="250" viewBox="0 0 50 50" xml:space="preserve" width="50" height="50" xmlns="http://www.w3.org/2000/svg"><style>.fst0{fill:#fff}</style><path class="fst0" d="M45.5 0h-41C2 0 0 2 0 4.5v41C0 48 2 50 4.5 50h41c2.5 0 4.5-2 4.5-4.5v-41C50 2 48 0 45.5 0zm-30 43.2c0 .7-.6 1.3-1.3 1.3H8.6c-.7 0-1.3-.6-1.3-1.3V19.7c0-.7.6-1.3 1.3-1.3h5.6c.7 0 1.3.6 1.3 1.3v23.5zm-4.1-27c-2.9 0-5.3-2.4-5.3-5.3s2.4-5.3 5.3-5.3 5.3 2.4 5.3 5.3-2.4 5.3-5.3 5.3zm33.4 27.1c0 .7-.5 1.2-1.2 1.2h-6c-.7 0-1.2-.5-1.2-1.2v-11c0-1.6.5-7.2-4.3-7.2-3.7 0-4.5 3.8-4.6 5.5v12.7c0 .7-.5 1.2-1.2 1.2h-5.8c-.7 0-1.2-.5-1.2-1.2V19.6c0-.7.5-1.2 1.2-1.2h5.8c.7 0 1.2.5 1.2 1.2v2c1.4-2.1 3.4-3.6 7.8-3.6 9.6 0 9.6 9 9.6 13.9v11.4h-.1z"/></svg><svg version="1.1" id="pinterest" x="255" y="75" viewBox="0 0 50 50" xml:space="preserve" width="50" height="50" xmlns="http://www.w3.org/2000/svg"><style>.gst0{fill:#fff}</style><path class="gst0" d="M50 25.7C50.4 11.5 38.8-.2 24.6 0 10.9.2-.1 11.5 0 25.2.1 35 5.8 43.5 14.1 47.5c.5.2 1-.1 1-.7-.1-1.6 0-3.3.3-4.7.3-1.4 1.6-6.6 2.4-10.1.4-1.7.5-3.4.1-5.1-.1-.6-.2-1.2-.2-1.9 0-3.7 2.1-6.4 4.8-6.4 2.3 0 3.4 1.7 3.4 3.7 0 2.3-1.5 5.7-2.2 8.9-.6 2.7 1.3 4.8 3.9 4.8 4.7 0 8.3-5 8.3-12.2 0-6.4-4.6-10.8-11.1-10.8-7.6 0-12 5.7-12 11.5 0 2.3.9 4.7 2 6.1.2.3.3.5.2.8-.2.8-.6 2.6-.7 3-.1.5-.4.6-.9.4C10.1 33.1 8 28.2 8 24.4 8 16 14.1 8.3 25.6 8.3c9.2 0 16.4 6.6 16.4 15.4 0 9.2-5.8 16.5-13.8 16.5-2.1 0-4.1-.9-5.3-2-.4-.4-1-.2-1.1.3-.4 1.6-1.1 4.2-1.3 5-.4 1.5-1.2 3.3-2 4.8-.2.4 0 .9.5 1 2 .5 4.2.8 6.4.8 12.9-.2 24.2-11.3 24.6-24.4z"/></svg><svg version="1.1" id="twitter" x="324" y="250" viewBox="0 0 60.1 50" xml:space="preserve" width="60.1" height="50" xmlns="http://www.w3.org/2000/svg"><style>.hst0{fill:#fff}</style><path class="hst0" d="M59.2 5.8c-1.3.6-2.7 1.1-4.1 1.4 1.6-1.5 2.8-3.3 3.4-5.4.2-.6-.5-1.1-1-.8-2 1.2-4.1 2-6.3 2.6h-.4c-.4 0-.8-.2-1.1-.4C47.2 1.1 44.2 0 41 0c-1.4 0-2.8.2-4.1.6-4.2 1.3-7.4 4.8-8.5 9.1-.4 1.6-.5 3.2-.3 4.8 0 .2-.1.3-.1.4-.1.1-.2.2-.4.2-9.2-1-17.5-5.4-23.3-12.6-.3-.4-.9-.3-1.1.1-1.2 2-1.8 4.2-1.8 6.5 0 3.5 1.4 6.8 3.9 9.2-1-.2-2-.6-3-1.1-.5-.3-1 .1-1 .6-.1 5.2 3 9.9 7.6 11.9h-.3c-.7 0-1.5-.1-2.2-.2-.5-.1-.9.4-.8.9 1.5 4.6 5.5 8.1 10.3 8.8-4 2.7-8.6 4.1-13.4 4.1H1c-.5 0-.9.3-1 .8-.1.4.1.9.5 1.1C5.9 48.3 12.1 50 18.4 50c5.5 0 10.6-1.1 15.3-3.2 4.3-2 8-4.8 11.2-8.4 2.9-3.3 5.3-7.2 6.8-11.5 1.5-4.1 2.3-8.4 2.3-12.5v-.2c0-.7.3-1.3.8-1.7 2-1.6 3.7-3.5 5.2-5.7.4-.5-.2-1.3-.8-1z"/></svg></svg>