<?xml version="1.0" encoding="utf-8"?>
<!-- Generator: Adobe Illustrator 23.0.1, SVG Export Plug-In . SVG Version: 6.00 Build 0)  -->
<svg version="1.1" id="layer" xmlns="http://www.w3.org/2000/svg" xmlns:xlink="http://www.w3.org/1999/xlink" x="0px" y="0px"
	 viewBox="0 0 226 250" style="enable-background:new 0 0 226 250;" xml:space="preserve">
<style type="text/css">
	.st0{fill:#FFFFFF;}
</style>
<path class="st0" d="M111.4,57.43c-19.62,0-35.5,15.88-35.5,35.5c0,19.62,15.88,35.55,35.5,35.5c19.62,0,35.5-15.88,35.5-35.5
	S131.03,57.43,111.4,57.43z M112.75,126.44c0.9-2.85,3-4.44,2.55-8.64c-3.55-1.2-4.94-4.54-7.59-6.59c0.05-3.1,0.45-4.64,2.55-6.59
	c0.2-1.88-0.98-2.39-1.49-3.52c-0.08,0-0.16,0.01-0.25,0.01c-0.71,0.2-0.54,1.33-1.81,0.96c-2.55-2.4-5.49-4.34-8.14-6.59
	c-6.49,1.05-7.79-6.94-9.14-12.68c-2.3,0.45,1.25,5.49-0.5,5.09c0.1-2.2-1.85-4.24-0.5-6.09c-2.5-6.64,3.55-10.39,4.54-16.23
	c-0.1-0.9-0.85-1.15-2.05-1c1.4-2.15,4.04-3.05,6.59-4.04c-0.3,2.5,2.65,1.75,3.55,3.05c0.45-0.15,0.45-1.35,0-1.5
	c0.5-1.45,2.15,0.15,3.05,0c0.3,1.15-0.95,0.7-1,1.5c0.05,1.4,3.3-0.6,1.55-1c1.15-1.8,1.4,1.6,2.55,1.5c-0.05-0.95-0.35-1.7-1-2.05
	c2.8-4.04,9.59-3.25,13.68-0.5c-0.15,1.7-1,2.65,0.5,4.04c-3.35,1.5-6.04-4.54-10.19-5.44c-1.2,0.45-1.35,2.05-3.55,1.5
	c2.3,0.75,4.94,1.1,6.59,2.55c-0.95,1-0.95,0.4-0.5,2.05c-1.5,0.15-1.55-1.15-3.05-1c0.65-0.65,0.65-1.9-0.5-2.05
	c-1.9,2.9-3.55,1.55-6.09,4.54c1.5,1.55,4.09,2,5.09,4.04c0.9-2.15,1.1-2.6,1-5.59c4.89,1.1,8.44,2.85,11.19,7.09h-2.55v-2
	c-1.2,0.8-3.25,0.8-4.54,1.5c1.45-0.6,1.65,1.7,4.04,1.5c-2.2,1.1-7.49,3.1-7.09,7.59c-1.3,0.9-2.4,2-3.55,3.05
	c0.1,1.6,1.15,2.25,1,4.04c-2.15,0.45-1.1-2.3-2.05-3.05c-5.44-2.05-13.33,2.8-7.59,8.14c3.25,0.85,1.85-2.9,5.09-2.05
	c-0.75,0.95-0.55,2.85-1.5,3.55c0.85,1,3.55,0.15,4.04,1.5c-1.05,1.1-0.4,3.4,0.5,4.04c0.95,0.03,1.69,0.05,2.31,0.03
	c0.07-0.02,0.15-0.03,0.23-0.03c0,0.01,0.01,0.02,0.01,0.02c1.88-0.1,2.54-0.65,4.53-2.57c4.59,0.45,9.74,2.35,14.18,3.55
	c-0.35,1.55,0.9,1.5,0.5,3.05c3.2,0.35,4.34-0.3,7.09,0.5C131.58,116.5,124.29,123.54,112.75,126.44z"/>
<path class="st0" d="M157.39,105.46c-0.15-1.8-0.55-3.89-0.35-5.19c0.2-1.2,1.5-2.8,1.75-4.69c0.3-2.35,0-5.24,0-8.14
	c0-7.14,0.2-13.48,0-20.72c-0.05-2.2-0.2-3.05-1.55-2.75c-0.1,0-0.5-0.05-0.5,0.05c-3.2,3.79-3.99,8.79-4.34,16.43
	c-0.2,3.99-0.35,7.94-0.35,11.93c0,1.45-0.3,3.05-0.15,3.99c0.25,1.6,1.7,2.25,1.9,3.79c0.25,1.95-0.25,4.49-0.35,6.89
	c-0.29,5.63-0.83,11.62-1,17.23h6.17C158.35,117.84,157.83,111.99,157.39,105.46z"/>
<path class="st0" d="M69.66,122.54c-0.4-9.79-1.55-19.52-1.55-29.21c0.6-1.75,2.75-2.5,3.3-4.49c0.8-2.7-0.05-7.24-0.5-11.04
	c-0.3-2.8-0.45-5.54-0.85-7.94c-0.1-0.75-0.15-1.85-0.85-2.1c0.05,4.09,0.4,8.19,0.5,12.43c0.05,1.4,0.4,3.45-0.5,3.99
	c-0.85-4.39-0.7-10.19-1.2-14.53c-0.05-0.6,0.05-1.5-0.5-1.9c-0.2,3.65,0,7.44,0,12.08c0,1.4,0.3,3.05-0.35,4.34
	c-0.75-1.75-0.4-3.99-0.5-6.24c-0.1-2.7-0.25-5.49-0.35-8.14c0-0.75,0.1-1.7-0.5-2.1c-0.25,3.89-0.3,8.84-0.35,12.98
	c0,1.25,0.3,2.75-0.5,3.45c-0.85-0.95-0.45-2.55-0.5-3.79c-0.2-4.54-0.25-9.44-0.35-12.43c-0.05-0.1-0.15-0.2-0.35-0.15
	c-0.65,3.6-0.85,9.64-1.15,14.83c-0.1,1.95-0.55,4.84,0,6.39c0.7,2,3.2,2.5,3.65,4.84c0.1,0.65,0.05,1.75,0,2.6
	c-0.2,5.79-1.25,12.43-1.75,18.48c-0.25,3.01-0.33,5.81-0.34,9.39h5.56C69.71,123.63,69.68,123.04,69.66,122.54z"/>
<g>
	<path class="st0" d="M105.61,77.9c-0.05-0.85,0.4-1.3,1-1.5c0.05,0.95,0.35,1.7,1,2.05c0.05-1.3,2-0.75,2.05-2.05
		c-1.35-0.4-1,0.95-2,0.95c0.2-1.85-3.15-3.35-3.55-1.5C107.01,75.2,103.96,77.3,105.61,77.9z"/>
	<path class="st0" d="M108.52,101.1c0.08,0,0.17-0.01,0.25-0.01c0-0.01-0.01-0.02-0.01-0.02
		C108.67,101.07,108.59,101.08,108.52,101.1z"/>
	<path class="st0" d="M43.94,104.31c0-37.85,30.81-68.66,68.66-68.66s68.66,30.81,68.66,68.66c0,6.94-1.04,13.65-2.97,19.97h36.49
		c1.26-6.47,1.93-13.14,1.93-19.97C216.71,46.89,169.97,0.2,112.6,0.2S8.49,46.89,8.49,104.31c0,6.83,0.67,13.51,1.93,19.97h36.49
		C44.98,117.96,43.94,111.26,43.94,104.31z M204.83,84.39l-3.1,0.9l-1.25-4.19l-10.79,3.2l-1-3.35l10.79-3.2l-1.25-4.19l3.1-0.9
		L204.83,84.39z M195.34,59.82l-2.3,4.64c-0.7,1.4-2.45,4.79-2.45,4.79s2.3-1.2,4.64-2.4l2.95-1.5l1.55,3.1l-12.93,6.59l-1.5-2.9
		l2.25-4.49c1-2,2.6-4.99,2.6-4.99s-2,1.05-4.79,2.5l-2.85,1.45l-1.6-3.1l12.93-6.59L195.34,59.82z M186.25,46.34l2,2.6l-7.89,13.48
		l-2.3-2.95l1.25-2.1l-3.5-4.54l-2.3,0.75l-2.3-2.95L186.25,46.34z M175.52,35.16c2.7,2.45,3.05,5.39,1.05,7.59
		c-1.3,1.45-2.95,1.9-4.74,1.4l-1.15,6.14l-2.95-2.65l1.15-5.29l-1.35-1.2l-3.15,3.5l-2.6-2.3l9.69-10.79L175.52,35.16z
		 M152.15,28.47l4.19-6.89l2.95,1.8l-4.14,6.79c-1.3,2.15-1,3.55,0.65,4.54c1.65,1,3.05,0.6,4.34-1.5l4.14-6.79l3,1.85l-4.19,6.89
		c-2.3,3.7-5.69,4.39-8.99,2.4C150.8,35.56,149.9,32.16,152.15,28.47z M148.55,18.18l0.1,15.63l-3.5-1.35l0.1-2.45l-5.34-2.1
		l-1.6,1.8l-3.5-1.35l10.69-11.38L148.55,18.18z M127.03,12.04l11.98,2.6l-0.7,3.2l-4.34-0.95l-2.4,10.99l-3.4-0.75l2.4-10.99
		l-4.24-0.95L127.03,12.04z M116.05,19.28c-1.7-0.75-3.65-1.85-3.5-4.39c0.15-2.25,2.55-4.19,5.64-3.99c2.8,0.15,4.84,2,5.44,4.29
		l-3.45,0.8c-0.3-1.3-1.35-1.95-2.4-2.05c-1.05-0.05-1.65,0.4-1.7,1c-0.05,0.95,1.35,1.4,3.1,2.15c2.1,0.9,4.29,2.25,4.14,4.74
		c-0.15,2.65-2.55,4.39-5.89,4.19c-3-0.15-5.09-2-5.84-4.74l3.4-0.7c0.3,1.1,1.3,2.25,2.8,2.35c1.25,0.05,1.85-0.45,1.9-1.2
		C119.74,20.58,118.09,20.18,116.05,19.28z M108.41,11.04l0.35,3.25l-7.04,0.7l0.25,2.4l5.49-0.55l0.3,3l-5.49,0.55l0.25,2.6
		l7.14-0.75l0.35,3.25l-10.64,1.05l-1.45-14.43L108.41,11.04z M86.98,14.68c3.5-1,6.14,0.35,6.99,3.2c0.55,1.9,0,3.55-1.4,4.74
		l4.54,4.29l-3.75,1l-3.89-3.79l-1.7,0.5l1.3,4.54l-3.35,0.95l-3.94-13.98L86.98,14.68z M61.87,25.92l4.74,2
		c1.45,0.6,4.94,2.15,4.94,2.15s-1.35-2.2-2.65-4.44l-1.7-2.85l2.95-1.85l7.39,12.48l-2.8,1.65l-4.59-1.95
		c-2.05-0.9-5.14-2.3-5.14-2.25c0,0,1.15,1.9,2.8,4.64l1.65,2.75l-3,1.8l-7.39-12.48L61.87,25.92z M54.28,31.11l2.15,2.45
		l-5.34,4.64l1.6,1.8l4.14-3.65l2,2.3l-4.14,3.65l1.7,1.95l5.39-4.74l2.15,2.4l-7.99,7.09l-9.59-10.94L54.28,31.11z M42.39,42.2
		l2.5,2.05l-4.39,5.49l1.85,1.5l3.45-4.29l2.4,1.9l-3.5,4.29l2,1.65l4.54-5.59l2.5,2l-6.69,8.34l-11.29-9.14L42.39,42.2z
		 M37.9,77.15c-1.05-0.3-1.25-0.4-1.25-0.4c0.6,1.1,0.65,2.85,0.2,4.19c-1.3,3.94-5.34,6.19-9.49,4.84
		c-4.14-1.35-6.14-5.49-4.84-9.49c0.85-2.7,3.05-4.59,5.69-5.09l-0.2,3.65c-1,0.4-1.85,1.4-2.2,2.5c-0.75,2.3,0.45,4.24,2.7,4.94
		c2.45,0.8,4.49-0.35,5.19-2.65c0.7-2.2-0.1-3.55-1-4.24l-1.15,3.65l-2.65-0.85l2.1-6.44l7.79,2.55L37.9,77.15z M41.64,68.71
		l-1.7,3.05l-12.68-6.99l2.6-4.74c1.75-3.2,4.54-4.14,7.19-2.7c1.7,0.95,2.55,2.45,2.4,4.29l6.24-0.25l-1.9,3.4l-5.44,0.1
		l-0.85,1.55L41.64,68.71z"/>
	<path class="st0" d="M173.87,40.3c0.5-0.6,0.8-1.6-0.15-2.45l-1.8-1.6l-2.3,2.55l1.8,1.6C172.37,41.25,173.32,40.85,173.87,40.3z"
		/>
	<path class="st0" d="M145.41,23.77c0-0.9,0.15-2.25,0.1-2.25c0,0-0.85,1.05-1.45,1.75l-2,2.25l3.3,1.25L145.41,23.77z"/>
	<path class="st0" d="M182.61,52.08c0.45-0.75,1.25-1.85,1.25-1.85s-1.25,0.5-2.1,0.75l-2.85,0.9l2.1,2.75L182.61,52.08z"/>
	<path class="st0" d="M89.23,20.93c1.2-0.35,1.4-1.35,1.2-2.15c-0.2-0.75-0.95-1.5-2.15-1.2l-2.3,0.65l0.95,3.35L89.23,20.93z"/>
	<path class="st0" d="M35.3,60.47c-0.7-0.4-1.75-0.4-2.35,0.7l-1.15,2.1l3,1.65l1.15-2.1C36.55,61.72,35.95,60.82,35.3,60.47z"/>
</g>
<g>
	<path class="st0" d="M60.47,174.12l-1.45-1.1l-3.1,4.09l1.45,1.1c1.05,0.8,2.55,0.75,3.5-0.5
		C61.82,176.42,61.52,174.92,60.47,174.12z"/>
	<path class="st0" d="M103.01,191.1l-1.55-0.2l-0.25,2.25l1.55,0.2c0.8,0.1,1.2-0.45,1.25-1
		C104.06,191.85,103.81,191.2,103.01,191.1z"/>
	<path class="st0" d="M157.29,185.21c1.35-0.75,1.65-2.2,0.9-3.55c-0.75-1.35-2.15-1.8-3.5-1.05c-1.3,0.75-1.65,2.15-0.9,3.55
		C154.59,185.51,155.99,185.96,157.29,185.21z"/>
	<path class="st0" d="M112.6,172.97c-11.36,0-22.09-2.78-31.54-7.69H28.25c18.93,26.12,49.68,43.14,84.35,43.14
		s65.42-17.02,84.35-43.14h-52.81C134.69,170.19,123.96,172.97,112.6,172.97z M56.13,179.86l-3.25-2.5l5.64-7.44l3.25,2.5
		c2.15,1.6,2.7,4.44,1,6.69C61.07,181.36,58.22,181.51,56.13,179.86z M62.17,184.14l4.95-7.91l1.9,1.19l-4.95,7.91L62.17,184.14z
		 M72.45,189.9l-0.55-3.2c-0.25-1.45-0.55-3.6-0.55-3.6s-0.65,1.3-1.55,3.1l-0.95,1.85l-2-1l4.19-8.34l1.9,0.95l0.6,3.3
		c0.15,1,0.55,3.45,0.55,3.45s0.75-1.5,1.5-3l0.95-1.9l2,1l-4.19,8.34L72.45,189.9z M86.39,187.65l-4.29-1.55l-0.5,1.45l3.35,1.2
		l-0.7,1.85l-3.35-1.2l-0.55,1.55l4.34,1.6l-0.7,1.95l-6.44-2.35l3.15-8.74l6.39,2.3L86.39,187.65z M91.53,194.49
		c1.45,0.35,2.25-0.25,2.7-0.85l-2.4-0.55l0.4-1.75l4.24,1l-1.25,5.14l-1.85-0.45c0.15-0.65,0.2-0.8,0.2-0.8
		c-0.65,0.45-1.8,0.55-2.7,0.35c-2.6-0.6-4.24-3.1-3.6-5.84s3.25-4.24,5.84-3.6c1.75,0.4,3.1,1.75,3.55,3.4l-2.35,0.05
		c-0.3-0.6-1-1.15-1.7-1.3c-1.5-0.35-2.7,0.5-3.05,2C89.18,192.9,90.03,194.15,91.53,194.49z M106.26,192.65
		c-0.15,1.25-0.85,2.1-2,2.5l1.65,3.65l-2.4-0.3l-1.4-3.2l-1.15-0.15l-0.35,3.05l-2.25-0.25l1.05-9.29l3.45,0.4
		C105.21,189.3,106.46,190.75,106.26,192.65z M115.6,191.75l-4.54-0.1L111,193.2l3.6,0.05l-0.05,1.95l-3.55-0.05l-0.05,1.65
		l4.64,0.1l-0.05,2.1l-6.89-0.15l0.2-9.34l6.74,0.15V191.75z M118.84,198.79l-0.95-9.34l6.74-0.65l0.2,2.05l-4.49,0.5l0.15,1.5
		l3.55-0.35l0.2,1.95l-3.55,0.35l0.15,1.65l4.59-0.45l0.25,2.1L118.84,198.79z M135.12,196.19l-2.45-2.1c-1.1-0.95-2.7-2.4-2.7-2.4
		s0.35,1.4,0.75,3.4l0.45,2l-2.2,0.5l-2.05-9.09l2.05-0.45l2.55,2.15c0.75,0.65,2.6,2.3,2.6,2.3s-0.35-1.6-0.75-3.25l-0.45-2.1
		l2.2-0.5l2.05,9.09L135.12,196.19z M141.11,194.69c-0.6,0.15-1.2-0.15-1.35-0.7c-0.15-0.55,0.15-1.15,0.7-1.3
		c0.55-0.15,1.15,0.15,1.3,0.7C141.96,193.95,141.66,194.54,141.11,194.69z M161.04,174.27l3.1,1.2c1.2,0.5,1.45,0.6,1.45,0.6
		s-0.05-0.25-0.15-1.55l-0.3-3.3l1.6-1.25l5.59,7.49l-1.75,1.3l-1.35-1.85c-1.35-1.75-1.95-2.7-1.95-2.7s0.15,1.5,0.2,1.65
		l0.25,2.15l-0.95,0.7l-2-0.85c-0.15-0.05-1.5-0.65-1.5-0.6c0,0,0.7,0.85,2.05,2.6l1.35,1.85l-1.75,1.3l-5.59-7.49L161.04,174.27z
		 M153.6,178.67c2.35-1.3,5.24-0.6,6.59,1.85c1.4,2.45,0.5,5.29-1.85,6.64c-2.35,1.3-5.24,0.6-6.59-1.85
		C150.4,182.86,151.25,180.01,153.6,178.67z M149.25,183.91l-1.8,1.35c-0.6-0.35-1.45-0.35-2.15-0.05c-1.45,0.6-1.9,1.95-1.35,3.4
		c0.6,1.5,1.95,2.05,3.3,1.5c0.85-0.35,1.45-1.1,1.55-1.8l2.35-0.3c-0.1,1.85-1.25,3.45-3.05,4.19c-2.5,1-5.24-0.05-6.34-2.65
		c-1.05-2.6,0.15-5.29,2.65-6.34C146.11,182.51,147.95,182.86,149.25,183.91z"/>
</g>
<g>
	<path class="st0" d="M75,136.92h-2.8v7.09H75v0.05c2.9,0,4.49-0.95,4.49-3.4C79.49,137.97,77.6,136.92,75,136.92z"/>
	<path class="st0" d="M226,124.29h-11.22h-36.49h-19.68h-6.17h-39h-0.95H69.73h-5.56H46.91H10.42H0l7.64,20.52L0,165.28h28.25h52.81
		h31.44h0.95h30.69h52.81H226l-7.64-20.47L226,124.29z M38.3,150.45c-0.35,0.7-2.75,5.99-10.54,5.99c-2.31,0-4.46-0.61-6.25-1.75
		c-3.06-1.95-5.08-5.44-5.08-10.13c0-0.12,0.01-0.23,0.01-0.35c0.16-7.41,5.42-11.28,11.03-11.28c3.6,0,5.49,1.55,6.39,2.85
		l-0.05-2.2c-0.05-0.3,0.15-0.45,0.45-0.45h3.2c0.3,0,0.45,0.15,0.45,0.45v7.64c0,0.3-0.2,0.45-0.45,0.45h-3.7
		c-0.3,0-0.45-0.15-0.45-0.45v-0.3c0-1.4-2.15-3.75-5.59-3.75c-3.5,0-6.49,2.55-6.49,7.44c0,4.74,3.35,7.39,6.74,7.39
		c4.94,0,6.59-2.9,7.09-3.75c0.15-0.3,0.4-0.3,0.65-0.15l2.45,1.65C38.4,149.95,38.4,150.15,38.3,150.45z M60.92,155.7
		c0,0.3-0.2,0.45-0.45,0.45H42.59v0.05c-0.3,0-0.45-0.15-0.45-0.45v-2.95c0-0.3,0.15-0.45,0.45-0.45h2.2v-15.43h-2.2
		c-0.3,0-0.45-0.15-0.45-0.45v-2.95c0-0.3,0.15-0.45,0.45-0.45h7.67h10.2c0.25,0,0.45,0.15,0.45,0.45v6.49
		c0,0.3-0.15,0.45-0.45,0.45h-3.05c-0.3,0-0.45-0.15-0.45-0.45v-3.1H52.2h-2.86v5.84h6.34c0.03,0,0.05,0.01,0.08,0.01
		c0.24,0.03,0.37,0.17,0.37,0.44v0.09v2.85c0,0.3-0.2,0.45-0.45,0.45h-6.34v5.74h7.64v-3.1c0-0.3,0.15-0.45,0.45-0.45h2.93h0.11
		c0.3,0,0.45,0.15,0.45,0.45v0.2V155.7z M85.99,155.8c0,0.3-0.15,0.45-0.45,0.45h-3.94v-0.05c-1.1,0-1.75-0.75-2.3-1.95l-2.55-5.19
		c-0.35-0.7-0.85-1.4-1.95-1.45h-2.6v4.74h2.75c0.3,0,0.45,0.15,0.45,0.45v2.95c0,0.3-0.2,0.45-0.45,0.45h-7.27h-2.17
		c-0.3,0-0.45-0.15-0.45-0.45v-1.95v-1c0-0.3,0.15-0.45,0.45-0.45h2.2v-15.43h-2.2c-0.3,0-0.45-0.15-0.45-0.45v-2.77v-0.17
		c0-0.3,0.15-0.45,0.45-0.45h3.71h6.88c4.64,0,7.94,2.9,7.94,7.44c0,3.05-1.45,5.14-3.99,6.19c0.4,0.4,0.85,0.95,1.25,1.75
		l2.15,3.94h2.1c0.3,0,0.45,0.15,0.45,0.45V155.8z M109.06,140.62c0,0.3-0.2,0.5-0.5,0.5h-3.2c-0.3,0-0.5-0.2-0.5-0.5v-3.65h-3.89
		v15.43h2.1c0.3,0,0.5,0.2,0.5,0.5v2.8c0,0.3-0.2,0.5-0.5,0.5h-8.79c-0.3,0-0.5-0.25-0.5-0.5v-2.8c0-0.3,0.25-0.5,0.5-0.5h2.15
		v-15.43h-4.04v3.65c0,0.3-0.2,0.5-0.5,0.5h-3.2c-0.3,0-0.5-0.2-0.5-0.5v-6.99c0-0.3,0.2-0.5,0.5-0.5h19.87c0.3,0,0.5,0.2,0.5,0.5
		V140.62z M122.99,136.47c0,0.3-0.2,0.45-0.45,0.45h-2.25v15.43h2.25c0.3,0,0.45,0.15,0.45,0.45v2.95c0,0.3-0.2,0.45-0.45,0.45
		h-8.94c-0.3,0-0.45-0.15-0.45-0.45v-2.95c0-0.3,0.15-0.45,0.45-0.45h2.2v-15.43h-2.2c-0.3,0-0.45-0.15-0.45-0.45v-2.95
		c0-0.3,0.15-0.45,0.45-0.45h8.94c0.3,0,0.45,0.15,0.45,0.45V136.47z M142.11,140.47c-0.3,0-0.45-0.15-0.45-0.45v-3.1h-7.44v5.84
		h6.09c0.3,0,0.45,0.15,0.45,0.45v2.95c0,0.3-0.15,0.45-0.45,0.45h-6.09v5.74h3.89c0.3,0,0.45,0.15,0.45,0.45v2.95
		c0,0.3-0.2,0.45-0.45,0.45h-10.59c-0.3,0-0.45-0.15-0.45-0.45v-2.95c0-0.3,0.15-0.45,0.45-0.45h2.2v-15.43h-2.2
		c-0.3,0-0.45-0.15-0.45-0.45v-2.95c0-0.3,0.15-0.45,0.45-0.45h17.63c0.3,0,0.45,0.15,0.45,0.45v6.49c0,0.3-0.15,0.45-0.45,0.45
		H142.11z M159.49,155.75c0,0.3-0.2,0.45-0.45,0.45h-1.52h-7.42c-0.3,0-0.45-0.15-0.45-0.45v-2.95c0-0.3,0.15-0.45,0.45-0.45h2.2
		v-15.43h-2.2c-0.3,0-0.45-0.15-0.45-0.45v-2.95c0-0.3,0.15-0.45,0.45-0.45h2.47h6.21h0.26c0.3,0,0.45,0.15,0.45,0.45v2.95
		c0,0.3-0.2,0.45-0.45,0.45h-0.61h-1.64v2.3v13.13h2.25c0.3,0,0.45,0.15,0.45,0.45v1.61V155.75z M182.36,140.02
		c0,0.3-0.15,0.45-0.45,0.45h-3.05c-0.3,0-0.45-0.15-0.45-0.45v-3.1h-5.41h-2.23v3.81v2.03h6.29c0.3,0,0.45,0.15,0.45,0.45v2.95
		c0,0.3-0.2,0.45-0.45,0.45h-6.34v5.74h7.64v-3.1c0-0.3,0.15-0.45,0.45-0.45h3.05c0.3,0,0.45,0.15,0.45,0.45v6.44
		c0,0.3-0.2,0.45-0.45,0.45h-17.83v0.05c-0.3,0-0.45-0.15-0.45-0.45v-2.95c0-0.3,0.15-0.45,0.45-0.45h2.2v-5.22v-10.21h-2.2
		c-0.3,0-0.45-0.15-0.45-0.45v-2.95c0-0.3,0.15-0.45,0.45-0.45h10.9h6.98c0.25,0,0.45,0.15,0.45,0.45V140.02z M204.59,153.03
		c-1.92,2.04-4.6,3.17-7.56,3.17h-10.19v0c-0.25,0-0.45-0.15-0.45-0.45v-2.95c0-0.3,0.15-0.45,0.45-0.45h2.25v-15.43h-2.25
		c-0.25,0-0.45-0.15-0.45-0.45v-2.95c0-0.3,0.15-0.45,0.45-0.45h8.89c6.54,0,11.83,4.19,11.83,11.73c0,0.96-0.09,1.87-0.26,2.72
		C206.88,149.76,205.92,151.62,204.59,153.03z"/>
	<path class="st0" d="M195.09,136.97h-1.55v15.43h1.85c4.74-0.05,7.44-2.15,7.44-7.44C202.83,139.67,200.08,136.97,195.09,136.97z"
		/>
</g>
<path class="st0" d="M56.13,143.21c0-0.27-0.13-0.41-0.37-0.44c0.12,0.18,0.25,0.35,0.37,0.53V143.21z"/>
<path class="st0" d="M60.47,148.81h-0.11c0.19,0.22,0.37,0.44,0.56,0.65v-0.2C60.92,148.96,60.77,148.81,60.47,148.81z"/>
<path class="st0" d="M159.04,136.92c0.25,0,0.45-0.15,0.45-0.45v-2.95c0-0.3-0.15-0.45-0.45-0.45h-0.26
	c-0.02,1.44-0.09,2.78-0.35,3.84H159.04z"/>
<path class="st0" d="M159.04,156.2c0.25,0,0.45-0.15,0.45-0.45v-1.33c-0.65,0.61-1.3,1.2-1.97,1.78H159.04z"/>
<path class="st0" d="M73.2,219.91c-8.29,0-14.98,6.74-14.98,14.98c0,8.29,6.69,14.98,14.98,14.98c8.29,0,14.98-6.69,14.98-14.98
	S81.49,219.91,73.2,219.91z M78.75,244.48l-5.54-5.89l-5.54,5.89l2.35-7.74l-7.89-1.85l7.89-1.85l-2.35-7.74l5.54,5.89l5.54-5.89
	l-2.35,7.74l7.89,1.85l-7.89,1.85L78.75,244.48z"/>
<path class="st0" d="M111.45,219.91c-8.29,0-14.98,6.74-14.98,14.98c0,8.29,6.69,14.98,14.98,14.98c8.29,0,14.98-6.69,14.98-14.98
	S119.74,219.91,111.45,219.91z M116.94,244.48l-5.54-5.89l-5.54,5.89l2.35-7.74l-7.84-1.85l7.84-1.85l-2.35-7.74l5.54,5.89
	l5.54-5.89l-2.35,7.74l7.89,1.85l-7.89,1.85L116.94,244.48z"/>
<path class="st0" d="M149.65,219.91c-8.29,0-14.98,6.74-14.98,14.98c0,8.29,6.69,14.98,14.98,14.98c8.29,0,14.98-6.69,14.98-14.98
	S157.94,219.91,149.65,219.91z M155.19,244.48l-5.54-5.89l-5.54,5.89l2.35-7.74l-7.89-1.85l7.89-1.85l-2.35-7.74l5.54,5.89
	l5.54-5.89l-2.35,7.74l7.84,1.85l-7.84,1.85L155.19,244.48z"/>
</svg>
