<?xml version="1.0" encoding="utf-8"?>
<!-- Generator: Adobe Illustrator 23.0.1, SVG Export Plug-In . SVG Version: 6.00 Build 0)  -->
<svg version="1.1" id="图层_1" xmlns="http://www.w3.org/2000/svg" xmlns:xlink="http://www.w3.org/1999/xlink" x="0px" y="0px"
	 viewBox="0 0 255 238" style="enable-background:new 0 0 255 238;" xml:space="preserve">
<style type="text/css">
	.st0{fill:#FFFFFF;}
</style>
<path id="XMLID_27_" class="st0" d="M242.29,57.18c-3.15-4.1-8.52-6.47-13.88-7.42c-14.51-1.43-28.7,1.56-42.1,4.87
	c-1.38,0.41-2.75,0.85-4.12,1.29c-45.15,14.36-86,40.86-117.96,74.64c-6.92,7.32-13.44,14.97-19.48,22.92
	c0,0-25.26-20.56-43.42-25.55l-0.25-0.12c24.42,31.27,31.2,63.58,36.76,93.35l6.46-13.89c13.27-29.23,33.41-55.99,55.25-79.35
	c27.62-28.68,59.95-56.1,99.23-69.48c12.78-3.3,33.12-9.12,42.57,3.34c5.83,9.31,0.93,21.29-3.01,30.28l1.89,0.47
	C245.59,82.41,249.85,67.43,242.29,57.18"/>
<g>
	<path class="st0" d="M193.11,64.54c-0.19,0.07-0.38,0.15-0.56,0.22c-37.34,18.1-66.07,49.29-89.95,81.15
		c-6.31,8.69-12.38,17.73-18.03,27.07c13.99,14.75,33.76,23.97,55.69,23.97c42.4,0,76.76-34.37,76.76-76.76
		C217.02,98.27,207.83,78.52,193.11,64.54z"/>
	<path class="st0" d="M180.38,54.75c-11.67-7.18-25.4-11.33-40.11-11.33c-42.39,0-76.76,34.37-76.76,76.76
		c0,2.7,0.15,5.36,0.43,7.98C95.63,95.02,135.91,68.99,180.38,54.75z"/>
</g>
<path class="st0" d="M243.55,113.49c2.98,0,5.36,2.42,5.36,5.45c0,3.07-2.38,5.47-5.38,5.47c-2.98,0-5.4-2.4-5.4-5.47
	c0-3.03,2.43-5.45,5.4-5.45H243.55 M243.53,114.34c-2.4,0-4.36,2.06-4.36,4.61c0,2.59,1.96,4.62,4.38,4.62
	c2.42,0.02,4.36-2.04,4.36-4.6s-1.94-4.63-4.36-4.63H243.53z M242.51,122.11h-0.97v-6.08c0.51-0.07,0.99-0.14,1.72-0.14
	c0.92,0,1.52,0.19,1.89,0.46c0.36,0.26,0.56,0.68,0.56,1.26c0,0.8-0.54,1.28-1.19,1.47v0.05c0.53,0.09,0.9,0.58,1.02,1.47
	c0.15,0.95,0.29,1.31,0.39,1.5h-1.02c-0.14-0.19-0.29-0.75-0.41-1.55c-0.15-0.77-0.53-1.07-1.31-1.07h-0.68V122.11z M242.51,118.75
	h0.71c0.8,0,1.47-0.29,1.47-1.04c0-0.53-0.39-1.07-1.47-1.07c-0.32,0-0.53,0.02-0.71,0.05V118.75z"/>
<path id="XMLID_22_" class="st0" d="M45.21,107.2c-0.87,6.82-4.64,7.7-10.75,6.91l-5.44-0.7c-5.9-0.76-9.48-3-8.67-9.36
	c0.53-4.1,2.36-7.44,7.92-6.72c0.71,0.09,1.23,0.71,1.14,1.42l-0.39,3.05c-0.09,0.71-0.74,1.18-1.46,1.09
	c-0.21-0.03-2.23-0.5-2.52,1.72c-0.2,1.59,0.75,2.44,2.68,2.68l9.71,1.24c1.84,0.23,2.94-0.39,3.15-1.98
	c0.3-2.34-3.64-2.51-3.64-2.51L36.56,104l-0.14,1.05c-0.1,0.75-0.75,1.22-1.46,1.13l-2.01-0.26c-0.71-0.09-1.19-0.7-1.09-1.46
	l0.69-5.4c0.09-0.71,0.75-1.18,1.46-1.09l3.47,0.44C43.01,99.13,45.97,101.29,45.21,107.2"/>
<path class="st0" d="M52.08,80.5l-1.07,2.94c-0.25,0.67-0.96,0.91-1.66,0.74c0,0-0.79-0.06-2.09-0.54l-1.98-0.72
	c-2.46-0.9-3.88-0.56-4.49,1.1l-0.55,1.51l7.61,2.77c0.67,0.25,1.04,0.96,0.79,1.64l-1.07,2.94c-0.25,0.67-0.99,0.99-1.66,0.74
	l-20.38-7.42c-0.67-0.25-1.04-0.97-0.79-1.64l2.48-6.82c1.64-4.48,4.21-5.88,8.29-4.39l0.91,0.33c2.65,0.97,4.25,2.49,4.04,5.16
	c1.77-2.14,4.37-2.13,7.03-1.17l1.83,0.67c1.07,0.39,1.96,0.53,1.96,0.53C51.99,79.03,52.33,79.83,52.08,80.5 M34.27,78.86
	c-1.66-0.61-2.69-0.26-3.27,1.32l-0.62,1.71l5.87,2.14l0.58-1.59c0.62-1.7,0.26-2.56-1.52-3.21L34.27,78.86z"/>
<path id="XMLID_19_" class="st0" d="M62.4,62.98l-5.88,9.06c-0.39,0.6-1.19,0.74-1.79,0.35l-18.19-11.8
	c-0.6-0.39-0.8-1.17-0.41-1.78l5.69-8.78c0.39-0.6,1.17-0.8,1.77-0.41l1.88,1.22c0.6,0.39,0.77,1.21,0.39,1.81l-3.31,5.1l3.82,2.48
	l2.73-4.21c0.39-0.6,1.17-0.8,1.78-0.41l1.91,1.24c0.6,0.39,0.78,1.21,0.39,1.81l-2.73,4.21l4.32,2.8l3.49-5.38
	c0.39-0.6,1.17-0.8,1.78-0.41l1.98,1.29C62.62,61.56,62.79,62.38,62.4,62.98"/>
<path id="XMLID_18_" class="st0" d="M76.04,48.07l-7.65,7.62c-0.51,0.51-1.31,0.48-1.82-0.03l-15.3-15.36
	c-0.51-0.51-0.53-1.31-0.03-1.82l7.42-7.38c0.51-0.51,1.31-0.53,1.82-0.03l1.58,1.59c0.51,0.51,0.51,1.34,0,1.85l-4.31,4.29
	l3.22,3.23l3.56-3.54c0.51-0.51,1.31-0.53,1.82-0.03l1.61,1.62c0.51,0.51,0.51,1.34,0,1.85l-3.56,3.54l3.63,3.65l4.54-4.53
	c0.51-0.51,1.31-0.53,1.82-0.03l1.67,1.68C76.55,46.73,76.55,47.57,76.04,48.07"/>
<path id="XMLID_17_" class="st0" d="M95.25,34.79L91.65,37c-0.61,0.38-1.23,0.02-1.8-0.43l-11.33-9.82l0.06,0.11l7.45,12.11
	c0.38,0.61,0.16,1.39-0.45,1.76l-2.16,1.33c-0.61,0.37-1.39,0.16-1.76-0.45L70.3,23.14c-0.38-0.61-0.22-1.4,0.39-1.78l3.77-2.32
	c0.65-0.4,1.26-0.04,1.8,0.43l10.71,9.11l-7-11.39c-0.38-0.61-0.22-1.4,0.39-1.78l2.19-1.35c0.61-0.38,1.39-0.16,1.76,0.45
	l11.38,18.5C96.07,33.63,95.86,34.41,95.25,34.79"/>
<path id="XMLID_16_" class="st0" d="M122.01,26.34c-4.77,0.86-7.82-0.61-8.77-5.62c-0.13-0.71,0.31-1.39,1.01-1.51l2.78-0.5
	c0.7-0.13,1.35,0.36,1.47,1.07c0.26,1.45,0.93,2.53,2.88,2.18c1.33-0.24,1.99-1.13,1.74-2.46l-0.14-0.79
	c-0.31-1.74-2.21-2.26-5.33-2.94c-3.75-0.83-5.44-2.37-6.14-6.23c-0.84-4.65,1.35-7.06,5.75-7.85c4.61-0.83,7.89,0.25,8.72,4.9
	c0.14,0.75-0.32,1.34-1.02,1.47l-2.7,0.48c-0.7,0.13-1.33-0.27-1.47-1.02c-0.2-1.08-0.97-1.8-2.5-1.52
	c-1.21,0.21-1.77,0.87-1.55,2.12l0.12,0.67c0.21,1.16,1.84,1.9,4.63,2.42c4.17,0.79,6.23,2.44,7,6.76
	C129.46,23.2,126.82,25.47,122.01,26.34"/>
<path id="XMLID_15_" class="st0" d="M147,24.54l-10.8-0.25c-0.72-0.02-1.25-0.62-1.23-1.34l0.5-21.68c0.01-0.72,0.58-1.29,1.29-1.28
	l10.46,0.24c0.72,0.02,1.3,0.58,1.28,1.3l-0.05,2.23c-0.01,0.72-0.62,1.29-1.34,1.28l-6.07-0.14l-0.11,4.56l5.02,0.12
	c0.72,0.02,1.29,0.58,1.28,1.29l-0.06,2.28c-0.01,0.72-0.62,1.29-1.33,1.28l-5.02-0.12l-0.12,5.14l6.41,0.15
	c0.72,0.01,1.3,0.58,1.28,1.29l-0.06,2.36C148.32,23.98,147.72,24.56,147,24.54"/>
<path class="st0" d="M169.59,29.11l-2.98-0.77c-0.7-0.18-1-0.87-0.94-1.59l0.31-3.06l-4.33-1.11l-1.24,2.82
	c-0.3,0.66-0.86,1.13-1.55,0.95l-2.94-0.76c-0.7-0.18-1.24-0.93-0.94-1.59l9.59-19.92c0.3-0.66,0.86-1.13,1.55-0.95l5.35,1.37
	c0.69,0.18,1,0.86,0.94,1.59l-1.26,22.06C171.08,28.88,170.28,29.29,169.59,29.11 M167.51,8.85l-4.14,9.52l3.15,0.81L167.51,8.85z"
	/>
<path id="XMLID_12_" class="st0" d="M187.62,37.51l-9.26-4.78c-0.64-0.33-0.86-1.1-0.53-1.74l9.95-19.27
	c0.33-0.64,1.09-0.91,1.73-0.58l2.77,1.43c0.64,0.33,0.85,1.11,0.52,1.74l-8.29,16.04l5.36,2.77c0.64,0.33,0.91,1.09,0.58,1.73
	l-1.1,2.14C189.03,37.63,188.25,37.84,187.62,37.51"/>
<path id="XMLID_11_" class="st0" d="M90.39,227.86c-6.27-2.83-5.81-7.02-3.28-12.63l2.05-4.54c2.48-5.5,5.48-8.45,11.55-5.71
	c5.19,2.34,5.98,5.2,3.68,10.32c-0.29,0.65-1.04,0.97-1.69,0.67l-2.73-1.23c-0.65-0.29-0.91-1.06-0.62-1.71
	c0.09-0.19,1.46-2.72-0.58-3.64c-1.42-0.64-2.49,0.08-3.3,1.89l-3.89,8.61c-0.73,1.62-0.55,2.95,0.8,3.56
	c2.15,0.97,3.5-2.73,3.5-2.73c0.3-0.65,1.04-0.97,1.69-0.67l2.84,1.28c0.65,0.29,0.91,1.06,0.62,1.71
	C98.73,228.15,95.81,230.31,90.39,227.86"/>
<path id="XMLID_10_" class="st0" d="M122.36,236.8l-10.61-2.02c-0.71-0.13-1.13-0.81-1-1.52l4.05-21.3
	c0.13-0.71,0.79-1.18,1.49-1.05l10.28,1.95c0.7,0.13,1.18,0.79,1.05,1.49l-0.42,2.2c-0.13,0.7-0.83,1.17-1.53,1.04l-5.97-1.14
	l-0.85,4.48l4.93,0.94c0.71,0.13,1.18,0.78,1.05,1.49l-0.43,2.24c-0.13,0.7-0.83,1.17-1.53,1.04l-4.93-0.94l-0.96,5.06l6.3,1.2
	c0.7,0.13,1.18,0.78,1.05,1.49l-0.44,2.32C123.75,236.46,123.06,236.93,122.36,236.8"/>
<path class="st0" d="M151.43,237.39l-3.12,0.15c-0.72,0.03-1.21-0.53-1.33-1.25c0,0-0.25-0.75-0.31-2.14l-0.1-2.11
	c-0.12-2.61-0.98-3.8-2.75-3.71l-1.6,0.07l0.38,8.09c0.04,0.72-0.48,1.33-1.2,1.36l-3.12,0.14c-0.72,0.04-1.29-0.53-1.33-1.24
	l-1-21.66c-0.04-0.72,0.48-1.33,1.2-1.36l7.25-0.34c4.76-0.22,7.04,1.61,7.24,5.95l0.05,0.97c0.13,2.82-0.66,4.89-3.2,5.72
	c2.65,0.8,3.66,3.21,3.78,6.03l0.09,1.94c0.05,1.14,0.26,2.02,0.26,2.02C152.75,236.73,152.14,237.35,151.43,237.39 M146.07,220.32
	c-0.08-1.77-0.8-2.58-2.48-2.5l-1.81,0.08l0.29,6.24l1.69-0.08c1.81-0.08,2.46-0.75,2.37-2.65L146.07,220.32z"/>
<path id="XMLID_7_" class="st0" d="M172.68,212.7l-3.28,0.95l5.06,17.47c0.2,0.69-0.16,1.41-0.85,1.61l-3,0.86
	c-0.69,0.2-1.38-0.22-1.58-0.9l-5.06-17.47l-3.28,0.95c-0.69,0.2-1.41-0.16-1.61-0.85l-0.63-2.19c-0.2-0.69,0.22-1.38,0.91-1.58
	l12.01-3.43c0.69-0.2,1.4,0.12,1.61,0.85l0.62,2.15C173.78,211.81,173.37,212.5,172.68,212.7"/>
<path id="XMLID_6_" class="st0" d="M195.14,223.75l-2.77,1.45c-0.63,0.33-1.4,0.06-1.73-0.58l-10.03-19.23
	c-0.33-0.64-0.12-1.41,0.51-1.74l2.81-1.46c0.64-0.33,1.4-0.06,1.73,0.57l10.05,19.26C196.05,222.66,195.78,223.42,195.14,223.75"/>
<path id="XMLID_5_" class="st0" d="M205.31,193.11l-4.61,3.69l3.11,3.88l3.65-2.93c0.56-0.45,1.36-0.39,1.81,0.17l1.4,1.75
	c0.48,0.59,0.36,1.39-0.2,1.84l-3.65,2.93l5.25,6.55c0.45,0.56,0.39,1.36-0.17,1.81l-2.44,1.95c-0.56,0.45-1.36,0.33-1.8-0.23
	l-13.57-16.92c-0.45-0.56-0.39-1.36,0.17-1.81l8.03-6.44c0.56-0.45,1.36-0.39,1.81,0.17l1.4,1.74
	C205.95,191.83,205.87,192.66,205.31,193.11"/>
<path id="XMLID_4_" class="st0" d="M230.59,194.58l-2.01,2.39c-0.46,0.55-1.27,0.58-1.82,0.12l-16.57-13.99
	c-0.55-0.46-0.65-1.26-0.18-1.81l2.04-2.42c0.46-0.55,1.27-0.59,1.82-0.12l16.6,14.01C231.01,193.23,231.06,194.03,230.59,194.58"/>
<path id="XMLID_3_" class="st0" d="M245.66,171.39l-5.2,9.47c-0.34,0.63-1.13,0.82-1.76,0.48l-19-10.44
	c-0.63-0.34-0.88-1.11-0.54-1.74l5.04-9.17c0.34-0.63,1.11-0.88,1.74-0.54l1.96,1.08c0.63,0.34,0.86,1.15,0.52,1.78l-2.93,5.32
	l3.99,2.2l2.42-4.4c0.34-0.63,1.11-0.88,1.74-0.54l2,1.1c0.63,0.35,0.86,1.15,0.52,1.78l-2.42,4.4l4.51,2.48l3.09-5.62
	c0.34-0.63,1.11-0.88,1.74-0.54l2.07,1.14C245.77,169.96,246,170.76,245.66,171.39"/>
<path class="st0" d="M253.35,150.58l-1.63,6.02c-0.19,0.69-0.9,1.07-1.59,0.88l-20.93-5.67c-0.69-0.19-1.12-0.87-0.93-1.56l1.7-6.27
	c1.55-5.74,5.09-6.84,12.29-4.88l2.73,0.74C252.44,141.86,254.99,144.52,253.35,150.58 M238.89,144.12
	c-2.73-0.74-4.15-0.34-4.71,1.74l-0.34,1.26l14.54,3.94l0.35-1.3c0.6-2.2-0.47-3.1-3.36-3.88L238.89,144.12z"/>
</svg>
