<?xml version="1.0" encoding="utf-8"?>
<!-- Generator: Adobe Illustrator 23.0.1, SVG Export Plug-In . SVG Version: 6.00 Build 0)  -->
<svg version="1.1" id="Layer_1" xmlns="http://www.w3.org/2000/svg" xmlns:xlink="http://www.w3.org/1999/xlink" x="0px" y="0px"
	 viewBox="0 0 324 75" style="enable-background:new 0 0 324 75;" xml:space="preserve">
<style type="text/css">
	.st0{fill:#FFFFFF;}
	.st1{fill:#9CBC65;}
</style>
<path class="st0" d="M10.13,44.03c-1.36,0-2.91-0.21-4.66-0.63c-1.74-0.42-3.13-0.97-4.17-1.65l1.08-2.46
	c1.44,0.72,2.77,1.28,3.99,1.68c1.22,0.4,2.51,0.6,3.87,0.6c2.4,0,4.28-0.49,5.65-1.47c1.36-0.98,2.04-2.31,2.04-3.99
	c0-2.4-2.56-4.6-7.69-6.61c-5.65-2.2-8.47-4.9-8.47-8.11c0-2.36,0.88-4.29,2.64-5.8c1.76-1.5,4.22-2.25,7.39-2.25
	c1.28,0,2.73,0.23,4.35,0.69c1.62,0.46,2.91,1.03,3.87,1.71l-1.2,2.1c-1.4-0.68-2.6-1.19-3.6-1.53c-1-0.34-2.28-0.51-3.84-0.51
	c-2,0-3.63,0.53-4.9,1.59C5.23,18.45,4.6,19.7,4.6,21.14c0,1.24,0.64,2.34,1.92,3.3c1.28,0.96,3.08,1.9,5.41,2.82
	c2.72,1.08,4.87,2.31,6.46,3.69c1.58,1.38,2.37,3.01,2.37,4.9C20.76,41.3,17.22,44.03,10.13,44.03z"/>
<path class="st0" d="M41.3,13.33c2.2,0,4.16,0.66,5.89,1.98c1.72,1.32,3.05,3.15,3.99,5.5c0.94,2.34,1.41,4.98,1.41,7.9H31.63
	c0.04,3.76,0.91,6.85,2.61,9.25c1.7,2.4,4.25,3.6,7.66,3.6c1.92,0,3.52-0.18,4.81-0.54c1.28-0.36,2.54-0.86,3.78-1.5l1.2,2.22
	c-1.12,0.68-2.61,1.23-4.47,1.65c-1.86,0.42-3.47,0.63-4.84,0.63c-4.61,0-8.06-1.4-10.36-4.2c-2.3-2.8-3.45-6.57-3.45-11.29
	c0-4.56,1.09-8.24,3.27-11.02C34.02,14.73,37.18,13.33,41.3,13.33z M40.88,15.8c-2.72,0-4.86,1.01-6.4,3.03
	c-1.54,2.02-2.45,4.58-2.73,7.66h17.72c-0.32-3.16-1.16-5.74-2.52-7.72C45.59,16.79,43.56,15.8,40.88,15.8z"/>
<path class="st0" d="M73.14,13.33c2.2,0,4.16,0.66,5.89,1.98c1.72,1.32,3.05,3.15,3.99,5.5c0.94,2.34,1.41,4.98,1.41,7.9H63.47
	c0.04,3.76,0.91,6.85,2.61,9.25c1.7,2.4,4.25,3.6,7.66,3.6c1.92,0,3.52-0.18,4.81-0.54c1.28-0.36,2.54-0.86,3.78-1.5l1.2,2.22
	c-1.12,0.68-2.61,1.23-4.47,1.65c-1.86,0.42-3.47,0.63-4.84,0.63c-4.61,0-8.06-1.4-10.36-4.2c-2.3-2.8-3.45-6.57-3.45-11.29
	c0-4.56,1.09-8.24,3.27-11.02C65.86,14.73,69.01,13.33,73.14,13.33z M72.72,15.8c-2.72,0-4.86,1.01-6.4,3.03
	c-1.54,2.02-2.45,4.58-2.73,7.66H81.3c-0.32-3.16-1.16-5.74-2.52-7.72C77.42,16.79,75.4,15.8,72.72,15.8z"/>
<path class="st0" d="M115.78,43.25h-1.62l-1.08-2.58c-2.44,2.24-5.21,3.36-8.29,3.36c-4.17,0-7.3-1.4-9.4-4.2
	c-2.1-2.8-3.15-6.57-3.15-11.29c0-4.52,1.12-8.19,3.36-10.99c2.24-2.8,5.45-4.2,9.61-4.2c1.28,0,2.59,0.26,3.93,0.78
	c1.34,0.52,2.57,1.18,3.69,1.98V1.44l2.94-0.54V43.25z M112.84,37.66V19.1c-2.44-2.2-5.03-3.3-7.75-3.3c-2.08,0-3.85,0.57-5.32,1.71
	c-1.46,1.14-2.57,2.67-3.33,4.59c-0.76,1.92-1.14,4.05-1.14,6.37c0,3.8,0.8,6.94,2.4,9.4c1.6,2.46,3.96,3.69,7.09,3.69
	c1.76,0,3.24-0.33,4.44-0.99C110.44,39.91,111.64,38.94,112.84,37.66z"/>
<path class="st1" d="M177.47,41.62l-1.5,1.62l-5.83-5.29c-1.4,1.88-3.13,3.36-5.2,4.44c-2.06,1.08-4.32,1.62-6.76,1.62
	c-2.64,0-5.05-0.52-7.21-1.56c-2.16-1.04-3.86-2.52-5.11-4.44c-1.24-1.92-1.86-4.18-1.86-6.79c0-2.56,0.58-4.91,1.74-7.06
	c1.16-2.14,2.74-3.87,4.75-5.2c-1.48-2.24-2.22-4.6-2.22-7.09c0-1.88,0.44-3.62,1.32-5.23c0.88-1.6,2.1-2.87,3.66-3.81
	c1.56-0.94,3.28-1.41,5.17-1.41c1.84,0,3.54,0.23,5.11,0.69c1.56,0.46,2.88,1.01,3.96,1.65l-1.2,2.1c-1.48-0.72-2.67-1.23-3.57-1.53
	c-0.9-0.3-2.15-0.45-3.75-0.45c-1.48,0-2.82,0.36-4.02,1.08s-2.14,1.67-2.82,2.85c-0.68,1.18-1.02,2.45-1.02,3.81
	c0,2.04,0.53,3.93,1.59,5.68c1.06,1.74,2.71,3.67,4.96,5.8l11.89,11.11c1-1.68,1.77-3.53,2.31-5.56c0.54-2.02,0.81-3.95,0.81-5.8
	l2.16,0.66c0,2.2-0.29,4.38-0.87,6.55c-0.58,2.16-1.41,4.14-2.49,5.95L177.47,41.62z M158.37,41.56c1.96,0,3.78-0.48,5.47-1.44
	c1.68-0.96,3.14-2.26,4.38-3.9l-12.67-11.59c-1.6-1.44-2.8-2.66-3.6-3.66c-1.68,1.2-2.95,2.67-3.81,4.41
	c-0.86,1.74-1.29,3.65-1.29,5.74c0,2.04,0.55,3.86,1.65,5.47c1.1,1.6,2.53,2.83,4.29,3.69C154.54,41.13,156.4,41.56,158.37,41.56z"
	/>
<path class="st0" d="M211.64,44.03c-1.36,0-2.91-0.21-4.65-0.63c-1.74-0.42-3.13-0.97-4.17-1.65l1.08-2.46
	c1.44,0.72,2.77,1.28,3.99,1.68c1.22,0.4,2.51,0.6,3.87,0.6c2.4,0,4.28-0.49,5.65-1.47c1.36-0.98,2.04-2.31,2.04-3.99
	c0-2.4-2.56-4.6-7.69-6.61c-5.65-2.2-8.47-4.9-8.47-8.11c0-2.36,0.88-4.29,2.64-5.8c1.76-1.5,4.22-2.25,7.39-2.25
	c1.28,0,2.73,0.23,4.36,0.69c1.62,0.46,2.91,1.03,3.87,1.71l-1.2,2.1c-1.4-0.68-2.6-1.19-3.6-1.53c-1-0.34-2.28-0.51-3.84-0.51
	c-2,0-3.63,0.53-4.9,1.59c-1.26,1.06-1.89,2.31-1.89,3.75c0,1.24,0.64,2.34,1.92,3.3c1.28,0.96,3.08,1.9,5.41,2.82
	c2.72,1.08,4.87,2.31,6.46,3.69c1.58,1.38,2.37,3.01,2.37,4.9C222.27,41.3,218.73,44.03,211.64,44.03z"/>
<path class="st0" d="M236.15,15.02h5.29l1.26,2.22h-6.55v18.62c0,1.6,0.34,2.95,1.02,4.05c0.68,1.1,1.7,1.65,3.06,1.65
	c0.8,0,1.62-0.18,2.46-0.54l0.72,2.28c-0.12,0-0.66,0.14-1.62,0.42c-0.8,0.2-1.58,0.3-2.34,0.3c-1.92,0-3.44-0.67-4.56-2.01
	c-1.12-1.34-1.68-3.25-1.68-5.74V17.24h-4.32v-2.22h4.32V7.15l2.94-1.32V15.02z"/>
<path class="st0" d="M263.36,13.33c2.2,0,4.16,0.66,5.89,1.98c1.72,1.32,3.05,3.15,3.99,5.5c0.94,2.34,1.41,4.98,1.41,7.9h-20.96
	c0.04,3.76,0.91,6.85,2.61,9.25c1.7,2.4,4.25,3.6,7.66,3.6c1.92,0,3.52-0.18,4.81-0.54c1.28-0.36,2.54-0.86,3.78-1.5l1.2,2.22
	c-1.12,0.68-2.61,1.23-4.47,1.65c-1.86,0.42-3.47,0.63-4.84,0.63c-4.6,0-8.06-1.4-10.36-4.2c-2.3-2.8-3.45-6.57-3.45-11.29
	c0-4.56,1.09-8.24,3.27-11.02C256.08,14.73,259.23,13.33,263.36,13.33z M262.94,15.8c-2.72,0-4.86,1.01-6.4,3.03
	c-1.54,2.02-2.45,4.58-2.73,7.66h17.72c-0.32-3.16-1.16-5.74-2.52-7.72C267.64,16.79,265.62,15.8,262.94,15.8z"/>
<path class="st0" d="M322.7,23v20.24h-2.94V23c0-2.32-0.34-4.1-1.02-5.35c-0.68-1.24-1.96-1.86-3.84-1.86c-2.8,0-6.05,1.8-9.73,5.41
	c0.04,0.4,0.06,1,0.06,1.8v20.24h-2.94V23c0-2.32-0.34-4.1-1.02-5.35c-0.68-1.24-1.96-1.86-3.84-1.86c-1.52,0-3.15,0.53-4.89,1.59
	c-1.74,1.06-3.51,2.49-5.32,4.29v21.56h-2.94V14.11h2.28l0.6,4.56c1.24-1.44,2.84-2.69,4.81-3.75c1.96-1.06,3.7-1.59,5.23-1.59
	c3.92,0,6.43,1.76,7.51,5.29c1.24-1.44,2.83-2.68,4.78-3.72c1.94-1.04,3.67-1.56,5.2-1.56c2.8,0,4.84,0.86,6.13,2.58
	C322.06,17.64,322.7,20,322.7,23z"/>
<path class="st1" d="M164.34,8.06c-1.2-1.36-3.61-2.37-6.75-1.15c-1.66,0.65-2.89,1.95-3.37,3.58c-0.55,1.83-0.11,3.88,1.24,5.77
	c2.51,3.52,9.01,8.94,9.28,9.16c0.19,0.16,0.43,0.24,0.67,0.24c0.15,0,0.29-0.03,0.43-0.09c0.37-0.17,0.61-0.53,0.62-0.93
	C166.53,22.36,166.74,10.76,164.34,8.06z M157.17,15.05c-0.96-1.35-1.3-2.76-0.94-3.95c0.3-1.01,1.07-1.82,2.12-2.23
	c0.77-0.3,1.43-0.41,1.99-0.41c1.4,0,2.17,0.71,2.42,0.99c1.04,1.17,1.51,6.26,1.61,10.99l-2.86-5.94
	c-0.01-0.01-0.02-0.02-0.04-0.02c-0.02,0.01-0.03,0.02-0.02,0.04l2.13,7.12C161.47,19.76,158.58,17.03,157.17,15.05z"/>
<g>
	<path class="st0" d="M73.51,69.38c0-0.86,0.17-1.63,0.5-2.31c0.34-0.68,0.8-1.22,1.41-1.61c0.6-0.39,1.28-0.59,2.02-0.6
		c0.73,0,1.39,0.19,1.98,0.57c0.59,0.38,1.05,0.9,1.38,1.58s0.5,1.43,0.5,2.28c0,0.86-0.17,1.63-0.51,2.32
		c-0.34,0.69-0.81,1.23-1.41,1.62c-0.6,0.39-1.27,0.59-2.02,0.59c-0.74,0-1.4-0.19-1.99-0.57c-0.58-0.38-1.04-0.9-1.37-1.58
		C73.68,70.99,73.51,70.23,73.51,69.38z M77.46,65.46c-0.61,0-1.15,0.17-1.64,0.5c-0.49,0.34-0.87,0.8-1.14,1.4
		c-0.27,0.6-0.41,1.27-0.41,2c0,0.73,0.13,1.39,0.4,1.97c0.26,0.58,0.63,1.04,1.1,1.37c0.47,0.33,0.99,0.5,1.58,0.5
		c0.61,0,1.16-0.17,1.65-0.5c0.48-0.34,0.86-0.8,1.13-1.4c0.27-0.6,0.41-1.27,0.41-2.02c0-0.73-0.13-1.39-0.4-1.97
		c-0.27-0.58-0.63-1.04-1.1-1.37C78.57,65.63,78.05,65.46,77.46,65.46z"/>
	<path class="st0" d="M85.65,73.63v-8.57h2.13c0.96,0,1.71,0.19,2.26,0.58c0.55,0.39,0.83,1.01,0.83,1.87
		c-0.01,0.56-0.15,1.03-0.42,1.4c-0.27,0.37-0.65,0.65-1.13,0.83l2.23,3.9h-0.78l-2.06-3.71c-0.36,0.07-0.72,0.1-1.07,0.1h-1.3v3.61
		H85.65z M90.17,67.53c0-1.26-0.79-1.89-2.36-1.89h-1.46v3.82h1.32c0.71,0,1.31-0.16,1.78-0.47C89.92,68.68,90.16,68.19,90.17,67.53
		z"/>
	<path class="st0" d="M100.58,69.85h-1.93l0.08-0.53h2.55v3.92c-0.24,0.16-0.58,0.29-1.01,0.4c-0.43,0.11-0.83,0.16-1.21,0.16
		c-0.85,0-1.6-0.19-2.24-0.57c-0.64-0.38-1.14-0.91-1.49-1.58s-0.52-1.42-0.52-2.26c0-0.87,0.19-1.65,0.57-2.34
		c0.38-0.68,0.9-1.22,1.55-1.6c0.66-0.38,1.39-0.57,2.21-0.57c0.31,0,0.69,0.04,1.12,0.13c0.44,0.08,0.76,0.2,0.97,0.34l-0.24,0.49
		c-0.31-0.13-0.59-0.22-0.84-0.28c-0.25-0.06-0.58-0.09-0.98-0.09c-0.66,0-1.26,0.16-1.8,0.49c-0.55,0.32-0.98,0.78-1.3,1.38
		c-0.32,0.6-0.49,1.28-0.49,2.06c0,0.74,0.15,1.4,0.45,1.97c0.3,0.58,0.72,1.02,1.24,1.34c0.53,0.32,1.12,0.48,1.78,0.48
		c0.5,0,1.01-0.1,1.54-0.29V69.85z"/>
	<path class="st0" d="M104.67,73.63l3.11-8.57h0.69l3.27,8.51l-0.69,0.14L110.04,71h-3.73l-0.96,2.64H104.67z M106.5,70.44h3.34
		l-1.7-4.48L106.5,70.44z"/>
	<path class="st0" d="M116.32,66.47v7.16h-0.69v-8.57h0.43l4.43,6.33l0.43,0.74v-7.07h0.71v8.57h-0.43l-4.69-6.8L116.32,66.47z"/>
	<path class="st0" d="M127.29,65.06v8.57h-0.69v-8.57H127.29z"/>
	<path class="st0" d="M135.59,64.88c0.31,0,0.68,0.04,1.12,0.13c0.43,0.08,0.75,0.2,0.96,0.34l-0.25,0.52
		c-0.32-0.13-0.6-0.23-0.84-0.29c-0.24-0.06-0.57-0.09-0.98-0.09c-0.6,0-1.14,0.17-1.63,0.5c-0.49,0.33-0.87,0.79-1.15,1.38
		s-0.42,1.26-0.42,2.02c0,0.7,0.12,1.33,0.37,1.91c0.24,0.58,0.6,1.04,1.07,1.38c0.47,0.34,1.02,0.52,1.65,0.52
		c0.41,0,0.76-0.03,1.05-0.1c0.29-0.07,0.57-0.16,0.84-0.28l0.3,0.53c-0.24,0.13-0.57,0.24-0.99,0.33
		c-0.42,0.09-0.81,0.14-1.17,0.14c-0.84,0-1.55-0.2-2.13-0.6c-0.58-0.4-1.02-0.93-1.31-1.6c-0.29-0.67-0.44-1.41-0.44-2.21
		c0-0.84,0.16-1.6,0.48-2.29c0.32-0.69,0.78-1.23,1.37-1.63C134.09,65.08,134.79,64.88,135.59,64.88z"/>
	<path class="st0" d="M150.61,64.88c0.31,0,0.68,0.04,1.12,0.13c0.43,0.08,0.75,0.2,0.96,0.34l-0.25,0.52
		c-0.32-0.13-0.6-0.23-0.84-0.29c-0.24-0.06-0.57-0.09-0.98-0.09c-0.6,0-1.14,0.17-1.63,0.5s-0.87,0.79-1.15,1.38
		s-0.42,1.26-0.42,2.02c0,0.7,0.12,1.33,0.37,1.91c0.24,0.58,0.6,1.04,1.07,1.38c0.47,0.34,1.02,0.52,1.65,0.52
		c0.41,0,0.76-0.03,1.05-0.1c0.29-0.07,0.57-0.16,0.84-0.28l0.3,0.53c-0.24,0.13-0.57,0.24-0.99,0.33
		c-0.42,0.09-0.81,0.14-1.17,0.14c-0.84,0-1.55-0.2-2.13-0.6c-0.58-0.4-1.02-0.93-1.31-1.6c-0.29-0.67-0.44-1.41-0.44-2.21
		c0-0.84,0.16-1.6,0.48-2.29s0.78-1.23,1.37-1.63C149.11,65.08,149.81,64.88,150.61,64.88z"/>
	<path class="st0" d="M155.68,73.63l3.11-8.57h0.69l3.27,8.51l-0.69,0.14L161.05,71h-3.73l-0.96,2.64H155.68z M157.5,70.44h3.34
		l-1.7-4.48L157.5,70.44z"/>
	<path class="st0" d="M165.52,65.06h6.53l0.06,0.55h-2.95v8.02h-0.71v-8.02h-2.94V65.06z"/>
	<path class="st0" d="M180.73,73.08l0.08,0.55H176v-8.57h4.74l0.06,0.53h-4.11v3.39h3.03l0.06,0.52h-3.09v3.58H180.73z"/>
	<path class="st0" d="M184.82,73.63v-8.57h2.13c0.96,0,1.71,0.19,2.26,0.58c0.55,0.39,0.83,1.01,0.83,1.87
		c-0.01,0.56-0.15,1.03-0.42,1.4c-0.27,0.37-0.65,0.65-1.13,0.83l2.23,3.9h-0.78l-2.06-3.71c-0.36,0.07-0.72,0.1-1.07,0.1h-1.3v3.61
		H184.82z M189.33,67.53c0-1.26-0.79-1.89-2.36-1.89h-1.46v3.82h1.32c0.71,0,1.31-0.16,1.78-0.47
		C189.08,68.68,189.32,68.19,189.33,67.53z"/>
	<path class="st0" d="M195.29,65.06v8.57h-0.69v-8.57H195.29z"/>
	<path class="st0" d="M200.97,66.47v7.16h-0.69v-8.57h0.43l4.43,6.33l0.43,0.74v-7.07h0.71v8.57h-0.43l-4.69-6.8L200.97,66.47z"/>
	<path class="st0" d="M216.39,69.85h-1.93l0.08-0.53h2.55v3.92c-0.24,0.16-0.58,0.29-1.01,0.4c-0.43,0.11-0.83,0.16-1.21,0.16
		c-0.85,0-1.6-0.19-2.24-0.57c-0.64-0.38-1.14-0.91-1.49-1.58c-0.35-0.67-0.52-1.42-0.52-2.26c0-0.87,0.19-1.65,0.57-2.34
		c0.38-0.68,0.9-1.22,1.55-1.6c0.66-0.38,1.39-0.57,2.21-0.57c0.31,0,0.69,0.04,1.12,0.13c0.44,0.08,0.76,0.2,0.97,0.34l-0.24,0.49
		c-0.31-0.13-0.59-0.22-0.84-0.28c-0.25-0.06-0.58-0.09-0.98-0.09c-0.66,0-1.26,0.16-1.8,0.49c-0.55,0.32-0.98,0.78-1.3,1.38
		c-0.32,0.6-0.49,1.28-0.49,2.06c0,0.74,0.15,1.4,0.45,1.97c0.3,0.58,0.72,1.02,1.24,1.34c0.53,0.32,1.12,0.48,1.78,0.48
		c0.5,0,1.01-0.1,1.54-0.29V69.85z"/>
	<path class="st0" d="M230.42,64.88c0.31,0,0.68,0.04,1.12,0.13c0.43,0.08,0.75,0.2,0.96,0.34l-0.25,0.52
		c-0.32-0.13-0.6-0.23-0.84-0.29c-0.24-0.06-0.57-0.09-0.98-0.09c-0.6,0-1.14,0.17-1.63,0.5c-0.49,0.33-0.87,0.79-1.15,1.38
		c-0.28,0.59-0.42,1.26-0.42,2.02c0,0.7,0.12,1.33,0.37,1.91c0.24,0.58,0.6,1.04,1.07,1.38c0.47,0.34,1.02,0.52,1.65,0.52
		c0.41,0,0.76-0.03,1.05-0.1c0.29-0.07,0.57-0.16,0.84-0.28l0.3,0.53c-0.24,0.13-0.57,0.24-0.99,0.33
		c-0.42,0.09-0.81,0.14-1.17,0.14c-0.84,0-1.55-0.2-2.13-0.6c-0.58-0.4-1.02-0.93-1.31-1.6c-0.29-0.67-0.44-1.41-0.44-2.21
		c0-0.84,0.16-1.6,0.48-2.29c0.32-0.69,0.78-1.23,1.37-1.63C228.93,65.08,229.63,64.88,230.42,64.88z"/>
	<path class="st0" d="M235.97,69.38c0-0.86,0.17-1.63,0.5-2.31c0.34-0.68,0.8-1.22,1.41-1.61c0.6-0.39,1.28-0.59,2.02-0.6
		c0.73,0,1.39,0.19,1.98,0.57c0.59,0.38,1.05,0.9,1.38,1.58s0.5,1.43,0.5,2.28c0,0.86-0.17,1.63-0.51,2.32
		c-0.34,0.69-0.81,1.23-1.41,1.62c-0.6,0.39-1.27,0.59-2.02,0.59c-0.74,0-1.4-0.19-1.99-0.57c-0.58-0.38-1.04-0.9-1.37-1.58
		C236.14,70.99,235.97,70.23,235.97,69.38z M239.92,65.46c-0.61,0-1.15,0.17-1.64,0.5c-0.49,0.34-0.87,0.8-1.14,1.4
		c-0.27,0.6-0.41,1.27-0.41,2c0,0.73,0.13,1.39,0.4,1.97c0.26,0.58,0.63,1.04,1.1,1.37c0.47,0.33,0.99,0.5,1.58,0.5
		c0.61,0,1.16-0.17,1.65-0.5c0.48-0.34,0.86-0.8,1.13-1.4c0.27-0.6,0.41-1.27,0.41-2.02c0-0.73-0.13-1.39-0.4-1.97
		c-0.27-0.58-0.63-1.04-1.1-1.37C241.04,65.63,240.51,65.46,239.92,65.46z"/>
	<path class="st0" d="M248.33,73.09c0,0.15-0.05,0.28-0.16,0.38c-0.11,0.11-0.23,0.16-0.37,0.16c-0.16,0-0.29-0.05-0.39-0.16
		c-0.1-0.11-0.15-0.23-0.15-0.38c0-0.14,0.05-0.26,0.16-0.37c0.11-0.1,0.23-0.15,0.39-0.15c0.14,0,0.27,0.05,0.37,0.16
		C248.28,72.84,248.33,72.96,248.33,73.09z"/>
</g>
<g>
	<line class="st0" x1="256.73" y1="70.06" x2="277.26" y2="70.06"/>
	<rect x="256.73" y="69.79" class="st0" width="20.53" height="0.53"/>
</g>
<g>
	<line class="st0" x1="45.06" y1="70.06" x2="65.59" y2="70.06"/>
	<rect x="45.06" y="69.79" class="st0" width="20.53" height="0.53"/>
</g>
</svg>
