<?xml version="1.0" encoding="utf-8"?>
<!-- Generator: Adobe Illustrator 23.0.1, SVG Export Plug-In . SVG Version: 6.00 Build 0)  -->
<svg version="1.1" id="Layer_1" xmlns="http://www.w3.org/2000/svg" xmlns:xlink="http://www.w3.org/1999/xlink" x="0px" y="0px"
	 viewBox="0 0 60.11 50" style="enable-background:new 0 0 60.11 50;" xml:space="preserve">
<style type="text/css">
	.st0{fill:#FFFFFF;}
</style>
<path class="st0" d="M59.15,5.82c-1.34,0.59-2.72,1.06-4.14,1.4c1.57-1.49,2.75-3.35,3.41-5.43l0,0c0.19-0.59-0.46-1.11-0.99-0.79
	l0,0c-1.98,1.17-4.11,2.05-6.34,2.62c-0.13,0.03-0.26,0.05-0.4,0.05c-0.41,0-0.8-0.15-1.11-0.42C47.22,1.15,44.17,0,41.01,0
	c-1.37,0-2.75,0.21-4.11,0.63c-4.2,1.3-7.44,4.77-8.46,9.05c-0.38,1.6-0.48,3.21-0.31,4.77c0.02,0.18-0.06,0.3-0.12,0.36
	c-0.09,0.1-0.22,0.16-0.36,0.16c-0.02,0-0.03,0-0.05,0C18.42,14.12,10.13,9.69,4.26,2.5l0,0c-0.3-0.37-0.87-0.32-1.11,0.09l0,0
	C2,4.55,1.4,6.81,1.4,9.1c0,3.51,1.41,6.82,3.86,9.24c-1.03-0.24-2.03-0.63-2.96-1.14l0,0c-0.45-0.25-1,0.07-1.01,0.58l0,0
	C1.23,23,4.29,27.64,8.87,29.73c-0.09,0-0.18,0-0.28,0c-0.73,0-1.46-0.07-2.18-0.21l0,0c-0.51-0.1-0.93,0.38-0.77,0.87l0,0
	c1.49,4.64,5.48,8.06,10.26,8.83C11.93,41.89,7.31,43.3,2.5,43.3l-1.5,0c-0.46,0-0.85,0.3-0.97,0.75c-0.12,0.44,0.1,0.91,0.49,1.13
	C5.94,48.33,12.12,50,18.4,50c5.49,0,10.63-1.09,15.27-3.24c4.25-1.97,8.01-4.79,11.18-8.37c2.94-3.34,5.25-7.2,6.84-11.46
	c1.52-4.06,2.33-8.4,2.33-12.54v-0.2c0-0.66,0.3-1.29,0.83-1.72c1.99-1.62,3.72-3.52,5.15-5.66l0,0
	C60.37,6.25,59.77,5.54,59.15,5.82L59.15,5.82z"/>
</svg>
