<?xml version="1.0" encoding="utf-8"?>
<!-- Generator: Adobe Illustrator 23.0.3, SVG Export Plug-In . SVG Version: 6.00 Build 0)  -->
<svg version="1.1" id="Layer_1" xmlns="http://www.w3.org/2000/svg" xmlns:xlink="http://www.w3.org/1999/xlink" x="0px" y="0px"
	 viewBox="0 0 57.3 50" style="enable-background:new 0 0 57.3 50;" xml:space="preserve">
<style type="text/css">
	.st0{fill:#9CBC65;}
	.st1{fill:#413F4C;}
	.st2{fill:none;stroke:#413F4C;stroke-miterlimit:10;}
	.st3{fill:none;stroke:#413F4C;stroke-width:1.5;stroke-miterlimit:10;}
	.st4{fill:none;stroke:#413F4C;stroke-width:1.5;stroke-linecap:round;stroke-linejoin:round;stroke-miterlimit:10;}
</style>
<circle class="st0" cx="16.9" cy="11.9" r="11.7"/>
<g>
	<line class="st2" x1="48.8" y1="42.1" x2="48.8" y2="47.7"/>
	<line class="st2" x1="45.9" y1="44.9" x2="51.6" y2="44.9"/>
</g>
<g>
	<line class="st2" x1="10.4" y1="40.2" x2="10.4" y2="45.8"/>
	<line class="st2" x1="7.6" y1="43" x2="13.2" y2="43"/>
</g>
<g>
	<line class="st3" x1="8.3" y1="25.9" x2="13.9" y2="31.4"/>
	<path class="st3" d="M15.8,37.2c-0.9,0.9-2.5,0.9-3.6-0.2l0,0c-1-1-1.1-2.6-0.2-3.6l3.3-3.3c0.9-0.9,2.5-0.9,3.6,0.2l0,0
		c1,1,1.1,2.6,0.2,3.6L15.8,37.2z"/>
	<path class="st3" d="M19.6,40.9c-0.9,0.9-2.5,0.9-3.6-0.2l0,0c-1-1-1.1-2.6-0.2-3.6l3.3-3.3c0.9-0.9,2.5-0.9,3.6,0.2l0,0
		c1,1,1.1,2.6,0.2,3.6L19.6,40.9z"/>
	<path class="st3" d="M23.4,44.7c-0.9,0.9-2.5,0.9-3.6-0.2l0,0c-1-1-1.1-2.6-0.2-3.6l3.3-3.3c0.9-0.9,2.5-0.9,3.6,0.2l0,0
		c1,1,1.1,2.6,0.2,3.6L23.4,44.7z"/>
	<path class="st3" d="M27.2,48.6c-0.9,0.9-2.5,0.9-3.6-0.2l0,0c-1-1-1.1-2.6-0.2-3.6l3.3-3.3c0.9-0.9,2.5-0.9,3.6,0.2l0,0
		c1,1,1.1,2.6,0.2,3.6L27.2,48.6z"/>
	<path class="st3" d="M41.3,37.4c1,1,2.6,1,3.6,0l0,0c1-1,1-2.6,0-3.6l-10.1-10c-1.3-1.3-3.3-1.3-4.6,0c0,0,0,0,0,0L25.9,28
		c-1.2,1.2-3.2,1.3-4.4,0.1l0,0c-1.2-1.2-1.2-3.2,0.1-4.4l9.1-8.3c0,0,1.5-1.7,3-0.6c0.7,0.6,1.3,1.1,1.7,1.4c0.6,0.5,1.3,0.8,2,0.8
		c0.6,0,0.9-0.3,1.5-1"/>
	<path class="st3" d="M41.3,37.4c1,1,1,2.6,0,3.6l0,0c-1,1-2.6,1-3.6,0"/>
	<path class="st3" d="M37.6,41.1c1,1,1,2.6,0,3.6l0,0c-1,1-2.6,1-3.6,0"/>
	<path class="st3" d="M18.9,15.7c0,0,1.1,1.2,2,1s2.8-3.8,4.8-2.3c2.1,1.5,3.2,2.6,3.2,2.6"/>
	<line class="st3" x1="43.6" y1="32.1" x2="49" y2="26.7"/>
	<path class="st3" d="M33.8,44.8c1,1,1,2.6,0,3.6l0,0c-0.4,0.4-1,0.5-1.6,0.5c-1.1,0-2.2-0.5-2.9-1.3l-0.4-0.4"/>
	<path class="st2" d="M53,23.1c0,1-0.8,1.8-1.8,1.8l0,0c-1,0-1.8-0.8-1.8-1.8l0,0c0-1,0.8-1.8,1.8-1.8l0,0
		C52.2,21.4,53,22.1,53,23.1L53,23.1z"/>
	<path class="st3" d="M2.2,20.9l10.7-10.5c1.1-1.1,3-1.1,4.1,0l1.7,1.7c1.1,1.1,1.1,2.9,0,4L7.9,26.6c-1.1,1.1-3,1.1-4.1,0l-1.6-1.7
		C1,23.7,1.1,22,2.2,20.9z"/>
	<path class="st4" d="M44.8,10.9l10.5,10.7c1.1,1.1,1.1,3,0,4.1l-1.7,1.7c-1.1,1.1-2.9,1.1-4,0L39.2,16.6c-1.1-1.1-1.1-3,0-4.1
		l1.7-1.6C42,9.7,43.7,9.8,44.8,10.9z"/>
</g>
</svg>
