<?xml version="1.0" encoding="utf-8"?>
<!-- Generator: Adobe Illustrator 23.0.1, SVG Export Plug-In . SVG Version: 6.00 Build 0)  -->
<svg version="1.1" id="Layer_1" xmlns="http://www.w3.org/2000/svg" xmlns:xlink="http://www.w3.org/1999/xlink" x="0px" y="0px"
	 viewBox="0 0 50 50" style="enable-background:new 0 0 50 50;" xml:space="preserve">
<style type="text/css">
	.st0{fill:#FFFFFF;}
</style>
<path class="st0" d="M43.26,0H6.74C3.02,0,0,3.02,0,6.74v36.52C0,46.98,3.02,50,6.74,50h18.01l0.03-17.87h-4.64
	c-0.6,0-1.09-0.49-1.1-1.09l-0.02-5.76c0-0.61,0.49-1.1,1.1-1.1h4.63v-5.56c0-6.46,3.94-9.97,9.71-9.97h4.73c0.6,0,1.1,0.49,1.1,1.1
	v4.86c0,0.6-0.49,1.09-1.09,1.1l-2.9,0c-3.13,0-3.74,1.49-3.74,3.67v4.82h6.88c0.66,0,1.16,0.57,1.09,1.22l-0.68,5.76
	c-0.07,0.55-0.53,0.97-1.09,0.97h-6.17L32.54,50h10.72c3.72,0,6.74-3.02,6.74-6.74V6.74C50,3.02,46.98,0,43.26,0z"/>
</svg>
