<?xml version="1.0" encoding="utf-8"?>
<!-- Generator: Adobe Illustrator 23.0.3, SVG Export Plug-In . SVG Version: 6.00 Build 0)  -->
<svg version="1.1" id="Layer_1" xmlns="http://www.w3.org/2000/svg" xmlns:xlink="http://www.w3.org/1999/xlink" x="0px" y="0px"
	 viewBox="0 0 50 50" style="enable-background:new 0 0 50 50;" xml:space="preserve">
<style type="text/css">
	.st0{fill:#9CBC65;}
	.st1{fill:#413F4C;}
	.st2{fill:none;stroke:#413F4C;stroke-miterlimit:10;}
	.st3{fill:none;stroke:#413F4C;stroke-width:1.5;stroke-miterlimit:10;}
	.st4{fill:none;stroke:#413F4C;stroke-width:1.5;stroke-linecap:round;stroke-linejoin:round;stroke-miterlimit:10;}
</style>
<circle class="st0" cx="21.1" cy="30.7" r="11.5"/>
<path class="st2" d="M5.9,46.8c0,1.1-0.8,2-1.9,2c-1,0-1.9-0.9-1.9-2c0-1.1,0.8-2,1.9-2C5.1,44.8,5.9,45.7,5.9,46.8z"/>
<g>
	<line class="st2" x1="44.9" y1="3.2" x2="44.9" y2="7.7"/>
	<line class="st2" x1="42.6" y1="5.4" x2="47.1" y2="5.4"/>
</g>
<g>
	<path class="st4" d="M32.5,6.8c0,0,3,2.6-0.8,5.1c-3.8,2.6,1,7,1,7"/>
	<path class="st4" d="M45.4,22.7c-1.6-0.3-3.3-0.2-4.9,0.3c-2.1,0.7-1.7,3.2-1.7,4.6"/>
	<path class="st4" d="M48.1,29.6c-1.6,0-5-0.2-5.8,0.1c-0.8,0.3-1.6,0.9-2.1,1.6c-0.5,0.8-0.5,1.7-0.5,2.6c0,0.8,0,1.5,0.4,2.2
		c0.5,0.8,1.4,1.5,2.3,1.6c0.9,0.1,2.4,0.4,3.3,0.2"/>
	<path class="st4" d="M45.8,15.9h-5.3c0,0-5.1-0.2-5.1,7.5c-2.3-0.7-5.7,0-5.8,3.6c-0.1,2.4,2.8,4.7,5.2,4.3
		c-1.3,0.1-2.6,0.3-3.7,0.9c-1.1,0.6-2,1.8-1.9,3.1c0.1,1.1,1,2,1.9,2.4c0,0,0,0,0,0c0.6,0.3,0.6,1.2-0.1,1.4
		c-0.8,0.2-1.5,0.6-1.8,1.6c-0.6,2,0.5,4.3,2.3,5.4c1.8,1.1,5.3,1,7.4,0.5"/>
	<path class="st4" d="M26.1,45.9c0.9,1.5,2.7,3,6.2,3.1c10.6,0.4,23.7-21.7,11-37.1C33.5-0.1,28,5.4,26,8.5"/>
</g>
<g>
	<path class="st3" d="M17.8,6.8c0,0-3,2.6,0.8,5.1c3.8,2.6-1,7-1,7"/>
	<path class="st3" d="M4.9,22.7c1.6-0.3,3.3-0.2,4.9,0.3c2.1,0.7,1.7,3.2,1.7,4.6"/>
	<path class="st3" d="M2.2,29.6c1.6,0,5-0.2,5.8,0.1c0.8,0.3,1.6,0.9,2.1,1.6c0.5,0.8,0.5,1.7,0.5,2.6c0,0.8,0,1.5-0.4,2.2
		C9.8,37,8.9,37.7,8,37.8C7,37.9,5.6,38.2,4.7,38"/>
	<path class="st3" d="M4.5,15.9h5.3c0,0,5.1-0.2,5.1,7.5c2.3-0.7,5.7,0,5.8,3.6c0.1,2.4-2.8,4.7-5.2,4.3c1.3,0.1,2.6,0.3,3.7,0.9
		c1.1,0.6,2,1.8,1.9,3.1c-0.1,1.1-1,2-1.9,2.4c0,0,0,0,0,0c-0.6,0.3-0.6,1.2,0.1,1.4c0.8,0.2,1.5,0.6,1.8,1.6c0.6,2-0.5,4.3-2.3,5.4
		c-1.8,1.1-5.3,1-7.4,0.5"/>
	<path class="st3" d="M25.2,10.2v32.2c0,0,0.1,6.3-7.2,6.6C7.5,49.4-5.6,27.3,7,11.9S25.2,10.1,25.2,10.2L25.2,10.2z"/>
</g>
</svg>
