<?xml version="1.0" encoding="utf-8"?>
<!-- Generator: Adobe Illustrator 23.0.1, SVG Export Plug-In . SVG Version: 6.00 Build 0)  -->
<svg version="1.1" id="Layer_1" xmlns="http://www.w3.org/2000/svg" xmlns:xlink="http://www.w3.org/1999/xlink" x="0px" y="0px"
	 viewBox="0 0 50 50" style="enable-background:new 0 0 50 50;" xml:space="preserve">
<style type="text/css">
	.st0{fill:#FFFFFF;}
</style>
<g>
	<path class="st0" d="M35.1,0H14.9C6.68,0,0,6.68,0,14.9V35.1C0,43.32,6.68,50,14.9,50H35.1C43.32,50,50,43.32,50,35.1V14.9
		C50,6.68,43.32,0,35.1,0z M44.97,35.1c0,5.45-4.42,9.87-9.87,9.87H14.9c-5.45,0-9.87-4.42-9.87-9.87V14.9
		c0-5.45,4.42-9.87,9.87-9.87H35.1c5.45,0,9.87,4.42,9.87,9.87V35.1L44.97,35.1z"/>
	<path class="st0" d="M25,12.07c-7.13,0-12.93,5.8-12.93,12.93S17.87,37.93,25,37.93S37.93,32.13,37.93,25S32.13,12.07,25,12.07z
		 M25,32.9c-4.36,0-7.9-3.54-7.9-7.9s3.54-7.9,7.9-7.9c4.36,0,7.9,3.54,7.9,7.9C32.9,29.36,29.36,32.9,25,32.9z"/>
	<circle class="st0" cx="37.96" cy="12.17" r="3.1"/>
</g>
</svg>
