<?xml version="1.0" encoding="utf-8"?>
<!-- Generator: Adobe Illustrator 23.0.3, SVG Export Plug-In . SVG Version: 6.00 Build 0)  -->
<svg version="1.1" id="Layer_1" xmlns="http://www.w3.org/2000/svg" xmlns:xlink="http://www.w3.org/1999/xlink" x="0px" y="0px"
	 viewBox="0 0 50 50" style="enable-background:new 0 0 50 50;" xml:space="preserve">
<style type="text/css">
	.st0{fill:#9CBC65;}
	.st1{fill:#413F4C;}
	.st2{fill:none;stroke:#413F4C;stroke-miterlimit:10;}
	.st3{fill:none;stroke:#413F4C;stroke-width:1.5;stroke-miterlimit:10;}
	.st4{fill:none;stroke:#413F4C;stroke-width:1.5;stroke-linecap:round;stroke-linejoin:round;stroke-miterlimit:10;}
</style>
<circle class="st0" cx="18.9" cy="15.5" r="10.3"/>
<g>
	<line class="st2" x1="46" y1="42.6" x2="46" y2="47.9"/>
	<line class="st2" x1="43.3" y1="45.3" x2="48.7" y2="45.3"/>
</g>
<g>
	<line class="st2" x1="4.1" y1="2.6" x2="4.1" y2="6.8"/>
	<line class="st2" x1="2" y1="4.7" x2="6.2" y2="4.7"/>
</g>
<g>
	<g>
		<path class="st1" d="M25.1,50c-0.1,0-0.3,0-0.4-0.1c-0.3-0.1-6.6-2.8-12.9-7.7C3.4,35.7-0.6,28.3,0.2,21
			C0.9,14.4,4.6,9.7,10.2,8.4c5.4-1.2,11.1,1.1,14.8,6.1c3.7-5,9.4-7.4,14.8-6.1c5.6,1.3,9.3,6,10.1,12.6l0,0
			c0.8,7.3-3.2,14.7-11.6,21.2c-6.2,4.9-12.6,7.6-12.9,7.7C25.3,49.9,25.2,50,25.1,50z M13.1,10c-0.8,0-1.6,0.1-2.4,0.3
			c-4.7,1.1-7.9,5.2-8.5,10.9c-1.6,15,19.8,25.3,22.9,26.7c3.1-1.4,24.6-11.7,22.9-26.7l0,0c-0.6-5.7-3.8-9.8-8.5-10.9
			c-5-1.2-10.4,1.4-13.6,6.5c-0.2,0.3-0.5,0.5-0.8,0.5c-0.3,0-0.7-0.2-0.8-0.5C21.5,12.5,17.4,10,13.1,10z"/>
	</g>
	<g>
		<path class="st1" d="M25,44.5c-0.4,0-0.7-0.2-0.9-0.5c-0.2-0.5,0-1.1,0.4-1.3c1.2-0.6,2.4-1.2,3.6-1.9c0.5-0.3,1.1-0.1,1.4,0.4
			c0.3,0.5,0.1,1.1-0.4,1.4c-1.2,0.7-2.4,1.4-3.7,2C25.3,44.5,25.2,44.5,25,44.5z"/>
	</g>
	<g>
		<path class="st1" d="M33.2,39.6c-0.3,0-0.6-0.1-0.8-0.4c-0.3-0.4-0.2-1.1,0.2-1.4c2.9-2.1,5.3-4.2,7-6.4c0.3-0.4,1-0.5,1.4-0.2
			c0.4,0.3,0.5,1,0.2,1.4c-1.8,2.3-4.3,4.6-7.4,6.8C33.6,39.6,33.4,39.6,33.2,39.6z"/>
	</g>
</g>
</svg>
