<?xml version="1.0" encoding="utf-8"?>
<!-- Generator: Adobe Illustrator 23.0.1, SVG Export Plug-In . SVG Version: 6.00 Build 0)  -->
<svg version="1.1" id="Layer_1" xmlns="http://www.w3.org/2000/svg" xmlns:xlink="http://www.w3.org/1999/xlink" x="0px" y="0px"
	 viewBox="0 0 50 50" style="enable-background:new 0 0 50 50;" xml:space="preserve">
<style type="text/css">
	.st0{fill:#FFFFFF;}
</style>
<path class="st0" d="M50,25.7C50.4,11.5,38.8-0.2,24.6,0C10.9,0.2-0.1,11.5,0,25.2C0.1,35,5.8,43.5,14.1,47.5c0.5,0.2,1-0.1,1-0.7
	c-0.1-1.6,0-3.3,0.3-4.7c0.3-1.4,1.6-6.6,2.4-10.1c0.4-1.7,0.5-3.4,0.1-5.1c-0.1-0.6-0.2-1.2-0.2-1.9c0-3.7,2.1-6.4,4.8-6.4
	c2.3,0,3.4,1.7,3.4,3.7c0,2.3-1.5,5.7-2.2,8.9c-0.6,2.7,1.3,4.8,3.9,4.8c4.7,0,8.3-5,8.3-12.2c0-6.4-4.6-10.8-11.1-10.8
	c-7.6,0-12,5.7-12,11.5c0,2.3,0.9,4.7,2,6.1c0.2,0.3,0.3,0.5,0.2,0.8c-0.2,0.8-0.6,2.6-0.7,3c-0.1,0.5-0.4,0.6-0.9,0.4
	C10.1,33.1,8,28.2,8,24.4C8,16,14.1,8.3,25.6,8.3c9.2,0,16.4,6.6,16.4,15.4c0,9.2-5.8,16.5-13.8,16.5c-2.1,0-4.1-0.9-5.3-2
	c-0.4-0.4-1-0.2-1.1,0.3c-0.4,1.6-1.1,4.2-1.3,5c-0.4,1.5-1.2,3.3-2,4.8c-0.2,0.4,0,0.9,0.5,1c2,0.5,4.2,0.8,6.4,0.8
	C38.3,49.9,49.6,38.8,50,25.7z"/>
</svg>
