<?xml version="1.0" encoding="utf-8"?>
<!-- Generator: Adobe Illustrator 23.0.1, SVG Export Plug-In . SVG Version: 6.00 Build 0)  -->
<svg version="1.1" id="Layer_1" xmlns="http://www.w3.org/2000/svg" xmlns:xlink="http://www.w3.org/1999/xlink" x="0px" y="0px"
	 viewBox="0 0 50 50" style="enable-background:new 0 0 50 50;" xml:space="preserve">
<style type="text/css">
	.st0{fill:#FFFFFF;}
</style>
<path class="st0" d="M49.99,25.73C50.4,11.47,38.85-0.2,24.63,0C10.94,0.2-0.1,11.51,0,25.2C0.08,35,5.8,43.47,14.08,47.49
	c0.48,0.23,1.03-0.13,1.01-0.66c-0.06-1.61-0.01-3.33,0.31-4.71c0.32-1.36,1.56-6.62,2.38-10.08c0.4-1.68,0.45-3.43,0.13-5.13
	c-0.11-0.56-0.18-1.21-0.18-1.94c0-3.69,2.14-6.45,4.81-6.45c2.27,0,3.36,1.7,3.36,3.74c0,2.28-1.45,5.69-2.2,8.85
	c-0.63,2.65,1.33,4.8,3.94,4.8c4.72,0,8.35-4.98,8.35-12.17c0-6.36-4.57-10.81-11.1-10.81c-7.56,0-12,5.67-12,11.53
	c0,2.28,0.88,4.73,1.98,6.06c0.22,0.26,0.25,0.49,0.18,0.76c-0.2,0.84-0.65,2.64-0.74,3.01c-0.12,0.49-0.39,0.59-0.89,0.36
	c-3.32-1.54-5.39-6.4-5.39-10.29c0-8.38,6.09-16.08,17.56-16.08c9.22,0,16.38,6.57,16.38,15.35c0,9.16-5.77,16.53-13.79,16.53
	c-2.12,0-4.14-0.87-5.32-2.04c-0.36-0.36-0.98-0.2-1.11,0.3c-0.42,1.59-1.09,4.17-1.31,5c-0.39,1.51-1.22,3.26-2.05,4.79
	c-0.22,0.41,0,0.91,0.45,1.02c2.04,0.52,4.19,0.79,6.4,0.77C38.35,49.88,49.61,38.85,49.99,25.73z"/>
</svg>
