<?xml version="1.0" encoding="utf-8"?>
<!-- Generator: Adobe Illustrator 23.0.1, SVG Export Plug-In . SVG Version: 6.00 Build 0)  -->
<svg version="1.1" id="Layer_1" xmlns="http://www.w3.org/2000/svg" xmlns:xlink="http://www.w3.org/1999/xlink" x="0px" y="0px"
	 viewBox="0 0 324 75" style="enable-background:new 0 0 324 75;" xml:space="preserve">
<style type="text/css">
	.st0{fill:#FFFFFF;}
	.st1{fill:#9CBC65;}
</style>
<path class="st0" d="M10.1,44c-1.4,0-2.9-0.2-4.7-0.6c-1.7-0.4-3.1-1-4.2-1.7l1.1-2.5c1.4,0.7,2.8,1.3,4,1.7s2.5,0.6,3.9,0.6
	c2.4,0,4.3-0.5,5.6-1.5c1.4-1,2-2.3,2-4c0-2.4-2.6-4.6-7.7-6.6c-5.7-2.2-8.5-4.9-8.5-8.1c0-2.4,0.9-4.3,2.6-5.8
	c1.8-1.5,4.2-2.3,7.4-2.3c1.3,0,2.7,0.2,4.4,0.7s2.9,1,3.9,1.7l-1.2,2.1c-1.4-0.7-2.6-1.2-3.6-1.5s-2.3-0.5-3.8-0.5
	c-2,0-3.6,0.5-4.9,1.6c-1.2,1.1-1.9,2.3-1.9,3.8c0,1.2,0.6,2.3,1.9,3.3s3.1,1.9,5.4,2.8c2.7,1.1,4.9,2.3,6.5,3.7
	c1.6,1.4,2.4,3,2.4,4.9C20.8,41.3,17.2,44,10.1,44z"/>
<path class="st0" d="M41.3,13.3c2.2,0,4.2,0.7,5.9,2s3,3.1,4,5.5c0.9,2.3,1.4,5,1.4,7.9h-21c0,3.8,0.9,6.8,2.6,9.3
	c1.7,2.4,4.3,3.6,7.7,3.6c1.9,0,3.5-0.2,4.8-0.5c1.3-0.4,2.5-0.9,3.8-1.5l1.2,2.2c-1.1,0.7-2.6,1.2-4.5,1.7
	c-1.9,0.4-3.5,0.6-4.8,0.6c-4.6,0-8.1-1.4-10.4-4.2s-3.5-6.6-3.5-11.3c0-4.6,1.1-8.2,3.3-11C34,14.7,37.2,13.3,41.3,13.3z
	 M40.9,15.8c-2.7,0-4.9,1-6.4,3s-2.5,4.6-2.7,7.7h17.7c-0.3-3.2-1.2-5.7-2.5-7.7S43.6,15.8,40.9,15.8z"/>
<path class="st0" d="M73.1,13.3c2.2,0,4.2,0.7,5.9,2c1.7,1.3,3.1,3.1,4,5.5c0.9,2.3,1.4,5,1.4,7.9h-21c0,3.8,0.9,6.8,2.6,9.3
	s4.3,3.6,7.7,3.6c1.9,0,3.5-0.2,4.8-0.5c1.3-0.4,2.5-0.9,3.8-1.5l1.2,2.2c-1.1,0.7-2.6,1.2-4.5,1.7c-1.9,0.4-3.5,0.6-4.8,0.6
	c-4.6,0-8.1-1.4-10.4-4.2c-2.3-2.8-3.5-6.6-3.5-11.3c0-4.6,1.1-8.2,3.3-11S69,13.3,73.1,13.3z M72.7,15.8c-2.7,0-4.9,1-6.4,3
	s-2.5,4.6-2.7,7.7h17.7c-0.3-3.2-1.2-5.7-2.5-7.7C77.4,16.8,75.4,15.8,72.7,15.8z"/>
<path class="st0" d="M115.8,43.3h-1.6l-1.1-2.6c-2.4,2.2-5.2,3.4-8.3,3.4c-4.2,0-7.3-1.4-9.4-4.2s-3.2-6.6-3.2-11.3
	c0-4.5,1.1-8.2,3.4-11s5.4-4.2,9.6-4.2c1.3,0,2.6,0.3,3.9,0.8s2.6,1.2,3.7,2V1.4l2.9-0.5L115.8,43.3L115.8,43.3z M112.8,37.7V19.1
	c-2.4-2.2-5-3.3-7.8-3.3c-2.1,0-3.8,0.6-5.3,1.7s-2.6,2.7-3.3,4.6s-1.1,4.1-1.1,6.4c0,3.8,0.8,6.9,2.4,9.4s4,3.7,7.1,3.7
	c1.8,0,3.2-0.3,4.4-1S111.6,38.9,112.8,37.7z"/>
<path class="st1" d="M177.5,41.6l-1.5,1.6l-5.8-5.3c-1.4,1.9-3.1,3.4-5.2,4.4c-2.1,1.1-4.3,1.6-6.8,1.6c-2.6,0-5.1-0.5-7.2-1.6
	s-3.9-2.5-5.1-4.4c-1.2-1.9-1.9-4.2-1.9-6.8s0.6-4.9,1.7-7.1c1.2-2.1,2.7-3.9,4.8-5.2c-1.5-2.2-2.2-4.6-2.2-7.1
	c0-1.9,0.4-3.6,1.3-5.2c0.9-1.6,2.1-2.9,3.7-3.8s3.3-1.4,5.2-1.4c1.8,0,3.5,0.2,5.1,0.7s2.9,1,4,1.6l-1.2,2.1
	c-1.5-0.7-2.7-1.2-3.6-1.5c-0.9-0.3-2.1-0.5-3.8-0.5c-1.5,0-2.8,0.4-4,1.1s-2.1,1.7-2.8,2.8c-0.7,1.2-1,2.5-1,3.8
	c0,2,0.5,3.9,1.6,5.7c1.1,1.7,2.7,3.7,5,5.8L169.7,34c1-1.7,1.8-3.5,2.3-5.6c0.5-2,0.8-4,0.8-5.8l2.2,0.7c0,2.2-0.3,4.4-0.9,6.5
	c-0.6,2.2-1.4,4.1-2.5,6L177.5,41.6z M158.4,41.6c2,0,3.8-0.5,5.5-1.4c1.7-1,3.1-2.3,4.4-3.9l-12.7-11.6c-1.6-1.4-2.8-2.7-3.6-3.7
	c-1.7,1.2-2.9,2.7-3.8,4.4s-1.3,3.6-1.3,5.7c0,2,0.6,3.9,1.6,5.5c1.1,1.6,2.5,2.8,4.3,3.7C154.5,41.1,156.4,41.6,158.4,41.6z"/>
<path class="st0" d="M211.6,44c-1.4,0-2.9-0.2-4.6-0.6c-1.7-0.4-3.1-1-4.2-1.7l1.1-2.5c1.4,0.7,2.8,1.3,4,1.7s2.5,0.6,3.9,0.6
	c2.4,0,4.3-0.5,5.6-1.5c1.4-1,2-2.3,2-4c0-2.4-2.6-4.6-7.7-6.6c-5.6-2.2-8.5-4.9-8.5-8.1c0-2.4,0.9-4.3,2.6-5.8
	c1.8-1.5,4.2-2.3,7.4-2.3c1.3,0,2.7,0.2,4.4,0.7c1.6,0.5,2.9,1,3.9,1.7l-1.2,2.1c-1.4-0.7-2.6-1.2-3.6-1.5s-2.3-0.5-3.8-0.5
	c-2,0-3.6,0.5-4.9,1.6c-1.3,1.1-1.9,2.3-1.9,3.8c0,1.2,0.6,2.3,1.9,3.3s3.1,1.9,5.4,2.8c2.7,1.1,4.9,2.3,6.5,3.7s2.4,3,2.4,4.9
	C222.3,41.3,218.7,44,211.6,44z"/>
<path class="st0" d="M236.1,15h5.3l1.3,2.2h-6.6v18.6c0,1.6,0.3,3,1,4c0.7,1.1,1.7,1.7,3.1,1.7c0.8,0,1.6-0.2,2.5-0.5l0.7,2.3
	c-0.1,0-0.7,0.1-1.6,0.4c-0.8,0.2-1.6,0.3-2.3,0.3c-1.9,0-3.4-0.7-4.6-2s-1.7-3.3-1.7-5.7v-19h-4.3V15h4.3V7.2l2.9-1.3L236.1,15
	L236.1,15z"/>
<path class="st0" d="M263.4,13.3c2.2,0,4.2,0.7,5.9,2c1.7,1.3,3,3.1,4,5.5c0.9,2.3,1.4,5,1.4,7.9h-21c0,3.8,0.9,6.8,2.6,9.3
	c1.7,2.4,4.3,3.6,7.7,3.6c1.9,0,3.5-0.2,4.8-0.5c1.3-0.4,2.5-0.9,3.8-1.5l1.2,2.2c-1.1,0.7-2.6,1.2-4.5,1.7
	c-1.9,0.4-3.5,0.6-4.8,0.6c-4.6,0-8.1-1.4-10.4-4.2s-3.4-6.6-3.4-11.3c0-4.6,1.1-8.2,3.3-11C256.1,14.7,259.2,13.3,263.4,13.3z
	 M262.9,15.8c-2.7,0-4.9,1-6.4,3s-2.4,4.6-2.7,7.7h17.7c-0.3-3.2-1.2-5.7-2.5-7.7C267.6,16.8,265.6,15.8,262.9,15.8z"/>
<path class="st0" d="M322.7,23v20.2h-2.9V23c0-2.3-0.3-4.1-1-5.4c-0.7-1.2-2-1.9-3.8-1.9c-2.8,0-6,1.8-9.7,5.4c0,0.4,0.1,1,0.1,1.8
	v20.2h-2.9V23c0-2.3-0.3-4.1-1-5.4c-0.7-1.2-2-1.9-3.8-1.9c-1.5,0-3.1,0.5-4.9,1.6c-1.7,1.1-3.5,2.5-5.3,4.3v21.6h-2.9V14.1h2.3
	l0.6,4.6c1.2-1.4,2.8-2.7,4.8-3.8s3.7-1.6,5.2-1.6c3.9,0,6.4,1.8,7.5,5.3c1.2-1.4,2.8-2.7,4.8-3.7c1.9-1,3.7-1.6,5.2-1.6
	c2.8,0,4.8,0.9,6.1,2.6C322.1,17.6,322.7,20,322.7,23z"/>
<path class="st1" d="M164.3,8.1c-1.2-1.4-3.6-2.4-6.8-1.2c-1.7,0.7-2.9,2-3.4,3.6c-0.6,1.8-0.1,3.9,1.2,5.8c2.5,3.5,9,8.9,9.3,9.2
	c0.2,0.2,0.4,0.2,0.7,0.2c0.1,0,0.3,0,0.4-0.1c0.4-0.2,0.6-0.5,0.6-0.9C166.5,22.4,166.7,10.8,164.3,8.1z M157.2,15.1
	c-1-1.4-1.3-2.8-0.9-3.9c0.3-1,1.1-1.8,2.1-2.2c0.8-0.3,1.4-0.4,2-0.4c1.4,0,2.2,0.7,2.4,1c1,1.2,1.5,6.3,1.6,11l-2.9-5.9l0,0l0,0
	l2.1,7.1C161.5,19.8,158.6,17,157.2,15.1z"/>
<g>
	<path class="st0" d="M73.5,69.4c0-0.9,0.2-1.6,0.5-2.3c0.3-0.7,0.8-1.2,1.4-1.6s1.3-0.6,2-0.6s1.4,0.2,2,0.6s1.1,0.9,1.4,1.6
		s0.5,1.4,0.5,2.3s-0.2,1.6-0.5,2.3c-0.3,0.7-0.8,1.2-1.4,1.6s-1.3,0.6-2,0.6s-1.4-0.2-2-0.6s-1-0.9-1.4-1.6
		C73.7,71,73.5,70.2,73.5,69.4z M77.5,65.5c-0.6,0-1.2,0.2-1.6,0.5c-0.5,0.3-0.9,0.8-1.1,1.4s-0.4,1.3-0.4,2s0.1,1.4,0.4,2
		s0.6,1,1.1,1.4s1,0.5,1.6,0.5s1.2-0.2,1.7-0.5s0.9-0.8,1.1-1.4s0.4-1.3,0.4-2s-0.1-1.4-0.4-2s-0.6-1-1.1-1.4
		C78.6,65.6,78.1,65.5,77.5,65.5z"/>
	<path class="st0" d="M85.7,73.6V65h2.1c1,0,1.7,0.2,2.3,0.6s0.8,1,0.8,1.9c0,0.6-0.2,1-0.4,1.4s-0.7,0.7-1.1,0.8l2.2,3.9h-0.8
		l-2.1-3.7C88.4,70,88,70,87.6,70h-1.3v3.6H85.7L85.7,73.6z M90.2,67.5c0-1.3-0.8-1.9-2.4-1.9h-1.5v3.8h1.3c0.7,0,1.3-0.2,1.8-0.5
		S90.2,68.2,90.2,67.5z"/>
	<path class="st0" d="M100.6,69.8h-1.9l0.1-0.5h2.6v3.9c-0.2,0.2-0.6,0.3-1,0.4s-0.8,0.2-1.2,0.2c-0.8,0-1.6-0.2-2.2-0.6
		s-1.1-0.9-1.5-1.6S95,70.2,95,69.3s0.2-1.7,0.6-2.3c0.4-0.7,0.9-1.2,1.6-1.6s1.4-0.6,2.2-0.6c0.3,0,0.7,0,1.1,0.1s0.8,0.2,1,0.3
		l-0.2,0.5c-0.3-0.1-0.6-0.2-0.8-0.3s-0.6-0.1-1-0.1c-0.7,0-1.3,0.2-1.8,0.5c-0.6,0.3-1,0.8-1.3,1.4s-0.5,1.3-0.5,2.1
		c0,0.7,0.2,1.4,0.4,2c0.3,0.6,0.7,1,1.2,1.3s1.1,0.5,1.8,0.5c0.5,0,1-0.1,1.5-0.3L100.6,69.8L100.6,69.8z"/>
	<path class="st0" d="M104.7,73.6l3.1-8.6h0.7l3.3,8.5l-0.7,0.1l-1-2.7h-3.7l-1,2.6L104.7,73.6L104.7,73.6z M106.5,70.4h3.3
		l-1.7-4.5L106.5,70.4z"/>
	<path class="st0" d="M116.3,66.5v7.2h-0.7v-8.6h0.4l4.4,6.3l0.4,0.7V65h0.7v8.6h-0.4l-4.7-6.8L116.3,66.5z"/>
	<path class="st0" d="M127.3,65.1v8.6h-0.7v-8.6H127.3z"/>
	<path class="st0" d="M135.6,64.9c0.3,0,0.7,0,1.1,0.1c0.4,0.1,0.8,0.2,1,0.3l-0.3,0.5c-0.3-0.1-0.6-0.2-0.8-0.3
		c-0.2-0.1-0.6-0.1-1-0.1c-0.6,0-1.1,0.2-1.6,0.5s-0.9,0.8-1.1,1.4s-0.4,1.3-0.4,2s0.1,1.3,0.4,1.9c0.2,0.6,0.6,1,1.1,1.4
		s1,0.5,1.6,0.5c0.4,0,0.8,0,1.1-0.1s0.6-0.2,0.8-0.3l0.3,0.5c-0.2,0.1-0.6,0.2-1,0.3c-0.4,0.1-0.8,0.1-1.2,0.1
		c-0.8,0-1.6-0.2-2.1-0.6s-1-0.9-1.3-1.6s-0.4-1.4-0.4-2.2c0-0.8,0.2-1.6,0.5-2.3c0.3-0.7,0.8-1.2,1.4-1.6
		C134.1,65.1,134.8,64.9,135.6,64.9z"/>
	<path class="st0" d="M150.6,64.9c0.3,0,0.7,0,1.1,0.1c0.4,0.1,0.8,0.2,1,0.3l-0.3,0.5c-0.3-0.1-0.6-0.2-0.8-0.3
		c-0.2-0.1-0.6-0.1-1-0.1c-0.6,0-1.1,0.2-1.6,0.5s-0.9,0.8-1.1,1.4s-0.4,1.3-0.4,2s0.1,1.3,0.4,1.9c0.2,0.6,0.6,1,1.1,1.4
		s1,0.5,1.6,0.5c0.4,0,0.8,0,1.1-0.1s0.6-0.2,0.8-0.3l0.3,0.5c-0.2,0.1-0.6,0.2-1,0.3c-0.4,0.1-0.8,0.1-1.2,0.1
		c-0.8,0-1.6-0.2-2.1-0.6s-1-0.9-1.3-1.6s-0.4-1.4-0.4-2.2c0-0.8,0.2-1.6,0.5-2.3s0.8-1.2,1.4-1.6C149.1,65.1,149.8,64.9,150.6,64.9
		z"/>
	<path class="st0" d="M155.7,73.6l3.1-8.6h0.7l3.3,8.5l-0.7,0.1l-1-2.7h-3.7l-1,2.6L155.7,73.6L155.7,73.6z M157.5,70.4h3.3
		l-1.7-4.5L157.5,70.4z"/>
	<path class="st0" d="M165.5,65.1h6.5l0.1,0.6h-2.9v8h-0.7v-8h-2.9L165.5,65.1L165.5,65.1z"/>
	<path class="st0" d="M180.7,73.1l0.1,0.6H176v-8.6h4.7l0.1,0.5h-4.1V69h3l0.1,0.5h-3.1v3.6H180.7z"/>
	<path class="st0" d="M184.8,73.6V65h2.1c1,0,1.7,0.2,2.3,0.6s0.8,1,0.8,1.9c0,0.6-0.1,1-0.4,1.4s-0.6,0.7-1.1,0.8l2.2,3.9h-0.8
		l-2.1-3.7c-0.4,0.1-0.7,0.1-1.1,0.1h-1.3v3.6L184.8,73.6L184.8,73.6z M189.3,67.5c0-1.3-0.8-1.9-2.4-1.9h-1.5v3.8h1.3
		c0.7,0,1.3-0.2,1.8-0.5S189.3,68.2,189.3,67.5z"/>
	<path class="st0" d="M195.3,65.1v8.6h-0.7v-8.6H195.3z"/>
	<path class="st0" d="M201,66.5v7.2h-0.7v-8.6h0.4l4.4,6.3l0.4,0.7V65h0.7v8.6h-0.4l-4.7-6.8L201,66.5z"/>
	<path class="st0" d="M216.4,69.8h-1.9l0.1-0.5h2.6v3.9c-0.2,0.2-0.6,0.3-1,0.4s-0.8,0.2-1.2,0.2c-0.9,0-1.6-0.2-2.2-0.6
		s-1.1-0.9-1.5-1.6s-0.5-1.4-0.5-2.3s0.2-1.7,0.6-2.3c0.4-0.7,0.9-1.2,1.6-1.6c0.7-0.4,1.4-0.6,2.2-0.6c0.3,0,0.7,0,1.1,0.1
		c0.4,0.1,0.8,0.2,1,0.3l-0.2,0.5c-0.3-0.1-0.6-0.2-0.8-0.3s-0.6-0.1-1-0.1c-0.7,0-1.3,0.2-1.8,0.5c-0.6,0.3-1,0.8-1.3,1.4
		s-0.5,1.3-0.5,2.1c0,0.7,0.1,1.4,0.4,2c0.3,0.6,0.7,1,1.2,1.3s1.1,0.5,1.8,0.5c0.5,0,1-0.1,1.5-0.3L216.4,69.8L216.4,69.8z"/>
	<path class="st0" d="M230.4,64.9c0.3,0,0.7,0,1.1,0.1c0.4,0.1,0.8,0.2,1,0.3l-0.3,0.5c-0.3-0.1-0.6-0.2-0.8-0.3
		c-0.2-0.1-0.6-0.1-1-0.1c-0.6,0-1.1,0.2-1.6,0.5s-0.9,0.8-1.1,1.4s-0.4,1.3-0.4,2s0.1,1.3,0.4,1.9c0.2,0.6,0.6,1,1.1,1.4
		s1,0.5,1.6,0.5c0.4,0,0.8,0,1.1-0.1s0.6-0.2,0.8-0.3l0.3,0.5c-0.2,0.1-0.6,0.2-1,0.3c-0.4,0.1-0.8,0.1-1.2,0.1
		c-0.8,0-1.6-0.2-2.1-0.6s-1-0.9-1.3-1.6s-0.4-1.4-0.4-2.2c0-0.8,0.2-1.6,0.5-2.3c0.3-0.7,0.8-1.2,1.4-1.6
		C228.9,65.1,229.6,64.9,230.4,64.9z"/>
	<path class="st0" d="M236,69.4c0-0.9,0.2-1.6,0.5-2.3c0.3-0.7,0.8-1.2,1.4-1.6c0.6-0.4,1.3-0.6,2-0.6s1.4,0.2,2,0.6
		s1.1,0.9,1.4,1.6s0.5,1.4,0.5,2.3s-0.2,1.6-0.5,2.3s-0.8,1.2-1.4,1.6s-1.3,0.6-2,0.6s-1.4-0.2-2-0.6s-1-0.9-1.4-1.6
		C236.1,71,236,70.2,236,69.4z M239.9,65.5c-0.6,0-1.1,0.2-1.6,0.5s-0.9,0.8-1.1,1.4s-0.4,1.3-0.4,2s0.1,1.4,0.4,2
		c0.3,0.6,0.6,1,1.1,1.4s1,0.5,1.6,0.5s1.2-0.2,1.6-0.5c0.5-0.3,0.9-0.8,1.1-1.4s0.4-1.3,0.4-2s-0.1-1.4-0.4-2
		c-0.3-0.6-0.6-1-1.1-1.4S240.5,65.5,239.9,65.5z"/>
	<path class="st0" d="M248.3,73.1c0,0.2-0.1,0.3-0.2,0.4c-0.1,0.1-0.2,0.2-0.4,0.2s-0.3-0.1-0.4-0.2s-0.1-0.2-0.1-0.4
		c0-0.1,0.1-0.3,0.2-0.4c0.1-0.1,0.2-0.2,0.4-0.2c0.1,0,0.3,0.1,0.4,0.2S248.3,73,248.3,73.1z"/>
</g>
<rect x="256.7" y="69.8" class="st0" width="20.5" height="0.5"/>
<rect x="45.1" y="69.8" class="st0" width="20.5" height="0.5"/>
</svg>
