<?xml version="1.0" encoding="utf-8"?>
<!-- Generator: Adobe Illustrator 23.0.3, SVG Export Plug-In . SVG Version: 6.00 Build 0)  -->
<svg version="1.1" id="Layer_1" xmlns="http://www.w3.org/2000/svg" xmlns:xlink="http://www.w3.org/1999/xlink" x="0px" y="0px"
	 viewBox="0 0 50 50" style="enable-background:new 0 0 50 50;" xml:space="preserve">
<style type="text/css">
	.st0{fill:#9CBC65;}
	.st1{fill:#413F4C;}
	.st2{fill:none;stroke:#413F4C;stroke-miterlimit:10;}
	.st3{fill:none;stroke:#413F4C;stroke-width:1.5;stroke-miterlimit:10;}
	.st4{fill:none;stroke:#413F4C;stroke-width:1.5;stroke-linecap:round;stroke-linejoin:round;stroke-miterlimit:10;}
</style>
<circle class="st0" cx="25.7" cy="25" r="10.3"/>
<g>
	<path class="st1" d="M49.6,16.9c-0.2-0.2-0.4-0.2-0.6-0.2c-0.6,0.1-13.6,1.6-21.2,10.9c-0.9,1.1-1.7,2.4-2.5,3.7
		c-0.8-1.7-1.8-3.4-3.1-5C14.6,17.2,1.5,15.6,1,15.5c-0.2,0-0.4,0.1-0.6,0.2c-0.2,0.2-0.3,0.3-0.3,0.6C0,16.8-1,29.9,6.5,39.1
		S27.1,49.9,27.7,50c0.1,0,0.1,0,0.1,0l0,0l0,0c0,0,0,0,0.1,0c0,0,0,0,0.1,0s0.2,0,0.2-0.1c4.6-1.4,11-4.2,15.4-9.6
		c7.5-9.2,6.4-22.3,6.4-22.9C49.8,17.3,49.7,17.1,49.6,16.9z M7.8,38.1c-6-7.4-6.1-17.7-6.1-20.8c3,0.5,13.1,2.7,19.2,10.1
		c5.3,6.5,6,15.4,6.1,19.5L9.5,25.5c-0.3-0.3-0.8-0.4-1.2-0.1C8,25.7,8,26.2,8.2,26.5l17.5,21.4C21.7,47.1,13.1,44.6,7.8,38.1z
		 M42.2,39.3c-3.9,4.7-9.3,7.3-13.5,8.7c0.1-0.9,0.1-2.3-0.1-4l13.2-16.2c0.3-0.3,0.2-0.9-0.1-1.2c-0.3-0.3-0.9-0.2-1.2,0.1
		L28.3,41.7c-0.3-2.5-0.9-5.4-2.1-8.4c0.8-1.7,1.8-3.3,2.9-4.6c6-7.4,16.1-9.6,19.2-10.1C48.3,21.6,48.2,32,42.2,39.3z"/>
</g>
<path class="st2" d="M34.9,18c0,1-0.8,1.8-1.7,1.8c-0.9,0-1.7-0.8-1.7-1.8c0-1,0.8-1.8,1.7-1.8C34.1,16.2,34.9,17,34.9,18z"/>
<g>
	<line class="st2" x1="4.4" y1="42.6" x2="4.4" y2="46.8"/>
	<line class="st2" x1="2.3" y1="44.7" x2="6.5" y2="44.7"/>
</g>
<g>
	<line class="st2" x1="15.4" y1="5.4" x2="15.4" y2="10.7"/>
	<line class="st2" x1="12.8" y1="8.1" x2="18.1" y2="8.1"/>
</g>
</svg>
